<svg width="118" height="114" viewBox="0 0 118 114" fill="none" xmlns="http://www.w3.org/2000/svg">
<rect x="0.5" y="0.5" width="109" height="109" rx="15.5" fill="#D0D0D0" stroke="#535354"/>
<rect x="7.5" y="4.5" width="109" height="109" rx="15.5" fill="#FBFBFB" stroke="#535354"/>
<path d="M62.9951 29L62.5925 30.3673V70.0406L62.9951 70.4422L81.4106 59.5566L62.9951 29Z" fill="#393939"/>
<path d="M62.9951 29L44.5791 59.5566L62.9951 70.4422L62.9951 51.1859L62.9951 29Z" fill="#8B8B8B"/>
<path d="M62.9951 73.9288L62.7682 74.2055V88.3377L62.9951 89L81.4219 63.0489L62.9951 73.9288Z" fill="#393939"/>
<path d="M62.9951 89V73.9288L44.5791 63.0489L62.9951 89Z" fill="#8B8B8B"/>
<path d="M62.9951 70.4422L81.4106 59.5566L62.9951 51.1859L62.9951 70.4422Z" fill="#131313"/>
<path d="M44.5791 59.5566L62.9951 70.4422L62.9951 51.1859L44.5791 59.5566Z" fill="#393939"/>
</svg>
