<svg width="118" height="115" viewBox="0 0 118 115" fill="none" xmlns="http://www.w3.org/2000/svg">
<path d="M0.5 16.5C0.5 7.93959 7.43959 1 16 1H94C102.56 1 109.5 7.93959 109.5 16.5V94.5C109.5 103.06 102.56 110 94 110H16C7.43959 110 0.5 103.06 0.5 94.5V16.5Z" fill="#D0D0D0" stroke="#535354"/>
<path d="M7 20.5C7 11.6634 14.1634 4.5 23 4.5H101C109.837 4.5 117 11.6634 117 20.5V98.5C117 107.337 109.837 114.5 101 114.5H23C14.1634 114.5 7 107.337 7 98.5V20.5Z" fill="#F5F0FD" stroke="#535354"/>
<path d="M77.5481 70.369L91.78 62.1409C92.5338 61.705 93 60.8947 93 60.0228V43.5687C93 42.6988 92.5317 41.8865 91.78 41.4505L77.5481 33.2225C76.7943 32.7865 75.8598 32.7885 75.106 33.2225L60.8742 41.4505C60.1204 41.8865 59.6541 42.6988 59.6541 43.5687V72.9746L49.674 78.7431L39.6938 72.9746V61.4356L49.674 55.6671L56.2569 59.4716V51.7309L50.894 48.6318C50.5243 48.4179 50.1012 48.3048 49.6719 48.3048C49.2426 48.3048 48.8195 48.4179 48.4519 48.6318L34.22 56.8599C33.4662 57.2958 33 58.1061 33 58.9781V75.4321C33 76.302 33.4683 77.1143 34.22 77.5503L48.4519 85.7784C49.2036 86.2123 50.1402 86.2123 50.894 85.7784L65.1258 77.5524C65.8796 77.1164 66.3459 76.3041 66.3459 75.4342V46.0283L66.5266 45.9255L76.326 40.2598L86.3062 46.0283V57.5673L76.326 63.3358L69.7534 59.5354V67.276L75.106 70.3711C75.8598 70.805 76.7943 70.805 77.5481 70.3711V70.369Z" fill="url(#paint0_linear_7344_37626)"/>
<defs>
<linearGradient id="paint0_linear_7344_37626" x1="38.0979" y1="77.6799" x2="89.7129" y2="40.0904" gradientUnits="userSpaceOnUse">
<stop stop-color="#A726C1"/>
<stop offset="0.88" stop-color="#803BDF"/>
<stop offset="1" stop-color="#7B3FE4"/>
</linearGradient>
</defs>
</svg>
