<svg width="118" height="114" viewBox="0 0 118 114" fill="none" xmlns="http://www.w3.org/2000/svg">
<rect x="0.5" y="0.5" width="109" height="109" rx="15.5" fill="#D0D0D0" stroke="#535354"/>
<rect x="7.5" y="4.5" width="109" height="109" rx="15.5" fill="black" stroke="#535354"/>
<path fill-rule="evenodd" clip-rule="evenodd" d="M44.3434 82.6675C37.1381 77.2835 32.4737 68.6865 32.4737 59C32.4737 42.6931 45.6931 29.4737 62 29.4737C75.4585 29.4737 90.1555 37.5165 93.71 49.8342C89.738 36.0696 77.0472 26 62 26C43.7746 26 29 40.7746 29 59C29 77.2254 43.7746 92 62 92C80.2254 92 95 77.2254 95 59V57.2632L93.187 57.2628C93.1331 57.2624 93.0516 57.2616 92.9453 57.26C92.7328 57.2567 92.4213 57.2502 92.0328 57.237C91.2547 57.2106 90.1732 57.1577 88.9617 57.0524C86.4856 56.837 83.662 56.4167 81.7387 55.6486C78.6446 54.4129 76.8977 52.7748 74.9016 50.858L74.7863 50.7472C72.7868 48.8263 70.5404 46.6684 66.6473 44.8363C62.8119 43.0314 58.5709 43.321 55.4544 43.9623C53.8718 44.2878 52.5162 44.7172 51.5545 45.0655C51.0724 45.2401 50.6859 45.3955 50.4157 45.5093C48.8474 46.1696 47.3252 46.9509 45.786 47.6757C45.786 47.6757 48.8058 48.504 50.2994 48.9664C50.3534 48.9831 50.4377 49.0099 50.5481 49.047C50.769 49.1214 51.0924 49.2367 51.4837 49.3951C52.2714 49.714 53.3076 50.1965 54.3305 50.8541C55.9416 51.8898 57.2773 53.1928 57.8251 54.7924C54.4051 55.242 51.1974 56.7432 48.7987 58.1543C47.3442 59.0099 46.1345 59.8637 45.2868 60.5049C44.8621 60.8262 44.5261 61.0956 44.2933 61.2873C44.0979 61.4481 41.0101 64.1701 41.0101 64.1701C41.0101 64.1701 44.9938 64.5938 46.9596 64.9899C48.2675 65.2534 50.0307 65.6775 51.8698 66.3193C53.7174 66.9639 55.5838 67.8084 57.1327 68.8895C58.6848 69.9729 59.8215 71.2254 60.3826 72.6592C62.0163 76.8344 60.4132 80.9016 57.1944 83.1895C54.0138 85.4502 49.1783 85.9877 44.3434 82.6675ZM55.6029 87.8314C56.9033 87.4091 58.1171 86.7955 59.2069 86.0208C63.5868 82.9076 65.8916 77.205 63.6174 71.3934C62.724 69.1103 61.0167 67.3644 59.121 66.0412C57.2219 64.7156 55.0367 63.7452 53.0142 63.0395C51.6844 62.5755 50.3999 62.2173 49.2749 61.9455C49.674 61.6851 50.1039 61.4166 50.5599 61.1483C53.2333 59.5758 56.6002 58.1315 59.8289 58.1315C64.6955 58.1315 68.32 59.6249 71.7806 61.2274C72.0952 61.373 72.4109 61.5212 72.7283 61.6701C75.8208 63.1209 79.0686 64.6447 82.8421 64.6447C86.5017 64.6447 89.352 63.6101 91.3163 62.5402C89.5673 77.178 77.1089 88.5264 62 88.5264C59.8034 88.5264 57.6627 88.2864 55.6029 87.8314ZM87.5629 60.4066C86.2623 60.8504 84.6857 61.1711 82.8421 61.1711C79.8819 61.1711 77.3386 59.9852 74.1098 58.4797C73.8256 58.3472 73.5359 58.2121 73.2403 58.0753C70.0073 56.5781 66.267 54.9915 61.3982 54.704C60.7449 51.4803 58.3017 49.2775 56.2089 47.9321C55.9758 47.7822 55.743 47.6403 55.5127 47.5061C55.7215 47.457 55.9356 47.4097 56.1546 47.3646C58.9669 46.7859 62.3245 46.6412 65.1682 47.9793C68.5433 49.5676 70.4471 51.396 72.4278 53.2983L72.4956 53.3634C74.5338 55.3207 76.6894 57.3725 80.4504 58.8745C82.5398 59.709 85.2439 60.1578 87.5629 60.4066Z" fill="url(#paint0_linear_7559_1111)"/>
<defs>
<linearGradient id="paint0_linear_7559_1111" x1="29.0054" y1="59.6029" x2="95.0207" y2="58.3966" gradientUnits="userSpaceOnUse">
<stop stop-color="#29CCB9"/>
<stop offset="0.49479" stop-color="#0091FF"/>
<stop offset="1" stop-color="#FF66B7"/>
</linearGradient>
</defs>
</svg>
