<svg width="119" height="115" viewBox="0 0 119 115" fill="none" xmlns="http://www.w3.org/2000/svg">
<rect x="0.521484" y="1" width="109" height="109" rx="15.5" fill="#D0D0D0" stroke="#535354"/>
<rect x="7.52148" y="5" width="109" height="109" rx="15.5" fill="#2D384B" stroke="#535354"/>
<path d="M38.4313 47.7367V71.263C38.4313 72.7602 39.2296 74.147 40.5316 74.8956L60.9204 86.6526C62.2224 87.4013 63.8191 87.4013 65.121 86.6526L85.5099 74.8956C86.8118 74.147 87.6102 72.7602 87.6102 71.263V47.7367C87.6102 46.2395 86.8118 44.8527 85.5099 44.1041L65.121 32.347C63.8191 31.5984 62.2224 31.5984 60.9204 32.347L40.5316 44.1041C39.2419 44.8527 38.4313 46.2395 38.4313 47.7367Z" fill="#213147"/>
<path d="M67.4787 64.0591L64.5678 72.0239C64.4818 72.2448 64.4818 72.4903 64.5678 72.7112L69.5667 86.4195L75.3518 83.0814L68.4122 64.0591C68.2525 63.6173 67.6384 63.6173 67.4787 64.0591Z" fill="#12AAFF"/>
<path d="M73.3009 50.6574C73.1412 50.2156 72.5271 50.2156 72.3674 50.6574L69.4565 58.6223C69.3705 58.8432 69.3705 59.0886 69.4565 59.3095L77.6489 81.7558L83.4339 78.4177L73.3009 50.6574Z" fill="#12AAFF"/>
<path d="M63.0208 33.2184C63.1682 33.2184 63.3033 33.2552 63.4384 33.3289L85.4976 46.0554C85.7556 46.2027 85.9152 46.4727 85.9152 46.7672V72.2203C85.9152 72.5148 85.7556 72.7848 85.4976 72.9321L63.4384 85.6709C63.3155 85.7445 63.1682 85.7813 63.0208 85.7813C62.8734 85.7813 62.7383 85.7445 62.6032 85.6709L40.5562 72.9443C40.2982 72.7971 40.1386 72.5271 40.1386 72.2325V46.7672C40.1386 46.4727 40.2982 46.2027 40.5562 46.0554L62.6154 33.3289C62.7383 33.2552 62.8857 33.2184 63.0208 33.2184ZM63.0208 29.4999C62.2347 29.4999 61.4486 29.7085 60.7485 30.1135L38.6892 42.84C37.289 43.65 36.417 45.1473 36.417 46.7672V72.2203C36.417 73.8402 37.289 75.3497 38.6892 76.1597L60.7485 88.8863C61.4486 89.2912 62.2347 89.4999 63.0208 89.4999C63.8068 89.4999 64.5929 89.2912 65.293 88.8863L87.3523 76.1597C88.7648 75.3497 89.6245 73.8525 89.6245 72.2203V46.7672C89.6245 45.1473 88.7525 43.6377 87.3523 42.8278L65.3053 30.1135C64.5929 29.7085 63.8068 29.4999 63.0208 29.4999Z" fill="#9DCCED"/>
<path d="M48.4409 81.7805L50.4675 76.2334L54.5452 79.6206L50.7377 83.1059L48.4409 81.7805Z" fill="#213147"/>
<path d="M61.1652 44.9509H55.5767C55.1591 44.9509 54.7783 45.2086 54.6432 45.6014L42.6556 78.4424L48.4406 81.7806L61.6442 45.6136C61.7548 45.2946 61.5214 44.9509 61.1652 44.9509Z" fill="white"/>
<path d="M70.9551 44.9509H65.3666C64.949 44.9509 64.5682 45.2086 64.4331 45.6014L50.7382 83.106L56.5232 86.4441L71.4218 45.6259C71.5446 45.2946 71.299 44.9509 70.9551 44.9509Z" fill="white"/>
</svg>
