<svg width="119" height="115" viewBox="0 0 119 115" fill="none" xmlns="http://www.w3.org/2000/svg">
<rect x="1.27637" y="1" width="109" height="109" rx="15.5" fill="#D0D0D0" stroke="#535354"/>
<rect x="8.27637" y="5" width="109" height="109" rx="15.5" fill="#FF0420" stroke="#535354"/>
<path d="M45.3498 75.6479C41.9485 75.7843 39.1636 75.0647 36.995 73.4892C34.8492 71.8889 33.7764 69.5094 33.7764 66.398C33.7764 65.733 33.8448 64.9465 33.9818 63.9909C34.347 61.8387 34.8721 59.2526 35.5569 56.2088C37.4972 47.9607 42.5192 43.6741 50.6001 43.35C52.7915 43.2621 54.7775 43.5625 56.5123 44.2767C58.2472 44.9434 59.6168 46.0285 60.6212 47.5082C61.6256 48.9643 62.1278 50.7254 62.1278 52.7917C62.1278 53.4093 62.0594 54.1958 61.9224 55.1513C61.4887 57.805 60.9865 60.414 60.3701 62.9326C59.3657 67.0342 57.6537 70.1667 55.1884 72.2844C52.7458 74.3775 49.4587 75.4831 45.3498 75.6479ZM45.9661 69.2105C47.564 69.1464 48.9109 68.5936 50.0294 67.575C51.1708 66.5554 51.9925 65.0261 52.4719 62.9643C53.1339 60.1352 53.6361 57.6925 53.9785 55.5887C54.0926 54.9666 54.1611 54.3226 54.1611 53.6575C54.1611 50.9499 52.8143 49.6502 50.0979 49.7591C48.5 49.8232 47.1303 50.3769 45.989 51.3965C44.8704 52.4151 44.0715 53.9435 43.5921 56.0052C43.0671 58.0214 42.5649 60.4641 42.0398 63.3827C41.9257 63.9811 41.8572 64.6014 41.8572 65.2664C41.8344 68.0224 43.2269 69.3203 45.9661 69.2105Z" fill="white"/>
<path d="M65.4936 75.2328C65.174 75.2456 64.9457 75.1598 64.7631 74.9533C64.6262 74.7213 64.5805 74.4619 64.6262 74.1513L70.5384 44.9382C70.5841 44.6039 70.7439 44.3362 71.0178 44.1115C71.2689 43.8876 71.5428 43.7817 71.8396 43.7698L83.2304 43.3129C86.4034 43.1856 88.9372 43.7728 90.8547 45.0497C92.795 46.3494 93.7766 48.2813 93.7766 50.8702C93.7766 51.6064 93.6853 52.3939 93.5255 53.2078C92.8178 56.6563 91.3797 59.2316 89.1883 60.9583C87.0425 62.6831 84.0978 63.6088 80.3542 63.7589L74.5789 63.9905L72.6157 73.8309C72.5472 74.1661 72.4103 74.4329 72.1363 74.6576C71.8852 74.8814 71.6113 74.9874 71.3145 74.9993L65.4936 75.2328ZM80.6509 57.5956C81.8608 57.547 82.888 57.1733 83.7782 56.4489C84.6913 55.7235 85.2848 54.7259 85.5816 53.4314C85.6729 52.929 85.7186 52.4759 85.7186 52.0959C85.7186 51.2409 85.4675 50.5859 84.9881 50.1539C84.5087 49.6981 83.6641 49.4945 82.4999 49.5411L77.3638 49.7471L75.743 57.7924L80.6509 57.5956Z" fill="white"/>
</svg>
