<svg width="118" height="115" viewBox="0 0 118 115" fill="none" xmlns="http://www.w3.org/2000/svg">
<rect x="0.766006" y="1" width="108.752" height="109" rx="15.5" fill="#D0D0D0" stroke="#535354"/>
<rect x="7.48422" y="5" width="108.752" height="109" rx="15.5" fill="#F0B90B" stroke="#535354"/>
<path d="M78.0006 50.1507L78.0312 56.9445L68.4433 62.8418V74.4747L62.8754 77.8953L57.3075 74.585V62.9521L47.7196 57.2447V50.4506L53.3114 46.9982L62.8413 52.7343L72.4292 46.8088L78.0244 50.1505L78.0006 50.1507ZM47.7162 38.8494L62.8447 29.5001L78.0006 38.5494L72.4326 42.0016L62.8447 36.2661L53.2841 42.1913L47.7162 38.8494Z" fill="white"/>
<path d="M43.6927 59.691L43.7234 71.2954L53.2841 77.0031V83.7972L38.1282 74.7795V56.3526L43.6927 59.691ZM43.6927 48.0862V54.8486L38.1248 51.5067V44.7443L43.6927 41.2921L49.288 44.6337L43.6927 48.0862ZM57.2767 44.5546L62.8447 41.1024L68.4399 44.444L62.8447 47.8965L57.2767 44.5546Z" fill="white"/>
<path d="M47.7162 68.8493V62.0552L53.2841 65.3971V72.1595L47.7162 68.8493ZM57.2768 79.3958L62.8447 82.7377L68.4399 79.2853V86.0477L62.8447 89.5001L57.2768 86.1583V79.3958ZM76.4253 44.3637L81.9932 40.9115L87.5885 44.2531V51.0156L81.9932 54.468V47.7056L76.4253 44.3637ZM81.9932 70.9151L82.0239 59.3101L87.5919 55.8579V74.2849L72.436 83.6027V76.8087L81.9932 70.9151Z" fill="white"/>
<path d="M78.0006 68.5509L72.4326 71.9714V65.209L78.0006 61.7568V68.5509Z" fill="white"/>
</svg>
