<svg width="118" height="114" viewBox="0 0 118 114" fill="none" xmlns="http://www.w3.org/2000/svg">
<rect x="0.5" y="0.5" width="109" height="109" rx="15.5" fill="#D0D0D0" stroke="#535354"/>
<rect x="7.5" y="4.5" width="109" height="109" rx="15.5" fill="#E84142" stroke="#535354"/>
<path fill-rule="evenodd" clip-rule="evenodd" d="M48.0583 81.6262H37.9697C35.8497 81.6262 34.8026 81.6262 34.1641 81.2178C33.4745 80.7707 33.053 80.03 33.002 79.2126C32.9636 78.4594 33.4873 77.5396 34.5344 75.7007L59.4446 31.7931C60.5046 29.9286 61.0409 28.9963 61.7177 28.6515C62.4456 28.2812 63.3141 28.2812 64.042 28.6515C64.7188 28.9963 65.2552 29.9286 66.3151 31.7931L71.4361 40.7324L71.4622 40.778C72.6071 42.7783 73.1876 43.7926 73.4411 44.8572C73.722 46.0194 73.722 47.2453 73.4411 48.4075C73.1857 49.4802 72.611 50.5018 71.4489 52.5323L58.3642 75.6624L58.3303 75.7217C57.1779 77.7384 56.5939 78.7605 55.7845 79.5317C54.9034 80.3747 53.8434 80.9873 52.6813 81.3328C51.6213 81.6262 50.4337 81.6262 48.0583 81.6262ZM73.5356 81.6262H87.9915C90.1241 81.6262 91.1971 81.6262 91.836 81.2054C92.5254 80.7582 92.9594 80.0044 92.9982 79.1876C93.0348 78.4587 92.5226 77.5748 91.5189 75.8427C91.4843 75.7837 91.4497 75.7237 91.4144 75.6627L84.1733 63.2753L84.0909 63.1359C83.0734 61.4152 82.5598 60.5463 81.9001 60.2104C81.1726 59.84 80.3164 59.84 79.5888 60.2104C78.9247 60.5552 78.3884 61.4619 77.3284 63.2881L70.1131 75.6755L70.0884 75.7181C69.0321 77.5414 68.5043 78.4525 68.5423 79.2001C68.5934 80.0176 69.0148 80.7707 69.7044 81.2178C70.3302 81.6262 71.4029 81.6262 73.5356 81.6262Z" fill="white"/>
</svg>
