<svg width="119" height="116" viewBox="0 0 119 116" fill="none" xmlns="http://www.w3.org/2000/svg">
<rect x="0.576172" y="1" width="109" height="109" rx="15.5" fill="#D0D0D0" stroke="#535354"/>
<rect x="7" y="5" width="110" height="110" rx="16" fill="url(#paint0_linear_7344_37622)" stroke="#535354"/>
<path d="M76.5481 70.4728L90.78 62.2447C91.5338 61.8087 92 60.9985 92 60.1265V43.6725C92 42.8026 91.5317 41.9902 90.78 41.5543L76.5481 33.3262C75.7943 32.8902 74.8598 32.8923 74.106 33.3262L59.8742 41.5543C59.1204 41.9902 58.6541 42.8026 58.6541 43.6725V73.0783L48.674 78.8468L38.6938 73.0783V61.5393L48.674 55.7708L55.2569 59.5754V51.8347L49.894 48.7356C49.5243 48.5217 49.1012 48.4086 48.6719 48.4086C48.2426 48.4086 47.8195 48.5217 47.4519 48.7356L33.22 56.9636C32.4662 57.3996 32 58.2099 32 59.0818V75.5359C32 76.4058 32.4683 77.2181 33.22 77.6541L47.4519 85.8821C48.2036 86.316 49.1402 86.316 49.894 85.8821L64.1258 77.6561C64.8796 77.2201 65.3459 76.4078 65.3459 75.5379V46.132L65.5266 46.0292L75.326 40.3636L85.3062 46.132V57.6711L75.326 63.4395L68.7534 59.6391V67.3798L74.106 70.4748C74.8598 70.9087 75.7943 70.9087 76.5481 70.4748V70.4728Z" fill="white"/>
<defs>
<linearGradient id="paint0_linear_7344_37622" x1="-13.1024" y1="14.0408" x2="100.455" y2="83.5325" gradientUnits="userSpaceOnUse">
<stop stop-color="#A229C5"/>
<stop offset="1" stop-color="#7B3FE4"/>
</linearGradient>
</defs>
</svg>
