<svg width="119" height="115" viewBox="0 0 119 115" fill="none" xmlns="http://www.w3.org/2000/svg">
<rect x="1.31006" y="0.557617" width="109" height="109" rx="15.5" fill="#D0D0D0" stroke="#535354"/>
<rect x="8.31006" y="4.55762" width="109" height="109" rx="15.5" fill="#F47226" stroke="#535354"/>
<g clip-path="url(#clip0_7992_199)">
<path d="M78.8502 69.3149V65.42C81.2476 64.5978 82.9934 62.0445 82.9934 59.0223C82.9934 56.0002 81.2476 53.4397 78.8502 52.6246V48.7298C81.1079 47.958 82.7916 45.6427 82.9778 42.8441H80.2312V44.0342C80.2312 44.9503 79.6728 45.7581 78.8502 46.162V45.6066C78.8502 44.7916 78.1365 44.128 77.2599 44.128H77.1202C76.2436 44.128 75.5296 44.7916 75.5296 45.6066V46.162C74.7073 45.7581 74.1486 44.9575 74.1486 44.0342V42.8441H71.4022C71.5885 45.6427 73.2719 47.958 75.5296 48.7298V52.6246C73.14 53.4397 71.3867 55.993 71.3867 59.0223C71.3867 62.0517 73.1322 64.605 75.5296 65.42V69.3149C73.2719 70.0866 71.5885 72.402 71.4022 75.2004H74.1486V74.0103C74.1486 73.0943 74.7073 72.2864 75.5296 71.8826V72.438C75.5296 73.2532 76.2436 73.9167 77.1202 73.9167H77.2599C78.1365 73.9167 78.8502 73.2532 78.8502 72.438V71.8826C79.6728 72.2864 80.2312 73.0871 80.2312 74.0103V75.2004H82.9778C82.7916 72.402 81.1079 70.0866 78.8502 69.3149ZM74.1486 60.7245V57.3129C74.1486 56.3969 74.7073 55.5891 75.5296 55.1851V55.7405C75.5296 56.5556 76.2436 57.2191 77.1202 57.2191H77.2599C78.1365 57.2191 78.8502 56.5556 78.8502 55.7405V55.1851C79.6728 55.5891 80.2312 56.3897 80.2312 57.3129V60.7245C80.2312 61.6405 79.6728 62.4484 78.8502 62.8523V62.2969C78.8502 61.4819 78.1365 60.8183 77.2599 60.8183H77.1202C76.2436 60.8183 75.5296 61.4819 75.5296 62.2969V62.8523C74.7151 62.4484 74.1486 61.6478 74.1486 60.7245Z" fill="black"/>
<path d="M95.7013 61.0924V56.9451C98.0987 56.1228 99.8445 53.5695 99.8445 50.5474C99.8445 47.5252 98.0987 44.9647 95.7013 44.1497V42.8441H92.3885V44.1497C89.9911 44.9719 88.2456 47.5252 88.2456 50.5474C88.2456 53.5695 89.9911 56.13 92.3885 56.9451V61.0924C89.9911 61.9146 88.2456 64.4679 88.2456 67.4901C88.2456 70.5122 89.9911 73.0727 92.3885 73.8878V75.1932H95.7013V73.8878C98.0987 73.0655 99.8445 70.5122 99.8445 67.4901C99.8445 64.4679 98.0987 61.9146 95.7013 61.0924ZM90.9997 52.2495V48.8379C90.9997 47.9219 91.5584 47.1141 92.3807 46.7102V47.2655C92.3807 48.0806 93.0947 48.7442 93.9713 48.7442H94.1032C94.9799 48.7442 95.6936 48.0806 95.6936 47.2655V46.7102C96.5161 47.1141 97.0746 47.9147 97.0746 48.8379V52.2495C97.0746 53.1656 96.5161 53.9734 95.6936 54.3773V53.8219C95.6936 53.0069 94.9799 52.3433 94.1032 52.3433H93.9636C93.0869 52.3433 92.373 53.0069 92.373 53.8219V54.3773C91.5662 53.9734 90.9997 53.1728 90.9997 52.2495ZM97.0824 69.1995C97.0824 70.1155 96.5239 70.9234 95.7013 71.3272V70.5122C95.7013 69.6972 94.9876 69.0336 94.111 69.0336H93.9791C93.1024 69.0336 92.3885 69.6972 92.3885 70.5122V71.3272C91.5662 70.9234 91.0074 70.1227 91.0074 69.1995V65.7879C91.0074 64.8718 91.5662 64.064 92.3885 63.6601V63.9558C92.3885 64.7709 93.1024 65.4344 93.9791 65.4344H94.1188C94.9954 65.4344 95.7091 64.7709 95.7091 63.9558V63.6601C96.5317 64.064 97.0901 64.8646 97.0901 65.7879V69.1995H97.0824Z" fill="black"/>
<path d="M59.8657 55.7213C59.8346 55.5554 59.7958 55.3967 59.7337 55.2453C59.757 55.2092 64.9085 48.5374 60.1373 44.4117C55.3736 40.286 49.8106 45.6668 49.7796 45.6956C48.8952 45.4359 48.0029 45.2773 47.1185 45.2051C47.1185 45.2051 47.1185 45.2051 47.1107 45.2051C45.2952 44.9238 42.7505 45.2051 42.7505 45.2051C41.8738 45.2773 40.9893 45.4359 40.1126 45.6884C40.0816 45.6595 34.5188 40.2788 29.7551 44.4045C24.9914 48.5302 30.1352 55.2092 30.1585 55.2381C30.1042 55.3967 30.0577 55.5554 30.0266 55.7141C29.5146 58.5703 26 59.4503 26 64.4271C26 69.4976 29.6697 73.4934 37.1644 73.4934H40.2367C40.2523 73.5078 41.4393 75.0804 43.891 75.1741C43.891 75.1741 44.4573 75.2317 45.7607 75.1885C48.3598 75.1885 49.6245 73.5222 49.6322 73.5006H52.7045C60.1991 73.5006 63.8689 69.5049 63.8689 64.4343C63.8922 59.4647 60.3776 58.5775 59.8657 55.7213Z" fill="black"/>
</g>
<defs>
<clipPath id="clip0_7992_199">
<rect width="74" height="32.427" fill="white" transform="translate(26 42.8441)"/>
</clipPath>
</defs>
</svg>
