<svg width="118" height="114" viewBox="0 0 118 114" fill="none" xmlns="http://www.w3.org/2000/svg">
<rect x="0.5" y="0.5" width="109" height="109" rx="15.5" fill="#D0D0D0" stroke="#535354"/>
<rect x="7.5" y="4.5" width="109" height="109" rx="15.5" fill="#FFEEDA" stroke="#535354"/>
<path d="M87.7256 69.0535V34.2623C87.6796 31.3439 85.3587 29 82.4403 29H46.1325C38.2964 29.1149 32 35.5262 32 43.3852C32 46.0279 32.7124 48.3029 33.7924 50.3021C34.7116 51.9566 36.1593 53.5193 37.584 54.6912C37.9977 55.0129 37.7909 54.875 39.0318 55.6334C40.7323 56.6675 42.6855 57.196 42.6855 57.196L42.6625 78.0155C42.7085 79.0036 42.8004 79.9458 43.0762 80.842C43.8805 83.7834 45.9256 86.0354 48.6832 87.1155C49.8322 87.575 51.142 87.8738 52.5438 87.8968L81.544 87.9887C87.3119 87.9887 91.9998 83.3008 91.9998 77.51C92.0228 74.063 90.2993 70.9838 87.7256 69.0535Z" fill="#FFEEDA"/>
<path d="M88.4379 77.7626C88.323 81.4623 85.2667 84.4496 81.5211 84.4496L61.5748 84.3807C63.1604 82.5423 64.1255 80.1525 64.1255 77.5328C64.1255 73.4424 61.6897 70.6159 61.6897 70.6159H81.544C85.3587 70.6159 88.4609 73.7182 88.4609 77.5328L88.4379 77.7626Z" fill="#EBC28E"/>
<path d="M39.4914 51.7501C37.1934 49.567 35.5848 46.7635 35.5848 43.4085V43.0638C35.7687 37.3648 40.4565 32.7689 46.1554 32.6081H82.4632C83.4054 32.654 84.1637 33.3204 84.1637 34.2856V65.0093C84.991 65.1472 85.4046 65.2621 86.2089 65.5608C86.8523 65.7906 87.7256 66.2962 87.7256 66.2962V34.2856C87.6796 31.3672 85.3587 29.0232 82.4403 29.0232H46.1325C38.2964 29.1381 32 35.5495 32 43.4085C32 47.9814 34.0911 51.888 37.4921 54.6225C37.7219 54.8064 37.9517 55.0592 38.5492 55.0592C39.6063 55.0592 40.3646 54.2089 40.3186 53.2897C40.3186 52.5084 39.9739 52.2327 39.4914 51.7501Z" fill="#101010"/>
<path d="M81.5211 67.0313H53.0493C51.142 67.0543 49.6024 68.5939 49.6024 70.5012V74.5916C49.6484 76.4759 51.2569 78.0845 53.1872 78.0845H55.3013V74.5916H53.1642V70.5931C53.1642 70.5931 53.6928 70.5931 54.3132 70.5931C57.921 70.5931 60.5637 73.9252 60.5637 77.51C60.5637 80.6812 57.6682 84.7256 52.8425 84.4039C48.5683 84.1281 46.2474 80.3135 46.2474 77.51V42.8108C46.2474 41.2482 44.9605 39.9613 43.3979 39.9613H40.5484V43.5231H42.6625V77.533C42.5477 84.4498 47.5802 87.9198 52.8425 87.9198L81.5441 88.0117C87.3119 88.0117 91.9998 83.3238 91.9998 77.533C92.0228 71.7421 87.3119 67.0313 81.5211 67.0313ZM88.4379 77.7626C88.323 81.4623 85.2667 84.4496 81.5211 84.4496L61.5748 84.3807C63.1604 82.5423 64.1255 80.1525 64.1255 77.5328C64.1255 73.4424 61.6897 70.6159 61.6897 70.6159H81.544C85.3587 70.6159 88.4609 73.7182 88.4609 77.5328L88.4379 77.7626Z" fill="#101010"/>
<path d="M73.8459 44.1664H52.3829V40.6045H73.8459C74.811 40.6045 75.6153 41.3858 75.6153 42.374C75.6383 43.3621 74.857 44.1664 73.8459 44.1664Z" fill="#101010"/>
<path d="M73.8459 60.8726H52.3829V57.3338H73.8459C74.811 57.3338 75.6153 58.1151 75.6153 59.1032C75.6383 60.0683 74.857 60.8726 73.8459 60.8726Z" fill="#101010"/>
<path d="M77.6375 52.5083H52.3829V48.9465H77.6145C78.5797 48.9465 79.384 49.7278 79.384 50.7159C79.4299 51.704 78.6256 52.5083 77.6375 52.5083Z" fill="#101010"/>
</svg>
