<svg width="65" height="65" viewBox="0 0 65 65" fill="none" xmlns="http://www.w3.org/2000/svg">
<path d="M37.1819 24.4354C34.8688 25.0912 32.5715 25.8048 30.292 26.5754C30.0837 26.6446 29.8985 26.7727 29.7577 26.9451C29.6168 27.1176 29.5259 27.3273 29.4955 27.5504C28.15 37.9429 31.2586 45.5254 34.967 50.5204C36.5364 52.6571 38.4087 54.5389 40.5212 56.103C41.3614 56.713 42.1046 57.1529 42.6899 57.4354C42.9813 57.5771 43.2185 57.6755 43.4014 57.7305C43.4821 57.7557 43.564 57.7765 43.6467 57.7929C43.7287 57.7764 43.8097 57.7556 43.8896 57.7305C44.0742 57.6738 44.3122 57.5754 44.6036 57.4354C45.1864 57.1529 45.932 56.7105 46.7723 56.103C48.8848 54.5389 50.757 52.6571 52.3264 50.5204C56.0349 45.5279 59.1434 37.9429 57.798 27.5504C57.7675 27.3273 57.6767 27.1176 57.5358 26.9451C57.3949 26.7727 57.2097 26.6446 57.0014 26.5754C55.4204 26.0429 52.7514 25.1754 50.1116 24.4379C47.4159 23.6854 44.9363 23.1279 43.6467 23.1279C42.3596 23.1279 39.8776 23.6829 37.1819 24.4354Z" fill="url(#paint0_linear_8322_8735)"/>
<path fill-rule="evenodd" clip-rule="evenodd" d="M36.5359 21.8604C39.1709 21.1229 41.971 20.4604 43.6467 20.4604C45.3224 20.4604 48.1226 21.1229 50.7576 21.8604C53.4533 22.6104 56.1709 23.4979 57.7689 24.0354C58.437 24.2626 59.0293 24.6791 59.4778 25.2372C59.9263 25.7953 60.2128 26.4723 60.3043 27.1905C61.7517 38.383 58.393 46.678 54.3179 52.1655C52.5891 54.5123 50.5287 56.5794 48.2052 58.298C47.4026 58.8941 46.551 59.4169 45.66 59.8605C44.98 60.1905 44.249 60.4605 43.6467 60.4605C43.0444 60.4605 42.3159 60.1905 41.6334 59.8605C40.7425 59.4169 39.8909 58.8941 39.0883 58.298C36.7648 56.5794 34.7044 54.5123 32.9756 52.1655C28.9005 46.678 25.5417 38.383 26.9892 27.1905C27.0807 26.4723 27.3672 25.7953 27.8157 25.2372C28.2641 24.6791 28.8565 24.2626 29.5246 24.0354C31.8445 23.253 34.1823 22.5278 36.5359 21.8604ZM30.292 26.5754C32.5715 25.8048 34.8688 25.0912 37.1819 24.4354C39.8776 23.6829 42.3596 23.1279 43.6467 23.1279C44.9363 23.1279 47.4159 23.6854 50.1116 24.4379C52.7514 25.1754 55.4204 26.0429 57.0014 26.5754C57.2097 26.6446 57.3949 26.7727 57.5358 26.9451C57.6767 27.1176 57.7675 27.3273 57.798 27.5504C59.1434 37.9429 56.0349 45.5279 52.3264 50.5204C50.757 52.6571 48.8848 54.5389 46.7723 56.103C45.932 56.7105 45.1864 57.1529 44.6036 57.4354C44.3122 57.5754 44.0742 57.6738 43.8896 57.7305C43.8097 57.7556 43.7287 57.7764 43.6467 57.7929C43.564 57.7765 43.4821 57.7557 43.4014 57.7305C43.2185 57.6755 42.9813 57.5771 42.6899 57.4354C42.1046 57.1529 41.3614 56.713 40.5212 56.103C38.4087 54.5389 36.5364 52.6571 34.967 50.5204C31.2586 45.5254 28.15 37.9429 29.4955 27.5504C29.5259 27.3273 29.6168 27.1176 29.7577 26.9451C29.8985 26.7727 30.0837 26.6446 30.292 26.5754Z" fill="url(#paint1_linear_8322_8735)"/>
<path fill-rule="evenodd" clip-rule="evenodd" d="M8.64673 4.46045C6.43759 4.46045 4.64673 6.25131 4.64673 8.46045V48.4604C4.64673 50.6696 6.43759 52.4604 8.64673 52.4604H26.0741C27.6494 52.4604 28.6254 50.7105 27.9147 49.3047C24.7533 43.0512 22.7469 34.8113 24.0496 24.5364C24.1573 23.6747 24.4943 22.8623 25.0219 22.1926C25.5496 21.5228 26.2464 21.023 27.0325 20.7504C29.7618 19.8115 32.5121 18.9412 35.281 18.1404C38.381 17.2554 41.6753 16.4604 43.6467 16.4604V16.4604C44.1836 16.4604 44.6467 16.0495 44.6467 15.5126V8.46045C44.6467 6.25131 42.8559 4.46045 40.6467 4.46045H8.64673Z" fill="url(#paint2_linear_8322_8735)"/>
<rect x="8.64673" y="8.46045" width="8" height="4" rx="2" fill="url(#paint3_linear_8322_8735)"/>
<path fill-rule="evenodd" clip-rule="evenodd" d="M40.7543 16.7948C40.4372 16.5836 40.0563 16.4604 39.6467 16.4604H10.6467C9.54216 16.4604 8.64673 17.3559 8.64673 18.4604V46.4604C8.64673 47.565 9.54216 48.4604 10.6467 48.4604H27.5008C24.5818 42.3159 22.8047 34.3553 24.0496 24.5364C24.1573 23.6747 24.4943 22.8623 25.0219 22.1926C25.5496 21.5228 26.2464 21.023 27.0325 20.7504C29.7618 19.8115 32.5121 18.9412 35.281 18.1404C37.1451 17.6083 39.0795 17.1086 40.7543 16.7948Z" fill="url(#paint4_linear_8322_8735)"/>
<path fill-rule="evenodd" clip-rule="evenodd" d="M34.6467 28.4604C34.0944 28.4604 33.6467 28.9082 33.6467 29.4604V31.4604V36.4604V46.4604C33.6467 47.565 34.5422 48.4604 35.6467 48.4604H51.6467C52.7513 48.4604 53.6467 47.565 53.6467 46.4604V36.4604V31.4604V29.4604C53.6467 28.9082 53.199 28.4604 52.6467 28.4604H51.3134C50.7611 28.4604 50.3134 28.9082 50.3134 29.4604V31.4604H49.4801V29.4604C49.4801 28.9082 49.0323 28.4604 48.4801 28.4604H47.1467C46.5944 28.4604 46.1467 28.9082 46.1467 29.4604V31.4604H45.3134V29.4604C45.3134 28.9082 44.8657 28.4604 44.3134 28.4604H42.9801C42.4278 28.4604 41.9801 28.9082 41.9801 29.4604V31.4604H41.1467V29.4604C41.1467 28.9082 40.699 28.4604 40.1467 28.4604H38.8134C38.2611 28.4604 37.8134 28.9082 37.8134 29.4604V31.4604H36.9801V29.4604C36.9801 28.9082 36.5323 28.4604 35.9801 28.4604H34.6467Z" fill="url(#paint5_linear_8322_8735)"/>
<defs>
<linearGradient id="paint0_linear_8322_8735" x1="26.5555" y1="60.4606" x2="67.1272" y2="28.7525" gradientUnits="userSpaceOnUse">
<stop stop-color="#9F82DE"/>
<stop offset="1" stop-color="#7138EB"/>
</linearGradient>
<linearGradient id="paint1_linear_8322_8735" x1="26.5555" y1="60.4606" x2="67.1272" y2="28.7525" gradientUnits="userSpaceOnUse">
<stop stop-color="#9F82DE"/>
<stop offset="1" stop-color="#7138EB"/>
</linearGradient>
<linearGradient id="paint2_linear_8322_8735" x1="4.53936" y1="50.4606" x2="52.9841" y2="13.3418" gradientUnits="userSpaceOnUse">
<stop stop-color="#9F82DE"/>
<stop offset="1" stop-color="#7138EB"/>
</linearGradient>
<linearGradient id="paint3_linear_8322_8735" x1="8.64673" y1="10.4604" x2="16.6467" y2="10.4604" gradientUnits="userSpaceOnUse">
<stop stop-color="#F4F4F6"/>
<stop offset="1" stop-color="#F4F4F6" stop-opacity="0.5"/>
</linearGradient>
<linearGradient id="paint4_linear_8322_8735" x1="8.64673" y1="32.4604" x2="41.6467" y2="32.4604" gradientUnits="userSpaceOnUse">
<stop stop-color="#F4F4F6"/>
<stop offset="1" stop-color="#F4F4F6" stop-opacity="0.5"/>
</linearGradient>
<linearGradient id="paint5_linear_8322_8735" x1="33.6467" y1="38.9604" x2="54.1467" y2="38.9604" gradientUnits="userSpaceOnUse">
<stop stop-color="#F4F4F6"/>
<stop offset="1" stop-color="#F4F4F6" stop-opacity="0.5"/>
</linearGradient>
</defs>
</svg>
