<svg width="164" height="60" viewBox="0 0 164 60" fill="none" xmlns="http://www.w3.org/2000/svg">
<path d="M38.4571 14.4985C42.995 14.8202 46.6725 18.1451 47.2617 22.4588C47.8509 26.7739 45.1892 30.8904 40.8887 32.3135L50.5054 44.6453H22.0996V14.4377H37.0222C37.5454 14.4377 38.0204 14.46 38.4557 14.4985H38.4571Z" fill="white"/>
<path d="M40.5878 44.6453H22.0684V14.4377L50.307 44.6453H40.5878Z" fill="white"/>
<path d="M50.5068 44.6454H22.0703L36.194 23.5499L50.5083 44.6454H50.5068Z" fill="white"/>
<path d="M22.0684 31.9207V14.4377H30.0052L41.863 31.9118L22.0684 31.9192V31.9207Z" fill="white"/>
<path d="M30.5898 31.9207L36.1904 23.5513L41.8701 31.9207H30.5898Z" fill="white"/>
<path d="M50.5057 44.6454H39.9378L36.1914 23.5499L50.5057 44.6454Z" fill="white"/>
<path d="M64.2971 24.7536V28.1022H66.3404C67.9248 28.1022 68.6532 27.3447 68.6298 26.4049C68.6063 25.4651 67.8369 24.7536 66.3404 24.7536H64.2971ZM66.3961 22.2469C69.414 22.2469 71.3942 23.9887 71.3942 26.4049C71.3942 28.8212 70.031 30.1316 68.4861 30.4355L71.6551 35.9128H68.4861L65.5547 30.7853H64.2957V35.9128H61.4434V22.2766L66.3945 22.2469H66.3961ZM75.8133 30.2531H80.2017C80.105 29.1636 79.1522 28.3261 78.0075 28.3261C76.8628 28.3261 75.9101 29.1636 75.8133 30.2531ZM82.8796 31.1322C82.8811 31.4183 82.8664 31.7044 82.8312 31.9875H75.806C75.9555 33.1956 77.0724 34.0761 78.3417 33.9872C79.2593 33.9664 80.1431 33.6462 80.8437 33.0785L82.4281 34.7224C81.2658 35.7008 79.7532 36.2137 78.2054 36.1544C76.8129 36.2255 75.4542 35.726 74.4707 34.7803C73.4872 33.8345 72.9728 32.5315 73.0563 31.2004C73.0563 28.2238 75.0995 26.1929 78.0705 26.1929C81.0416 26.1929 82.8796 28.2149 82.8869 31.1618L82.8796 31.1322ZM87.7428 31.1781C87.6666 32.0957 88.1357 32.9762 88.9565 33.4565C89.7758 33.9368 90.8091 33.9368 91.6299 33.4565C92.4493 32.9762 92.9198 32.0957 92.8436 31.1781C92.9198 30.2605 92.4507 29.38 91.6299 28.8997C90.8091 28.4194 89.7758 28.4194 88.9565 28.8997C88.1357 29.38 87.6666 30.2605 87.7428 31.1781ZM95.586 31.1781C95.586 34.0183 93.5178 36.1544 90.7857 36.1544C89.66 36.2033 88.574 35.7512 87.847 34.927V39.8203H85.2174V26.4657H87.847V27.5108C88.5593 26.654 89.6571 26.1722 90.8018 26.2152C93.5427 26.2152 95.6094 28.3513 95.6094 31.1915L95.586 31.1766V31.1781ZM106.992 31.8822C106.992 34.8662 104.783 36.1618 102.311 36.1618C99.838 36.1618 97.6131 34.8736 97.6131 31.8822V26.4657H100.282V31.6703C100.282 33.1852 101.154 33.7989 102.311 33.7989C103.467 33.7989 104.339 33.1852 104.339 31.6703V26.4657H107.001L106.992 31.8822ZM112.165 31.1781C112.089 32.0957 112.558 32.9762 113.378 33.4565C114.199 33.9368 115.233 33.9368 116.052 33.4565C116.873 32.9762 117.342 32.0957 117.266 31.1781C117.342 30.2605 116.873 29.38 116.052 28.8997C115.233 28.4194 114.199 28.4194 113.378 28.8997C112.559 29.38 112.09 30.2605 112.165 31.1781ZM120.006 31.1781C120.006 34.0183 117.938 36.1544 115.206 36.1544C114.058 36.2003 112.956 35.7215 112.237 34.8662V35.9113H109.631V21.8526H112.292V27.4352C113.005 26.6095 114.08 26.15 115.2 26.1929C117.941 26.1929 120.008 28.329 120.008 31.1692" fill="white"/>
<path d="M122.184 35.9113H124.854V21.8526H122.184V35.9113Z" fill="white"/>
<path d="M127.657 35.9128H130.328V26.4672H127.657V35.9128ZM130.684 23.3543C130.675 24.2511 129.91 24.9715 128.974 24.9671C128.036 24.9626 127.279 24.2348 127.279 23.338C127.279 22.4412 128.037 21.7133 128.974 21.7089C129.43 21.7044 129.869 21.8764 130.192 22.1862C130.513 22.496 130.692 22.9155 130.686 23.3528L130.684 23.3543ZM141.758 27.9822L139.833 29.4972C139.313 28.9131 138.552 28.5752 137.75 28.5737C137.051 28.5826 136.386 28.8672 135.915 29.3608C135.443 29.8544 135.207 30.5126 135.262 31.1797C135.202 31.8452 135.436 32.5064 135.907 33C136.377 33.4951 137.042 33.7797 137.742 33.7856C138.57 33.7768 139.354 33.4284 139.896 32.831L141.797 34.346C140.845 35.5037 139.376 36.1633 137.837 36.1263C136.43 36.196 135.056 35.6949 134.054 34.7492C133.05 33.8034 132.509 32.496 132.562 31.15C132.512 29.804 133.053 28.4996 134.055 27.5538C135.058 26.6081 136.43 26.107 137.837 26.1737C139.38 26.1322 140.85 26.7963 141.797 27.9615" fill="white"/>
</svg>
