<svg width="164" height="60" viewBox="0 0 164 60" fill="none" xmlns="http://www.w3.org/2000/svg">
<path d="M50.2198 18.7061C50.1733 18.2457 49.9739 17.888 49.6215 17.6331C49.2691 17.3782 48.7908 17.2507 48.1867 17.2507C47.7762 17.2507 47.4296 17.3078 47.1469 17.4219C46.8642 17.5323 46.6474 17.6864 46.4963 17.8842C46.3492 18.0821 46.2756 18.3066 46.2756 18.5577C46.2679 18.767 46.3124 18.9497 46.4092 19.1057C46.5099 19.2617 46.6474 19.3968 46.8216 19.5109C46.9959 19.6213 47.1973 19.7183 47.4258 19.802C47.6542 19.8819 47.8982 19.9504 48.1577 20.0075L49.2265 20.2586C49.7454 20.3728 50.2217 20.525 50.6555 20.7152C51.0892 20.9055 51.4648 21.1395 51.7824 21.4173C52.0999 21.695 52.3458 22.0223 52.5201 22.399C52.6982 22.7757 52.7892 23.2075 52.7931 23.6946C52.7892 24.4099 52.6034 25.0302 52.2355 25.5553C51.8714 26.0766 51.3448 26.4818 50.6555 26.771C49.97 27.0564 49.1432 27.1991 48.1751 27.1991C47.2147 27.1991 46.3782 27.0545 45.6657 26.7653C44.957 26.4761 44.4032 26.048 44.0044 25.4811C43.6094 24.9103 43.4022 24.2045 43.3828 23.3636H45.8167C45.8438 23.7555 45.9581 24.0827 46.1594 24.3453C46.3647 24.604 46.6377 24.8 46.9785 24.9331C47.3231 25.0625 47.7123 25.1272 48.146 25.1272C48.572 25.1272 48.9419 25.0663 49.2555 24.9446C49.5731 24.8228 49.819 24.6535 49.9933 24.4366C50.1675 24.2197 50.2547 23.9705 50.2547 23.6889C50.2547 23.4263 50.1753 23.2056 50.0165 23.0268C49.8616 22.848 49.6331 22.6958 49.331 22.5702C49.0329 22.4446 48.6669 22.3305 48.2332 22.2277L46.9378 21.9081C45.9348 21.6684 45.1429 21.2936 44.562 20.7837C43.9811 20.2738 43.6926 19.587 43.6965 18.7233C43.6926 18.0155 43.8843 17.3972 44.2716 16.8683C44.6627 16.3394 45.199 15.9265 45.8806 15.6297C46.5622 15.3329 47.3367 15.1845 48.2041 15.1845C49.0871 15.1845 49.8577 15.3329 50.5161 15.6297C51.1783 15.9265 51.6933 16.3394 52.0612 16.8683C52.4291 17.3972 52.6188 18.0098 52.6305 18.7061H50.2198Z" fill="white"/>
<path d="M56.9182 27.0335H54.2229L58.3297 15.3444H61.5711L65.6721 27.0335H62.9768L59.9969 18.0155H59.9039L56.9182 27.0335ZM56.7497 22.4389H63.1162V24.3681H56.7497V22.4389Z" fill="white"/>
<path d="M77.7088 15.3444V27.0335H75.5363L70.3606 19.6764H70.2735V27.0335H67.7583V15.3444H69.9656L75.1006 22.6958H75.2052V15.3444H77.7088Z" fill="white"/>
<path d="M84.6584 27.0335H80.4412V15.3444H84.6933C85.8899 15.3444 86.92 15.5784 87.7836 16.0464C88.6471 16.5106 89.3113 17.1784 89.776 18.0498C90.2446 18.9211 90.4788 19.9637 90.4788 21.1775C90.4788 22.3952 90.2446 23.4416 89.776 24.3167C89.3113 25.1919 88.6433 25.8635 87.7719 26.3315C86.9045 26.7995 85.8666 27.0335 84.6584 27.0335ZM82.9564 24.916H84.5538C85.2974 24.916 85.9228 24.7866 86.4301 24.5279C86.9413 24.2654 87.3247 23.8601 87.5802 23.3122C87.8397 22.7604 87.9694 22.0489 87.9694 21.1775C87.9694 20.3138 87.8397 19.6079 87.5802 19.06C87.3247 18.5121 86.9432 18.1087 86.4359 17.85C85.9286 17.5913 85.3032 17.4619 84.5597 17.4619H82.9564V24.916Z" fill="white"/>
<path d="M92.9963 27.0335V15.3444H101.013V17.382H95.5116V20.1673H100.6V22.2049H95.5116V24.9959H101.036V27.0335H92.9963Z" fill="white"/>
<path d="M103.667 27.0335V15.3444H111.683V17.382H106.182V20.1673H111.27V22.2049H106.182V24.9959H111.706V27.0335H103.667Z" fill="white"/>
<path d="M114.337 27.0335V15.3444H119.03C119.933 15.3444 120.701 15.5137 121.336 15.8523C121.971 16.1872 122.455 16.6533 122.789 17.2507C123.125 17.8443 123.294 18.5292 123.294 19.3054C123.294 20.0817 123.123 20.7666 122.783 21.3602C122.442 21.9538 121.948 22.4161 121.301 22.7471C120.659 23.0782 119.88 23.2437 118.966 23.2437H115.975V21.2631H118.56C119.044 21.2631 119.443 21.1813 119.756 21.0177C120.074 20.8503 120.31 20.6201 120.465 20.3271C120.624 20.0303 120.703 19.6898 120.703 19.3054C120.703 18.9173 120.624 18.5787 120.465 18.2895C120.31 17.9965 120.074 17.7701 119.756 17.6103C119.439 17.4467 119.036 17.3648 118.548 17.3648H116.852V27.0335H114.337Z" fill="white"/>
<path d="M54.9707 34.5719V46.2611H52.7982L47.6225 38.904H47.5354V46.2611H45.0202V34.5719H47.2275L52.3625 41.9233H52.4671V34.5719H54.9707Z" fill="white"/>
<path d="M59.7536 46.2611H57.0583L61.1652 34.5719H64.4065L68.5075 46.2611H65.8122L62.8323 37.243H62.7394L59.7536 46.2611ZM59.5852 41.6664H65.9516V43.5956H59.5852V41.6664Z" fill="white"/>
<path d="M73.1089 34.5719V46.2611H70.5937V34.5719H73.1089Z" fill="white"/>
<path d="M75.8326 46.2611V34.5719H78.3478V44.2235H83.448V46.2611H75.8326Z" fill="white"/>
<path d="M87.7749 46.2611L84.371 34.5719H87.1185L89.0877 42.6938H89.1865L91.359 34.5719H93.7116L95.8782 42.7109H95.9828L97.952 34.5719H100.7L97.2956 46.2611H94.8443L92.5788 38.6186H92.4859L90.2263 46.2611H87.7749Z" fill="white"/>
<path d="M103.553 46.2611H100.857L104.964 34.5719H108.205L112.306 46.2611H109.611L106.631 37.243H106.538L103.553 46.2611ZM103.384 41.6664H109.751V43.5956H103.384V41.6664Z" fill="white"/>
<path d="M114.393 46.2611V34.5719H116.908V44.2235H122.008V46.2611H114.393Z" fill="white"/>
</svg>
