<svg width="164" height="60" viewBox="0 0 164 60" fill="none" xmlns="http://www.w3.org/2000/svg">
<path fill-rule="evenodd" clip-rule="evenodd" d="M39.3686 13.9292C39.5646 13.9205 39.7535 14.0052 39.8803 14.1587L41.6242 16.2705C41.721 16.3878 41.7742 16.5365 41.7742 16.6902V43.1693C41.7742 43.5282 41.4903 43.8191 41.1401 43.8191C40.7898 43.8191 40.5059 43.5282 40.5059 43.1693V16.9282L39.113 15.2414L35.9085 15.3842L31.2007 17.7231L31.465 20.0257C31.5043 20.3677 31.2764 20.6817 30.9455 20.7415L28.6172 21.1626L26.1744 28.3773L27.3203 29.5515C27.5679 29.8053 27.5679 30.2167 27.3203 30.4705L26.0522 31.7698L27.4154 34.6906L33.3244 34.2365C33.6736 34.2096 33.978 34.478 34.0042 34.8358C34.0304 35.1937 33.7685 35.5056 33.4192 35.5324L27.0778 36.0197C26.8171 36.0398 26.5711 35.8938 26.4583 35.6521L24.7144 31.9158C24.5984 31.6673 24.648 31.3708 24.8381 31.176L25.975 30.011L24.9966 29.0084C24.8248 28.8324 24.7663 28.5712 24.8459 28.336L27.541 20.376C27.6164 20.1534 27.8035 19.99 28.0299 19.9491L30.1355 19.5683L29.8884 17.4159C29.8568 17.1412 29.9986 16.876 30.2415 16.7553L35.4732 14.1562C35.5511 14.1175 35.6358 14.0955 35.7223 14.0917L39.3686 13.9292Z" fill="white"/>
<path fill-rule="evenodd" clip-rule="evenodd" d="M41.4902 32.5557C41.7822 32.7538 41.8621 33.157 41.6688 33.4562L34.3055 44.8507L36.1532 45.7417L37.6974 45.454C37.7805 45.4385 37.8659 45.4402 37.9484 45.459L38.929 45.6823L40.5963 42.835C40.7765 42.5272 41.166 42.4275 41.4663 42.6121C41.7666 42.7967 41.864 43.1959 41.6838 43.5036L39.7814 46.7526C39.641 46.9924 39.3665 47.1132 39.1001 47.0526L37.7983 46.7561L36.1804 47.0576C36.0504 47.0818 35.9164 47.0638 35.7969 47.0062L33.1018 45.7066C32.9352 45.6262 32.8108 45.4756 32.7612 45.2939C32.7115 45.1121 32.7414 44.9173 32.8431 44.7599L40.6113 32.7387C40.8047 32.4395 41.1982 32.3576 41.4902 32.5557Z" fill="white"/>
<path fill-rule="evenodd" clip-rule="evenodd" d="M34.206 34.5084C34.4087 34.801 34.3415 35.2066 34.0559 35.4143L29.7155 38.5706L32.6641 42.004L39.5413 45.8478C39.8488 46.0196 39.962 46.4144 39.7943 46.7294C39.6266 47.0445 39.2414 47.1605 38.934 46.9887L31.9584 43.0899C31.8933 43.0536 31.835 43.0058 31.786 42.9488L28.2982 38.8876C28.1795 38.7493 28.1236 38.566 28.1444 38.3831C28.1652 38.2002 28.2607 38.0349 28.4073 37.9284L33.3219 34.3545C33.6075 34.1468 34.0033 34.2157 34.206 34.5084Z" fill="white"/>
<path fill-rule="evenodd" clip-rule="evenodd" d="M26.6278 35.2316C26.7909 34.914 27.1744 34.7921 27.4843 34.9592L30.4965 36.5837C30.8064 36.7508 30.9254 37.1438 30.7623 37.4613C30.5992 37.7789 30.2157 37.9009 29.9058 37.7337L26.8936 36.1092C26.5837 35.9421 26.4646 35.5491 26.6278 35.2316Z" fill="white"/>
<path fill-rule="evenodd" clip-rule="evenodd" d="M26.1702 29.6755C26.351 29.3682 26.7407 29.2692 27.0407 29.4545L38.6138 36.6022C38.6799 36.643 38.7382 36.6959 38.7858 36.7582L41.6394 40.4945C41.8553 40.7771 41.8067 41.1855 41.5309 41.4067C41.2551 41.6279 40.8565 41.5781 40.6407 41.2955L37.859 37.6534L26.386 30.5675C26.086 30.3822 25.9894 29.9829 26.1702 29.6755Z" fill="white"/>
<path fill-rule="evenodd" clip-rule="evenodd" d="M41.6149 43.1368C41.6324 43.4953 41.363 43.8003 41.0132 43.8183L34.6718 44.1432C34.322 44.1611 34.0242 43.8851 34.0067 43.5266C33.9893 43.1682 34.2586 42.8631 34.6084 42.8452L40.9499 42.5203C41.2996 42.5024 41.5974 42.7784 41.6149 43.1368Z" fill="white"/>
<path fill-rule="evenodd" clip-rule="evenodd" d="M30.5303 19.3694C30.8374 19.1969 31.2229 19.3121 31.3913 19.6267L34.0864 24.6626C34.1244 24.7337 34.1492 24.8115 34.1593 24.8919L34.7934 29.9278C34.7972 29.9581 34.799 29.9885 34.7986 30.019L34.6401 43.1773C34.6357 43.5361 34.3483 43.8235 33.9981 43.819C33.6479 43.8146 33.3675 43.5201 33.3719 43.1613L33.5298 30.0487L32.9167 25.1799L30.2792 20.2516C30.1108 19.937 30.2232 19.542 30.5303 19.3694Z" fill="white"/>
<path fill-rule="evenodd" clip-rule="evenodd" d="M41.3973 20.9633C41.5458 21.2883 41.409 21.6751 41.0918 21.8273L33.7021 25.3717L27.0976 30.5278C26.8191 30.7453 26.4212 30.6902 26.2089 30.4048C25.9967 30.1193 26.0504 29.7116 26.329 29.4941L32.9875 24.2958C33.0234 24.2677 33.0621 24.2437 33.103 24.2241L40.5541 20.6503C40.8713 20.4981 41.2488 20.6383 41.3973 20.9633Z" fill="white"/>
<path fill-rule="evenodd" clip-rule="evenodd" d="M37.8292 14.4959C38.0488 14.7754 38.0056 15.1845 37.7328 15.4095L31.3554 20.6693L27.4542 29.9433C27.3156 30.2728 26.9425 30.4249 26.6208 30.2828C26.2992 30.1407 26.1509 29.7584 26.2895 29.4289L30.2529 20.0069C30.2938 19.9097 30.3572 19.8242 30.4376 19.7579L36.9376 14.3971C37.2104 14.1721 37.6096 14.2163 37.8292 14.4959Z" fill="white"/>
<path fill-rule="evenodd" clip-rule="evenodd" d="M30.2323 19.9002C30.3409 19.559 30.6989 19.3726 31.0318 19.4839L38.3245 21.9206C38.3744 21.9373 38.4221 21.9602 38.4665 21.989L41.4787 23.9383C41.7748 24.13 41.8632 24.5313 41.6762 24.8347C41.4892 25.1381 41.0975 25.2288 40.8014 25.0371L37.8561 23.131L30.6386 20.7194C30.3057 20.6082 30.1238 20.2414 30.2323 19.9002Z" fill="white"/>
<path fill-rule="evenodd" clip-rule="evenodd" d="M39.8403 14.9165C40.1834 14.9884 40.4047 15.3317 40.3345 15.6833L38.9077 22.831C38.8929 22.9052 38.8656 22.9761 38.8269 23.0407L34.5465 30.1884C34.4311 30.381 34.2265 30.4983 34.006 30.4983H27.0304C26.6802 30.4983 26.3963 30.2074 26.3963 29.8485C26.3963 29.4897 26.6802 29.1987 27.0304 29.1987H33.6511L37.6875 22.4585L39.092 15.4229C39.1621 15.0713 39.4972 14.8446 39.8403 14.9165Z" fill="white"/>
<path fill-rule="evenodd" clip-rule="evenodd" d="M41.5959 28.063C41.6827 28.4107 41.478 28.7646 41.1387 28.8536L35.1638 30.4198L38.982 36.6507C39.0364 36.7395 39.0691 36.8405 39.0771 36.9451L39.5527 43.1181C39.5803 43.4759 39.3196 43.7888 38.9705 43.8171C38.6213 43.8453 38.3159 43.5782 38.2884 43.2204L37.825 37.2066L33.6274 30.3565C33.5197 30.1807 33.5004 29.9628 33.5755 29.7701C33.6506 29.5773 33.8111 29.4329 34.0073 29.3815L40.8244 27.5945C41.1637 27.5056 41.5091 27.7153 41.5959 28.063Z" fill="white"/>
<path fill-rule="evenodd" clip-rule="evenodd" d="M42.9459 43.9815H41.3951V42.6819H42.9459V43.9815Z" fill="white"/>
<path fill-rule="evenodd" clip-rule="evenodd" d="M42.9459 41.3824H41.3951V40.0828H42.9459V41.3824Z" fill="white"/>
<path fill-rule="evenodd" clip-rule="evenodd" d="M42.9459 34.0722H41.3951V32.7726H42.9459V34.0722Z" fill="white"/>
<path fill-rule="evenodd" clip-rule="evenodd" d="M42.9459 28.8738H41.3951V27.5743H42.9459V28.8738Z" fill="white"/>
<path fill-rule="evenodd" clip-rule="evenodd" d="M42.9459 25.1375H41.3951V23.8379H42.9459V25.1375Z" fill="white"/>
<path fill-rule="evenodd" clip-rule="evenodd" d="M42.9459 21.8886H41.3951V20.589H42.9459V21.8886Z" fill="white"/>
<path fill-rule="evenodd" clip-rule="evenodd" d="M44.3055 14.1751C44.4322 14.0215 44.6212 13.9367 44.8172 13.9455L48.4689 14.1079C48.5554 14.1118 48.6403 14.1337 48.7182 14.1725L53.957 16.7768C54.1999 16.8976 54.3415 17.1626 54.31 17.4372L54.0628 19.5948L56.1723 19.9764C56.3988 20.0173 56.5858 20.1807 56.6612 20.4034L59.3603 28.3779C59.4399 28.6131 59.3813 28.8742 59.2096 29.0503L58.2289 30.0555L59.3683 31.2237C59.5583 31.4185 59.6079 31.7149 59.4919 31.9633L57.7455 35.7065C57.6327 35.9482 57.3867 36.0942 57.1259 36.0742L50.7755 35.5858C50.4262 35.559 50.1644 35.2471 50.1906 34.8892C50.2168 34.5314 50.5211 34.263 50.8704 34.2899L56.7883 34.745L58.1543 31.8174L56.8837 30.5148C56.6362 30.2611 56.6362 29.8498 56.8838 29.5961L58.0319 28.4193L55.585 21.1898L53.2529 20.768C52.922 20.7082 52.6941 20.3943 52.7333 20.0523L52.9978 17.7445L48.2827 15.4004L45.073 15.2577L43.6776 16.9485V43.2382C43.6776 43.597 43.3937 43.888 43.0434 43.888C42.6932 43.888 42.4093 43.597 42.4093 43.2382V16.7105C42.4093 16.5569 42.4624 16.4082 42.5592 16.2909L44.3055 14.1751Z" fill="white"/>
<path fill-rule="evenodd" clip-rule="evenodd" d="M42.6934 32.606C42.9855 32.4079 43.3789 32.49 43.5722 32.7892L51.3516 44.8325C51.4532 44.9898 51.4831 45.1847 51.4334 45.3664C51.3838 45.5481 51.2595 45.6987 51.0929 45.779L48.394 47.0809C48.2745 47.1385 48.1405 47.1565 48.0106 47.1323L46.39 46.8308L45.0859 47.1273C44.8195 47.1879 44.5451 47.067 44.4047 46.8272L42.4996 43.5724C42.3195 43.2646 42.4169 42.8655 42.7173 42.6809C43.0176 42.4963 43.4071 42.5962 43.5873 42.9039L45.2573 45.7572L46.2401 45.5337C46.3225 45.515 46.4077 45.5133 46.4907 45.5287L48.0374 45.8165L49.8893 44.9232L42.5146 33.5065C42.3213 33.2072 42.4014 32.8041 42.6934 32.606Z" fill="white"/>
<path fill-rule="evenodd" clip-rule="evenodd" d="M49.9881 34.5619C50.1909 34.2692 50.5868 34.2004 50.8723 34.4082L55.7941 37.9887C55.9406 38.0953 56.0361 38.2605 56.0568 38.4434C56.0776 38.6262 56.0218 38.8095 55.9031 38.9477L52.4102 43.0163C52.3613 43.0733 52.3029 43.1211 52.2379 43.1575L45.2523 47.0634C44.9449 47.2353 44.5597 47.1192 44.3919 46.8042C44.2241 46.4892 44.3374 46.0945 44.6448 45.9226L51.532 42.0717L54.4859 38.6309L50.1381 35.4679C49.8525 35.2601 49.7854 34.8545 49.9881 34.5619Z" fill="white"/>
<path fill-rule="evenodd" clip-rule="evenodd" d="M57.5757 35.2864C57.7388 35.6039 57.6199 35.9969 57.31 36.1641L54.2935 37.7915C53.9836 37.9587 53.6001 37.8368 53.437 37.5193C53.2738 37.2017 53.3927 36.8088 53.7026 36.6416L56.7191 35.0142C57.029 34.847 57.4125 34.9688 57.5757 35.2864Z" fill="white"/>
<path fill-rule="evenodd" clip-rule="evenodd" d="M58.0338 29.7201C58.2147 30.0274 58.1182 30.4268 57.8182 30.6121L46.3293 37.7112L43.5429 41.3604C43.3271 41.643 42.9285 41.6929 42.6527 41.4718C42.3768 41.2506 42.3282 40.8422 42.544 40.5596L45.4024 36.8161C45.45 36.7538 45.5082 36.7009 45.5744 36.6601L57.1633 29.4992C57.4632 29.3139 57.853 29.4128 58.0338 29.7201Z" fill="white"/>
<path fill-rule="evenodd" clip-rule="evenodd" d="M42.5688 43.2058C42.5862 42.8473 42.884 42.5713 43.2337 42.5892L49.5844 42.9141C49.9342 42.932 50.2036 43.237 50.1861 43.5955C50.1686 43.9539 49.8709 44.2299 49.5211 44.212L43.1705 43.8871C42.8207 43.8692 42.5513 43.5642 42.5688 43.2058Z" fill="white"/>
<path fill-rule="evenodd" clip-rule="evenodd" d="M53.668 19.3957C53.9751 19.5682 54.0876 19.9632 53.9192 20.2779L51.2777 25.2154L50.6636 30.0936L50.8216 43.2303C50.8259 43.5892 50.5455 43.8836 50.1953 43.8881C49.8451 43.8925 49.5577 43.6052 49.5534 43.2463L49.3949 30.0638C49.3945 30.0334 49.3962 30.0029 49.4001 29.9727L50.0351 24.9275C50.0453 24.8471 50.07 24.7694 50.108 24.6983L52.8071 19.6532C52.9754 19.3385 53.3609 19.2232 53.668 19.3957Z" fill="white"/>
<path fill-rule="evenodd" clip-rule="evenodd" d="M42.7867 20.992C42.9352 20.667 43.3127 20.5269 43.6299 20.6791L51.0917 24.2594C51.1326 24.279 51.1713 24.3031 51.2072 24.3311L57.8752 29.5389C58.1537 29.7564 58.2074 30.1641 57.9951 30.4495C57.7828 30.735 57.3849 30.79 57.1064 30.5724L50.4924 25.4069L43.0921 21.856C42.7749 21.7038 42.6382 21.317 42.7867 20.992Z" fill="white"/>
<path fill-rule="evenodd" clip-rule="evenodd" d="M46.3598 14.512C46.5794 14.2325 46.9786 14.1884 47.2514 14.4134L53.7609 19.7848C53.8413 19.8511 53.9047 19.9366 53.9455 20.0338L57.9145 29.4732C58.053 29.8027 57.9046 30.185 57.583 30.327C57.2614 30.469 56.8883 30.317 56.7497 29.9874L52.843 20.6959L46.4559 15.4256C46.1832 15.2006 46.1401 14.7915 46.3598 14.512Z" fill="white"/>
<path fill-rule="evenodd" clip-rule="evenodd" d="M53.966 19.9268C54.0746 20.2679 53.8928 20.6347 53.5598 20.746L46.3317 23.162L43.3822 25.0717C43.0861 25.2634 42.6944 25.1728 42.5073 24.8694C42.3203 24.566 42.4086 24.1647 42.7047 23.973L45.7212 22.0201C45.7656 21.9913 45.8133 21.9683 45.8632 21.9516L53.1665 19.5105C53.4994 19.3992 53.8574 19.5856 53.966 19.9268Z" fill="white"/>
<path fill-rule="evenodd" clip-rule="evenodd" d="M44.3453 14.9347C44.6884 14.8628 45.0234 15.0895 45.0936 15.4411L46.5001 22.4899L50.5426 29.2432H57.1732C57.5235 29.2432 57.8074 29.5342 57.8074 29.893C57.8074 30.2519 57.5235 30.5428 57.1732 30.5428H50.1877C49.9671 30.5428 49.7624 30.4254 49.6471 30.2328L45.3606 23.0719C45.322 23.0074 45.2947 22.9365 45.2799 22.8623L43.851 15.7014C43.7809 15.3499 44.0022 15.0065 44.3453 14.9347Z" fill="white"/>
<path fill-rule="evenodd" clip-rule="evenodd" d="M42.5878 28.1044C42.6746 27.7567 43.0201 27.547 43.3593 27.636L50.1862 29.4261C50.3824 29.4776 50.5428 29.622 50.6179 29.8147C50.693 30.0074 50.6738 30.2253 50.5661 30.4011L46.3623 37.264L45.8989 43.2892C45.8714 43.647 45.5661 43.9141 45.2169 43.8859C44.8678 43.8578 44.607 43.5449 44.6346 43.1871L45.1102 37.0027C45.1182 36.8982 45.1508 36.7971 45.2052 36.7083L49.0299 30.4644L43.0449 28.895C42.7056 28.806 42.501 28.452 42.5878 28.1044Z" fill="white"/>
<path fill-rule="evenodd" clip-rule="evenodd" d="M72.4722 42.1381V31.4928H69.8675V35.6535H65.7606V31.4928H63.156V42.1381H65.7606V37.8673H69.8667V42.1381H72.4722ZM84.7763 36.8154C84.7763 34.0834 82.969 31.2415 79.2143 31.2415C75.4595 31.2415 73.652 34.0834 73.652 36.8154C73.652 39.5475 75.4601 42.3895 79.2143 42.3895C82.9684 42.3895 84.7763 39.5467 84.7763 36.8154ZM82.1102 36.8154C82.1102 38.6053 81.1601 40.1911 79.2143 40.1911C77.2684 40.1911 76.3181 38.6053 76.3181 36.8154C76.3181 35.0256 77.2682 33.424 79.2143 33.424C81.1603 33.424 82.1102 35.0254 82.1102 36.8154ZM93.5406 42.1381V39.9085H88.561V31.4936H85.9561V42.1389L93.5406 42.1381ZM104.129 36.7688C104.129 35.1359 103.562 33.7072 102.474 32.7336C101.156 31.556 99.3939 31.4933 97.6472 31.4933H94.2609V42.1385H97.6472C98.9497 42.1385 100.926 42.1385 102.474 40.7568C103.546 39.7986 104.129 38.3855 104.129 36.7688ZM101.462 36.7688C101.462 37.7273 101.202 38.6215 100.62 39.2025C99.8997 39.9403 98.9955 39.9718 98.0456 39.9718H96.8653V33.6438H98.0451C99.0104 33.6438 99.9605 33.6438 100.619 34.3189C101.248 34.9627 101.462 35.8734 101.462 36.7688ZM107.913 42.1385V31.4933H105.308V42.1385H107.913ZM118.869 42.1385V31.4933H116.433V38.0091L112.142 31.4933H109.553V42.1385H111.99V35.6221L116.28 42.1381L118.869 42.1385ZM130.422 42.1385V36.0146H125.595V38.0557H128.292C128.292 39.4853 127.02 40.1911 125.703 40.1911C123.833 40.1911 122.699 38.6995 122.699 36.7997C122.699 35.0254 123.726 33.4398 125.764 33.4398C126.252 33.4382 126.734 33.5391 127.182 33.7362C127.63 33.9333 128.034 34.2225 128.369 34.5858L129.886 33.0315C129.687 32.7802 128.4 31.2415 125.672 31.2415C122.01 31.2415 120.049 33.8165 120.049 36.831C120.049 39.8613 121.918 42.3892 125.243 42.3892C127.22 42.3892 128.369 41.2587 128.445 41.1489L128.476 42.1381L130.422 42.1385ZM140.413 38.9827C140.413 34.3508 133.992 36.2664 133.992 34.3823C133.992 33.7856 134.605 33.3774 135.708 33.3774C137.685 33.3774 138.773 34.4294 138.865 34.5079L140.305 32.8121C140.121 32.6238 138.849 31.242 135.723 31.242C133.134 31.242 131.418 32.5767 131.418 34.5072C131.418 38.9034 137.807 37.1764 137.807 39.1233C137.807 39.8769 136.994 40.2067 135.784 40.2067C134.596 40.2261 133.44 39.8145 132.52 39.0447L131.141 40.8503C131.325 41.0388 132.781 42.389 135.784 42.389C138.405 42.3895 140.413 41.1808 140.413 38.9827Z" fill="white"/>
<path fill-rule="evenodd" clip-rule="evenodd" d="M71.7533 25.966C71.7533 24.8258 71.1725 23.7847 69.721 23.4045C70.0436 23.2557 71.3338 22.6279 71.3338 20.7604C71.3451 20.0695 71.0969 19.4007 70.6403 18.8922C69.8017 17.9999 68.4792 17.9999 67.0761 17.9999H63.1727V29.2043H66.9626C68.5916 29.2043 70.156 29.1547 71.0592 28.0143C71.5122 27.4329 71.7572 26.71 71.7533 25.966ZM69.9786 21.0404C69.9786 22.7923 68.5271 22.9248 67.2201 22.9248H64.5112V19.1731H67.124C68.398 19.1731 69.9786 19.1731 69.9786 21.0404ZM70.3496 25.9818C70.3496 28.1302 68.3497 28.0145 66.8176 28.0145H64.5112V24.0816H67.1886C68.7852 24.0816 70.3496 24.1799 70.3496 25.9818ZM75.1394 29.2044V17.9997H73.7847V29.2043L75.1394 29.2044ZM87.2357 29.2044V23.3045H82.4776V24.5274H86.0096V24.858C86.0096 25.9818 85.3483 28.2127 82.5097 28.2127C79.6878 28.2127 78.5907 26.0477 78.5907 23.6019C78.5907 21.2056 79.8649 18.9911 82.6066 18.9911C84.8323 18.9911 85.8483 20.3793 85.9934 20.5446L86.9129 19.7514C86.7677 19.5201 85.5582 17.7353 82.6068 17.7353C79.1393 17.7353 77.1717 20.3133 77.1717 23.5855C77.1717 26.9899 78.9619 29.4687 82.3003 29.4687C85.026 29.4687 85.913 27.9318 86.0576 27.7005L86.0893 29.2044H87.2357Z" fill="white"/>
<path fill-rule="evenodd" clip-rule="evenodd" d="M104.065 25.966C104.065 24.8258 103.484 23.7847 102.033 23.4045C102.355 23.2557 103.646 22.6279 103.646 20.7604C103.657 20.0695 103.409 19.4007 102.952 18.8922C102.113 17.9999 100.791 17.9999 99.3879 17.9999H95.4849V29.2043H99.275C100.904 29.2043 102.468 29.1547 103.372 28.0143C103.824 27.4328 104.069 26.7099 104.065 25.966ZM102.291 21.0404C102.291 22.7923 100.839 22.9248 99.5323 22.9248H96.8234V19.1731H99.4363C100.71 19.1731 102.291 19.1731 102.291 21.0404ZM102.662 25.9818C102.662 28.1302 100.662 28.0145 99.1298 28.0145H96.8234V24.0816H99.5008C101.098 24.0816 102.662 24.1799 102.662 25.9818ZM115.032 29.2043L111.629 24.3958C111.822 24.3462 114.419 23.9 114.419 21.1897C114.425 20.7758 114.35 20.3648 114.197 19.9815C114.045 19.5981 113.818 19.2502 113.531 18.9587C112.66 18.0663 111.402 18.0002 110.015 18.0002H106.097V29.2043H107.452V24.5274H110.145L113.419 29.2043H115.032ZM113.064 21.255C113.064 23.2548 111.258 23.3704 109.629 23.3704H107.452V19.1565H109.742C110.774 19.1565 111.903 19.1728 112.58 19.8671C112.903 20.1976 113.064 20.6273 113.064 21.255ZM126.128 29.2041L121.58 17.9997H119.967L115.419 29.2043H116.854L118.032 26.2295H123.467L124.644 29.2043L126.128 29.2041ZM122.999 25.0401H118.516L120.757 19.3878L122.999 25.0401ZM128.934 29.2046V17.9997H127.579V29.2043L128.934 29.2046ZM140.417 29.2046V17.9997H139.159V26.9732L132.837 17.9997H131.45V29.2043H132.708V20.1481L139.095 29.2044L140.417 29.2046Z" fill="white"/>
</svg>
