<svg width="164" height="60" viewBox="0 0 164 60" fill="none" xmlns="http://www.w3.org/2000/svg">
<path d="M127.738 33.4778V37.1736H113.021V33.4778H127.738Z" fill="white"/>
<path d="M42.4795 22.1555H43.5445V38.691C43.5445 42.3523 40.7506 44.8227 35.375 44.8227V41.3457C37.6832 41.3457 38.8364 40.3698 38.8364 38.3856V22.1555H42.4795ZM39.3527 19.4701C39.1075 19.2298 38.9127 18.9427 38.7796 18.6257C38.6466 18.3087 38.5781 17.9681 38.5781 17.6241C38.5781 17.28 38.6466 16.9394 38.7796 16.6224C38.9127 16.3054 39.1075 16.0183 39.3527 15.778C39.5919 15.5318 39.8777 15.336 40.1933 15.2024C40.5089 15.0688 40.8479 14.9999 41.1904 14.9999C41.533 14.9999 41.872 15.0688 42.1876 15.2024C42.5032 15.336 42.789 15.5318 43.0282 15.778C43.2733 16.0183 43.4682 16.3054 43.6012 16.6224C43.7343 16.9394 43.8028 17.28 43.8028 17.6241C43.8028 17.9681 43.7343 18.3087 43.6012 18.6257C43.4682 18.9427 43.2733 19.2298 43.0282 19.4701C42.789 19.7163 42.5032 19.9121 42.1876 20.0457C41.872 20.1793 41.533 20.2482 41.1904 20.2482C40.8479 20.2482 40.5089 20.1793 40.1933 20.0457C39.8777 19.9121 39.5919 19.7163 39.3527 19.4701Z" fill="white"/>
<path d="M57.1756 22.1568H61.8838V37.8068H57.1756V35.5189C56.4628 36.3509 55.5763 37.0149 54.5792 37.4637C53.582 37.9125 52.4986 38.1352 51.4061 38.1158C47.8817 38.1158 45.543 35.9201 45.543 31.8016V22.1604H50.2529V30.0017C50.2529 32.7124 51.3161 34.0895 53.4732 34.0895C55.5385 34.0895 57.1774 32.472 57.1774 29.268L57.1756 22.1568Z" fill="white"/>
<path d="M91.2579 28.1763V37.8157H86.5516V29.8226C86.5516 27.1986 85.5489 25.8873 83.5435 25.8884C81.6007 25.8884 79.9292 27.5348 79.9292 30.7081V37.8157H75.2213V29.8226C75.2213 27.1986 74.2193 25.8873 72.2148 25.8884C70.272 25.8884 68.6006 27.5348 68.6006 30.7081V37.8157H63.8926V22.1657H68.6006V24.4229C70.1498 22.7151 71.9722 21.8603 74.1292 21.8603C76.8618 21.8603 78.6268 22.9283 79.4437 25.0644C81.1155 22.9223 83.1202 21.8513 85.4579 21.8513C89.0722 21.8513 91.2579 23.803 91.2579 28.1763Z" fill="white"/>
<path d="M108.762 23.9875C110.28 25.4513 111.039 27.4337 111.039 29.9674C111.039 32.501 110.28 34.4852 108.762 35.9165C107.243 37.3803 105.329 38.1122 102.99 38.1122C100.925 38.1122 99.2541 37.4412 97.9778 36.0991V44.5204H93.2715V22.1568H97.9778V23.8393C99.2541 22.4984 100.925 21.8273 102.99 21.8261C105.329 21.8207 107.243 22.5526 108.762 23.9875ZM106.119 29.9674C106.119 27.1608 104.388 25.2995 102.049 25.2995C99.7409 25.2995 97.9778 27.0687 97.9778 29.9674C97.9778 32.866 99.7409 34.6353 102.049 34.6353C104.388 34.6353 106.119 32.7739 106.119 29.9674Z" fill="white"/>
</svg>
