<svg width="164" height="60" viewBox="0 0 164 60" fill="none" xmlns="http://www.w3.org/2000/svg">
<path d="M27.0135 31.4666C28.8229 27.5972 30.6323 23.7278 32.422 19.8584C32.6187 19.4346 32.835 19.2687 33.3464 19.2872C35.6081 19.3056 37.8895 19.3056 40.1512 19.2872C40.5839 19.2872 40.8592 19.3424 41.0362 19.7662C44.183 26.7128 47.3297 33.6408 50.4961 40.5874C50.5355 40.6611 50.5158 40.7532 50.5355 40.919C49.1981 40.919 47.8804 40.9006 46.5627 40.9375C45.953 40.9559 45.9137 40.5321 45.7563 40.2004C43.2783 34.7095 40.7806 29.2555 38.3615 23.7646C38.0468 23.046 37.6731 22.7881 36.8668 22.8618C36.0604 22.9355 35.3131 22.7144 34.8804 23.7831C33.8577 26.3811 32.6187 28.9054 31.478 31.4666C30.003 31.4666 28.5082 31.4666 27.0135 31.4666ZM28.1346 35.2255C27.0725 35.2255 26.0499 35.2255 25.1845 35.2255C24.2995 37.1049 23.4341 38.9659 22.5098 40.919C23.9848 40.919 25.2828 40.9006 26.5809 40.9375C27.0135 40.9559 27.2299 40.8085 27.3872 40.4584C28.1542 38.7079 28.9606 36.9759 29.7473 35.2255C29.2163 35.2255 28.6853 35.2255 28.1346 35.2255ZM73.6444 25.5335C74.5097 23.6172 75.3948 21.7194 76.2601 19.8031C76.3584 19.6004 76.4568 19.5083 76.7125 19.5083C77.8138 19.5267 78.8955 19.5267 79.9969 19.5083C80.1935 19.5083 80.3312 19.5267 80.4295 19.7478C81.9439 23.175 83.478 26.6022 84.9923 30.011C85.012 30.0478 85.012 30.1031 85.012 30.1768C84.363 30.1768 83.7336 30.1584 83.1043 30.1768C82.8093 30.1768 82.7896 29.9741 82.7109 29.8083C81.5112 27.1181 80.3115 24.4095 79.1315 21.7009C78.9742 21.3509 78.7972 21.2219 78.4235 21.2587C78.0302 21.2956 77.6761 21.185 77.4598 21.7194C76.9681 23.0092 76.3781 24.2437 75.8274 25.5151C75.0801 25.5335 74.3721 25.5335 73.6444 25.5335ZM107.531 25.5335C108.396 23.6172 109.281 21.7194 110.147 19.8031C110.245 19.6004 110.343 19.5083 110.599 19.5083C111.7 19.5267 112.782 19.5267 113.883 19.5083C114.08 19.5083 114.218 19.5267 114.316 19.7478C115.83 23.175 117.364 26.6022 118.879 30.011C118.899 30.0478 118.899 30.1031 118.899 30.1768C118.249 30.1768 117.62 30.1584 116.991 30.1768C116.696 30.1768 116.676 29.9741 116.597 29.8083C115.398 27.1181 114.198 24.4095 113.018 21.7009C112.861 21.3509 112.684 21.2219 112.31 21.2587C111.917 21.2956 111.563 21.185 111.346 21.7194C110.855 23.0092 110.265 24.2437 109.714 25.5151C108.967 25.5335 108.259 25.5335 107.531 25.5335ZM64.0468 25.2571C64.6368 25.2571 65.0498 25.2018 65.2858 25.1097C65.5218 24.9992 65.6202 24.8149 65.6202 24.5385V21.572C65.6202 21.2956 65.5022 21.1113 65.2858 21.0008C65.0498 20.8902 64.6565 20.8534 64.0468 20.8534H60.7231V25.2571H64.0468V25.2571ZM60.7231 30.1584H58.4417V19.4162H64.0271C65.0498 19.4162 65.8365 19.5267 66.4069 19.7662C66.9772 19.9874 67.3902 20.3743 67.6459 20.8902C67.9016 21.4061 68.0196 22.1247 68.0196 23.046C68.0196 24.3358 67.7442 25.2387 67.1739 25.7915C66.6035 26.3442 65.6792 26.6206 64.3615 26.6206H60.7034V30.1584H60.7231ZM92.0135 24.9992H95.4553C96.0453 24.9992 96.4583 24.9439 96.6943 24.8518C96.9303 24.7412 97.0286 24.5569 97.0286 24.2806V21.572C97.0286 21.2956 96.9106 21.1113 96.6943 21.0008C96.4583 20.8902 96.0649 20.8534 95.4553 20.8534H92.0135V24.9992ZM97.599 30.1584L95.2389 26.3627H92.0135V30.1584H89.7321V19.4162H95.4159C96.4386 19.4162 97.2253 19.5267 97.7956 19.7662C98.366 19.9874 98.779 20.3743 99.0347 20.8902C99.2903 21.4061 99.4083 22.1247 99.4083 23.046C99.4083 23.9305 99.251 24.6122 98.956 25.1097C98.661 25.6072 98.1693 25.9573 97.5006 26.1416L100.077 30.14H97.599V30.1584ZM126.785 30.1584H124.504V19.4162H132.253L131.997 20.8349H126.765V24.3174H131.328V25.6809H126.765V30.1584H126.785ZM138.29 30.1584H140.532V19.4162H138.29V30.1584ZM72.7397 27.3208C72.307 28.2421 71.894 29.1818 71.4417 30.14C72.1497 30.14 72.779 30.1215 73.4084 30.14C73.6247 30.14 73.723 30.0847 73.8017 29.9004C74.1754 29.0344 74.5491 28.1684 74.9424 27.3024C74.6867 27.3024 74.4114 27.3024 74.1557 27.3024C73.6444 27.3208 73.1724 27.3208 72.7397 27.3208ZM108.121 27.3208C107.61 27.3208 107.118 27.3208 106.685 27.3208C106.253 28.2421 105.84 29.1818 105.387 30.14C106.095 30.14 106.725 30.1215 107.354 30.14C107.57 30.14 107.669 30.0847 107.747 29.9004C108.121 29.0344 108.514 28.1684 108.888 27.3024C108.632 27.3208 108.377 27.3208 108.121 27.3208ZM64.6958 39.316V37.7129C64.6958 37.197 64.8138 36.8285 65.0695 36.589C65.3055 36.3494 65.6988 36.2389 66.2299 36.2389H67.1149C67.5672 36.2389 67.9016 36.331 68.1179 36.5153C68.3342 36.6995 68.4522 36.9943 68.4916 37.3813C68.4916 37.5103 68.4326 37.5655 68.2949 37.5655C68.1769 37.5655 68.1179 37.5103 68.0982 37.3813C68.0786 37.0865 67.9999 36.9022 67.8426 36.7732C67.7049 36.6627 67.4492 36.6074 67.0952 36.6074H66.2102C65.9152 36.6074 65.6988 36.6443 65.5415 36.718C65.3842 36.7917 65.2662 36.9022 65.1875 37.068C65.1088 37.2339 65.0695 37.4366 65.0695 37.7129V39.316C65.0695 39.5924 65.1088 39.8135 65.1875 39.9609C65.2662 40.1267 65.3842 40.2373 65.5415 40.311C65.6988 40.3847 65.9348 40.4215 66.2299 40.4215H67.1149C67.4689 40.4215 67.7049 40.3663 67.8622 40.2557C68.0196 40.1452 68.0982 39.9425 68.1179 39.6477C68.1179 39.5187 68.1966 39.4634 68.3146 39.4634C68.4522 39.4634 68.5113 39.5187 68.5113 39.6477C68.4916 40.053 68.3539 40.3294 68.1376 40.5137C67.9212 40.6979 67.5869 40.7901 67.1345 40.7901H66.2495C65.7185 40.7901 65.3252 40.6795 65.0892 40.44C64.8138 40.2004 64.6958 39.8319 64.6958 39.316ZM77.6368 39.187H79.7215L78.6792 36.8285L77.6368 39.187ZM80.7245 40.6058C80.7245 40.6611 80.6852 40.7163 80.6065 40.7532C80.5869 40.7716 80.5475 40.7716 80.5082 40.7716C80.4492 40.7716 80.3902 40.7348 80.3705 40.6611L79.8789 39.5555H79.8592H77.4795L76.9878 40.6611C76.9485 40.7348 76.9091 40.7716 76.8305 40.7716C76.8108 40.7716 76.7715 40.7716 76.7321 40.7532C76.6535 40.7163 76.6141 40.6795 76.6141 40.6058C76.6141 40.5689 76.6141 40.5321 76.6338 40.5137L78.4432 36.3863C78.4825 36.2942 78.5612 36.2389 78.6595 36.2389H78.6792C78.7775 36.2389 78.8562 36.2942 78.8955 36.3863L80.7049 40.5137C80.7246 40.5505 80.7245 40.5874 80.7245 40.6058ZM91.7382 37.4734C91.7382 37.1786 91.6595 36.9575 91.5218 36.8285C91.3841 36.6995 91.1481 36.6258 90.8531 36.6258H89.3191V38.5421H90.8531C91.1678 38.5421 91.3841 38.4684 91.5218 38.3394C91.6595 38.2104 91.7382 37.9893 91.7382 37.6945V37.4734ZM91.7972 36.5521C92.0135 36.7548 92.1118 37.068 92.1118 37.455V37.6577C92.1118 38.063 92.0135 38.3578 91.7972 38.5605C91.5808 38.7632 91.2661 38.8738 90.8531 38.8738H89.3191V40.5689C89.3191 40.6979 89.2601 40.7532 89.1224 40.7532C89.0044 40.7532 88.9258 40.6979 88.9258 40.5689V36.4047C88.9258 36.2757 88.9848 36.2205 89.1224 36.2205H90.8335C91.2661 36.2389 91.5808 36.3494 91.7972 36.5521ZM100.451 40.7348C100.411 40.6979 100.411 40.6611 100.411 40.6058V36.4416C100.411 36.3863 100.431 36.3494 100.451 36.3126C100.49 36.2757 100.529 36.2573 100.588 36.2573C100.647 36.2573 100.687 36.2757 100.726 36.3126C100.765 36.3494 100.765 36.3863 100.765 36.4416V40.6058C100.765 40.6611 100.746 40.6979 100.726 40.7348C100.687 40.7716 100.647 40.7901 100.588 40.7901C100.529 40.7901 100.49 40.7716 100.451 40.7348ZM110.914 40.7348C110.874 40.6979 110.855 40.6611 110.855 40.6058V36.6258H109.281C109.222 36.6258 109.183 36.6074 109.144 36.5705C109.104 36.5337 109.085 36.4968 109.085 36.4416C109.085 36.3863 109.104 36.3494 109.144 36.3126C109.183 36.2757 109.222 36.2573 109.281 36.2573H112.802C112.861 36.2573 112.9 36.2757 112.939 36.3126C112.979 36.3494 112.998 36.3863 112.998 36.4416C112.998 36.4968 112.979 36.5337 112.939 36.5705C112.9 36.6074 112.861 36.6258 112.802 36.6258H111.228V40.6058C111.228 40.6611 111.209 40.6979 111.169 40.7348C111.13 40.7716 111.091 40.7901 111.032 40.7901C110.992 40.7901 110.953 40.7716 110.914 40.7348ZM120.669 39.187H122.753L121.711 36.8285L120.669 39.187ZM123.776 40.6058C123.776 40.6611 123.737 40.7163 123.658 40.7532C123.638 40.7716 123.599 40.7716 123.56 40.7716C123.501 40.7716 123.442 40.7348 123.422 40.6611L122.93 39.5555H122.911H120.531L120.039 40.6611C120 40.7348 119.961 40.7716 119.882 40.7716C119.862 40.7716 119.823 40.7716 119.784 40.7532C119.705 40.7163 119.666 40.6795 119.666 40.6058C119.666 40.5689 119.666 40.5321 119.685 40.5137L121.495 36.3863C121.534 36.2942 121.613 36.2389 121.711 36.2389H121.731C121.829 36.2389 121.908 36.2942 121.947 36.3863L123.756 40.5137C123.756 40.5505 123.776 40.5874 123.776 40.6058ZM132.056 40.6058V36.4416C132.056 36.3126 132.115 36.2573 132.253 36.2573C132.371 36.2573 132.449 36.3126 132.449 36.4416V40.4215H134.691C134.809 40.4215 134.888 40.4768 134.888 40.6058C134.888 40.7348 134.829 40.7901 134.691 40.7901H132.253C132.115 40.7901 132.056 40.7163 132.056 40.6058Z" fill="white"/>
</svg>
