<svg width="450" height="250" viewBox="0 0 450 250" fill="none" xmlns="http://www.w3.org/2000/svg">
<path d="M41 46C41 41.5817 44.5817 38 49 38H401C405.418 38 409 41.5817 409 46V113C409 117.418 405.418 121 401 121H49C44.5817 121 41 117.418 41 113V46Z" fill="#2B283C"/>
<path d="M57 68.5C57 61.8726 62.3726 56.5 69 56.5H86C92.6274 56.5 98 61.8726 98 68.5V68.5C98 75.1274 92.6274 80.5 86 80.5H69C62.3726 80.5 57 75.1274 57 68.5V68.5Z" fill="#3A3650"/>
<path d="M65.975 72.5V63.4H67.249L70.447 69.77L73.632 63.4H74.919V72.5H73.827V65.35L70.863 71.239H70.044L67.067 65.389V72.5H65.975ZM78.9346 72.656C78.4059 72.656 77.9639 72.565 77.6086 72.383C77.2619 72.1923 77.0019 71.941 76.8286 71.629C76.6552 71.317 76.5686 70.979 76.5686 70.615C76.5686 70.173 76.6812 69.796 76.9066 69.484C77.1406 69.172 77.4656 68.938 77.8816 68.782C78.3062 68.6173 78.8002 68.535 79.3636 68.535H81.0926C81.0926 68.119 81.0319 67.7723 80.9106 67.495C80.7892 67.2177 80.6072 67.0097 80.3646 66.871C80.1306 66.7323 79.8316 66.663 79.4676 66.663C79.0602 66.663 78.7049 66.767 78.4016 66.975C78.1069 67.1743 77.9249 67.4733 77.8556 67.872H76.7376C76.7896 67.4127 76.9456 67.027 77.2056 66.715C77.4742 66.3943 77.8079 66.1517 78.2066 65.987C78.6052 65.8223 79.0256 65.74 79.4676 65.74C80.0742 65.74 80.5769 65.8527 80.9756 66.078C81.3829 66.2947 81.6862 66.6023 81.8856 67.001C82.0849 67.391 82.1846 67.8503 82.1846 68.379V72.5H81.2096L81.1446 71.343C81.0579 71.525 80.9452 71.6983 80.8066 71.863C80.6766 72.019 80.5206 72.1577 80.3386 72.279C80.1566 72.3917 79.9486 72.4827 79.7146 72.552C79.4892 72.6213 79.2292 72.656 78.9346 72.656ZM79.1036 71.733C79.4069 71.733 79.6799 71.6723 79.9226 71.551C80.1652 71.421 80.3732 71.2477 80.5466 71.031C80.7286 70.8057 80.8629 70.5587 80.9496 70.29C81.0449 70.0127 81.0926 69.731 81.0926 69.445V69.38H79.4546C79.0386 69.38 78.7006 69.432 78.4406 69.536C78.1806 69.6313 77.9942 69.77 77.8816 69.952C77.7689 70.134 77.7126 70.3377 77.7126 70.563C77.7126 70.797 77.7646 71.005 77.8686 71.187C77.9812 71.3603 78.1416 71.4947 78.3496 71.59C78.5576 71.6853 78.8089 71.733 79.1036 71.733ZM83.2623 72.5L85.4723 69.198L83.2623 65.896H84.4453L86.2133 68.587L87.9813 65.896H89.1643L86.9413 69.198L89.1643 72.5H87.9813L86.2133 69.783L84.4583 72.5H83.2623Z" fill="#AAA4C2"/>
<path d="M308.536 77.288C307.368 77.288 306.352 77.072 305.488 76.64C304.624 76.208 303.944 75.624 303.448 74.888C302.952 74.152 302.648 73.32 302.536 72.392H304.864C305.04 73.24 305.456 73.928 306.112 74.456C306.768 74.984 307.584 75.248 308.56 75.248C309.296 75.248 309.928 75.072 310.456 74.72C310.984 74.368 311.392 73.896 311.68 73.304C311.984 72.696 312.136 72.032 312.136 71.312C312.136 70.528 311.984 69.848 311.68 69.272C311.376 68.696 310.96 68.248 310.432 67.928C309.92 67.608 309.32 67.448 308.632 67.448C307.768 67.448 307.032 67.648 306.424 68.048C305.816 68.432 305.376 68.936 305.104 69.56H302.824L304.264 60.2H313.24V62.288H306.088L305.176 66.968C305.56 66.52 306.072 66.16 306.712 65.888C307.368 65.6 308.112 65.456 308.944 65.456C309.808 65.456 310.576 65.608 311.248 65.912C311.92 66.216 312.496 66.632 312.976 67.16C313.456 67.688 313.816 68.304 314.056 69.008C314.312 69.712 314.44 70.472 314.44 71.288C314.44 72.12 314.304 72.904 314.032 73.64C313.776 74.36 313.384 75 312.856 75.56C312.344 76.104 311.728 76.528 311.008 76.832C310.288 77.136 309.464 77.288 308.536 77.288ZM315.454 79.952L316.846 74.408H319.246L317.086 79.952H315.454ZM327.94 77.288C326.436 77.288 325.132 76.928 324.028 76.208C322.94 75.472 322.1 74.456 321.508 73.16C320.932 71.848 320.644 70.328 320.644 68.6C320.644 66.872 320.932 65.36 321.508 64.064C322.1 62.752 322.94 61.736 324.028 61.016C325.116 60.28 326.42 59.912 327.94 59.912C329.46 59.912 330.756 60.28 331.828 61.016C332.916 61.736 333.748 62.752 334.324 64.064C334.916 65.36 335.212 66.872 335.212 68.6C335.212 70.328 334.916 71.848 334.324 73.16C333.748 74.456 332.916 75.472 331.828 76.208C330.756 76.928 329.46 77.288 327.94 77.288ZM327.94 75.152C328.868 75.152 329.692 74.888 330.412 74.36C331.148 73.832 331.724 73.08 332.14 72.104C332.556 71.128 332.764 69.96 332.764 68.6C332.764 67.24 332.556 66.072 332.14 65.096C331.724 64.12 331.148 63.376 330.412 62.864C329.692 62.336 328.868 62.072 327.94 62.072C326.996 62.072 326.156 62.336 325.42 62.864C324.7 63.376 324.132 64.12 323.716 65.096C323.3 66.072 323.092 67.24 323.092 68.6C323.092 69.96 323.3 71.128 323.716 72.104C324.132 73.08 324.7 73.832 325.42 74.36C326.156 74.888 326.996 75.152 327.94 75.152ZM344.241 77.288C342.737 77.288 341.433 76.928 340.329 76.208C339.241 75.472 338.401 74.456 337.809 73.16C337.233 71.848 336.945 70.328 336.945 68.6C336.945 66.872 337.233 65.36 337.809 64.064C338.401 62.752 339.241 61.736 340.329 61.016C341.417 60.28 342.721 59.912 344.241 59.912C345.761 59.912 347.057 60.28 348.129 61.016C349.217 61.736 350.049 62.752 350.625 64.064C351.217 65.36 351.513 66.872 351.513 68.6C351.513 70.328 351.217 71.848 350.625 73.16C350.049 74.456 349.217 75.472 348.129 76.208C347.057 76.928 345.761 77.288 344.241 77.288ZM344.241 75.152C345.169 75.152 345.993 74.888 346.713 74.36C347.449 73.832 348.025 73.08 348.441 72.104C348.857 71.128 349.065 69.96 349.065 68.6C349.065 67.24 348.857 66.072 348.441 65.096C348.025 64.12 347.449 63.376 346.713 62.864C345.993 62.336 345.169 62.072 344.241 62.072C343.297 62.072 342.457 62.336 341.721 62.864C341.001 63.376 340.433 64.12 340.017 65.096C339.601 66.072 339.393 67.24 339.393 68.6C339.393 69.96 339.601 71.128 340.017 72.104C340.433 73.08 341.001 73.832 341.721 74.36C342.457 74.888 343.297 75.152 344.241 75.152ZM360.543 77.288C359.039 77.288 357.735 76.928 356.631 76.208C355.543 75.472 354.703 74.456 354.111 73.16C353.535 71.848 353.247 70.328 353.247 68.6C353.247 66.872 353.535 65.36 354.111 64.064C354.703 62.752 355.543 61.736 356.631 61.016C357.719 60.28 359.023 59.912 360.543 59.912C362.063 59.912 363.359 60.28 364.431 61.016C365.519 61.736 366.351 62.752 366.927 64.064C367.519 65.36 367.815 66.872 367.815 68.6C367.815 70.328 367.519 71.848 366.927 73.16C366.351 74.456 365.519 75.472 364.431 76.208C363.359 76.928 362.063 77.288 360.543 77.288ZM360.543 75.152C361.471 75.152 362.295 74.888 363.015 74.36C363.751 73.832 364.327 73.08 364.743 72.104C365.159 71.128 365.367 69.96 365.367 68.6C365.367 67.24 365.159 66.072 364.743 65.096C364.327 64.12 363.751 63.376 363.015 62.864C362.295 62.336 361.471 62.072 360.543 62.072C359.599 62.072 358.759 62.336 358.023 62.864C357.303 63.376 356.735 64.12 356.319 65.096C355.903 66.072 355.695 67.24 355.695 68.6C355.695 69.96 355.903 71.128 356.319 72.104C356.735 73.08 357.303 73.832 358.023 74.36C358.759 74.888 359.599 75.152 360.543 75.152Z" fill="#F4F4F6"/>
<circle cx="385" cy="68.5" r="8" fill="#2D384B"/>
<path d="M381.341 66.5848V70.5643C381.341 70.8175 381.476 71.0521 381.696 71.1787L385.145 73.1674C385.365 73.294 385.635 73.294 385.855 73.1674L389.304 71.1787C389.524 71.0521 389.659 70.8175 389.659 70.5643V66.5848C389.659 66.3316 389.524 66.097 389.304 65.9704L385.855 63.9817C385.635 63.8551 385.365 63.8551 385.145 63.9817L381.696 65.9704C381.478 66.097 381.341 66.3316 381.341 66.5848Z" fill="#213147"/>
<path d="M386.254 69.3455L385.762 70.6927C385.747 70.7301 385.747 70.7716 385.762 70.809L386.607 73.1277L387.586 72.5631L386.412 69.3455C386.385 69.2708 386.281 69.2708 386.254 69.3455Z" fill="#12AAFF"/>
<path d="M387.239 67.0786C387.212 67.0038 387.108 67.0038 387.081 67.0786L386.589 68.4258C386.574 68.4632 386.574 68.5047 386.589 68.5421L387.974 72.3388L388.953 71.7742L387.239 67.0786Z" fill="#12AAFF"/>
<path d="M385.5 64.129C385.525 64.129 385.548 64.1352 385.571 64.1477L389.302 66.3003C389.346 66.3253 389.373 66.3709 389.373 66.4208V70.7261C389.373 70.7759 389.346 70.8216 389.302 70.8465L385.571 73.0013C385.55 73.0137 385.525 73.0199 385.5 73.0199C385.475 73.0199 385.452 73.0137 385.429 73.0013L381.7 70.8486C381.657 70.8237 381.63 70.778 381.63 70.7282V66.4208C381.63 66.3709 381.657 66.3253 381.7 66.3003L385.431 64.1477C385.452 64.1352 385.477 64.129 385.5 64.129ZM385.5 63.5C385.367 63.5 385.234 63.5353 385.116 63.6038L381.384 65.7565C381.148 65.8935 381 66.1467 381 66.4208V70.7261C381 71.0001 381.148 71.2555 381.384 71.3925L385.116 73.5451C385.234 73.6136 385.367 73.6489 385.5 73.6489C385.633 73.6489 385.766 73.6136 385.884 73.5451L389.616 71.3925C389.855 71.2555 390 71.0022 390 70.7261V66.4208C390 66.1467 389.852 65.8914 389.616 65.7544L385.886 63.6038C385.766 63.5353 385.633 63.5 385.5 63.5Z" fill="#9DCCED"/>
<path d="M383.034 72.3434L383.377 71.4051L384.066 71.978L383.422 72.5676L383.034 72.3434Z" fill="#213147"/>
<path d="M385.186 66.1135H384.241C384.17 66.1135 384.106 66.1571 384.083 66.2235L382.055 71.7785L383.034 72.3434L385.267 66.2256C385.286 66.1716 385.246 66.1135 385.186 66.1135Z" fill="white"/>
<path d="M386.842 66.1135H385.897C385.826 66.1135 385.762 66.1571 385.739 66.2235L383.422 72.5676L384.401 73.132L386.921 66.2277C386.942 66.1716 386.9 66.1135 386.842 66.1135Z" fill="white"/>
<path d="M57.975 102V92.9H61.173C61.8143 92.9 62.343 93.004 62.759 93.212C63.1837 93.4113 63.5 93.6887 63.708 94.044C63.916 94.3907 64.02 94.7807 64.02 95.214C64.02 95.682 63.916 96.072 63.708 96.384C63.5087 96.696 63.2443 96.9343 62.915 97.099C62.5943 97.2637 62.252 97.3633 61.888 97.398L62.07 97.268C62.46 97.2767 62.8197 97.3807 63.149 97.58C63.4783 97.7793 63.7383 98.048 63.929 98.386C64.1283 98.724 64.228 99.101 64.228 99.517C64.228 99.9763 64.1153 100.397 63.89 100.778C63.6647 101.151 63.331 101.45 62.889 101.675C62.4557 101.892 61.9183 102 61.277 102H57.975ZM59.067 101.09H61.16C61.7753 101.09 62.252 100.947 62.59 100.661C62.9367 100.366 63.11 99.959 63.11 99.439C63.11 98.9277 62.9323 98.5203 62.577 98.217C62.2303 97.905 61.7493 97.749 61.134 97.749H59.067V101.09ZM59.067 96.878H61.095C61.6843 96.878 62.1307 96.7393 62.434 96.462C62.746 96.1847 62.902 95.8077 62.902 95.331C62.902 94.8717 62.746 94.5033 62.434 94.226C62.1307 93.9487 61.6713 93.81 61.056 93.81H59.067V96.878ZM67.8877 102.156C67.359 102.156 66.917 102.065 66.5617 101.883C66.215 101.692 65.955 101.441 65.7817 101.129C65.6084 100.817 65.5217 100.479 65.5217 100.115C65.5217 99.673 65.6344 99.296 65.8597 98.984C66.0937 98.672 66.4187 98.438 66.8347 98.282C67.2594 98.1173 67.7534 98.035 68.3167 98.035H70.0457C70.0457 97.619 69.985 97.2723 69.8637 96.995C69.7424 96.7177 69.5604 96.5097 69.3177 96.371C69.0837 96.2323 68.7847 96.163 68.4207 96.163C68.0134 96.163 67.658 96.267 67.3547 96.475C67.06 96.6743 66.878 96.9733 66.8087 97.372H65.6907C65.7427 96.9127 65.8987 96.527 66.1587 96.215C66.4274 95.8943 66.761 95.6517 67.1597 95.487C67.5584 95.3223 67.9787 95.24 68.4207 95.24C69.0274 95.24 69.53 95.3527 69.9287 95.578C70.336 95.7947 70.6394 96.1023 70.8387 96.501C71.038 96.891 71.1377 97.3503 71.1377 97.879V102H70.1627L70.0977 100.843C70.011 101.025 69.8984 101.198 69.7597 101.363C69.6297 101.519 69.4737 101.658 69.2917 101.779C69.1097 101.892 68.9017 101.983 68.6677 102.052C68.4424 102.121 68.1824 102.156 67.8877 102.156ZM68.0567 101.233C68.36 101.233 68.633 101.172 68.8757 101.051C69.1184 100.921 69.3264 100.748 69.4997 100.531C69.6817 100.306 69.816 100.059 69.9027 99.79C69.998 99.5127 70.0457 99.231 70.0457 98.945V98.88H68.4077C67.9917 98.88 67.6537 98.932 67.3937 99.036C67.1337 99.1313 66.9474 99.27 66.8347 99.452C66.722 99.634 66.6657 99.8377 66.6657 100.063C66.6657 100.297 66.7177 100.505 66.8217 100.687C66.9344 100.86 67.0947 100.995 67.3027 101.09C67.5107 101.185 67.762 101.233 68.0567 101.233ZM72.8524 102V92.64H73.9444V102H72.8524ZM77.8916 102.156C77.3629 102.156 76.9209 102.065 76.5656 101.883C76.2189 101.692 75.9589 101.441 75.7856 101.129C75.6123 100.817 75.5256 100.479 75.5256 100.115C75.5256 99.673 75.6383 99.296 75.8636 98.984C76.0976 98.672 76.4226 98.438 76.8386 98.282C77.2633 98.1173 77.7573 98.035 78.3206 98.035H80.0496C80.0496 97.619 79.9889 97.2723 79.8676 96.995C79.7463 96.7177 79.5643 96.5097 79.3216 96.371C79.0876 96.2323 78.7886 96.163 78.4246 96.163C78.0173 96.163 77.6619 96.267 77.3586 96.475C77.0639 96.6743 76.8819 96.9733 76.8126 97.372H75.6946C75.7466 96.9127 75.9026 96.527 76.1626 96.215C76.4313 95.8943 76.7649 95.6517 77.1636 95.487C77.5623 95.3223 77.9826 95.24 78.4246 95.24C79.0313 95.24 79.5339 95.3527 79.9326 95.578C80.3399 95.7947 80.6433 96.1023 80.8426 96.501C81.0419 96.891 81.1416 97.3503 81.1416 97.879V102H80.1666L80.1016 100.843C80.0149 101.025 79.9023 101.198 79.7636 101.363C79.6336 101.519 79.4776 101.658 79.2956 101.779C79.1136 101.892 78.9056 101.983 78.6716 102.052C78.4463 102.121 78.1863 102.156 77.8916 102.156ZM78.0606 101.233C78.3639 101.233 78.6369 101.172 78.8796 101.051C79.1223 100.921 79.3303 100.748 79.5036 100.531C79.6856 100.306 79.8199 100.059 79.9066 99.79C80.0019 99.5127 80.0496 99.231 80.0496 98.945V98.88H78.4116C77.9956 98.88 77.6576 98.932 77.3976 99.036C77.1376 99.1313 76.9513 99.27 76.8386 99.452C76.7259 99.634 76.6696 99.8377 76.6696 100.063C76.6696 100.297 76.7216 100.505 76.8256 100.687C76.9383 100.86 77.0986 100.995 77.3066 101.09C77.5146 101.185 77.7659 101.233 78.0606 101.233ZM82.8563 102V95.396H83.8443L83.8963 96.527C84.1043 96.1197 84.399 95.8033 84.7803 95.578C85.1703 95.3527 85.6123 95.24 86.1063 95.24C86.609 95.24 87.0466 95.3397 87.4193 95.539C87.792 95.7383 88.0823 96.0417 88.2903 96.449C88.4983 96.8563 88.6023 97.372 88.6023 97.996V102H87.5103V98.113C87.5103 97.4717 87.363 96.9907 87.0683 96.67C86.7823 96.3407 86.3793 96.176 85.8593 96.176C85.4953 96.176 85.1703 96.2627 84.8843 96.436C84.5983 96.6093 84.3686 96.8607 84.1953 97.19C84.0306 97.5193 83.9483 97.9267 83.9483 98.412V102H82.8563ZM93.2721 102.156C92.6568 102.156 92.1021 102.013 91.6081 101.727C91.1228 101.432 90.7415 101.025 90.4641 100.505C90.1868 99.985 90.0481 99.3827 90.0481 98.698C90.0481 98.0047 90.1868 97.4023 90.4641 96.891C90.7415 96.371 91.1228 95.968 91.6081 95.682C92.1021 95.3873 92.6611 95.24 93.2851 95.24C94.0565 95.24 94.7021 95.4437 95.2221 95.851C95.7421 96.2583 96.0758 96.8 96.2231 97.476H95.1051C95.0098 97.0687 94.7931 96.7523 94.4551 96.527C94.1171 96.293 93.7185 96.176 93.2591 96.176C92.8865 96.176 92.5398 96.2713 92.2191 96.462C91.8985 96.6527 91.6428 96.9343 91.4521 97.307C91.2615 97.6797 91.1661 98.1433 91.1661 98.698C91.1661 99.114 91.2225 99.4823 91.3351 99.803C91.4478 100.115 91.5995 100.379 91.7901 100.596C91.9808 100.804 92.2018 100.964 92.4531 101.077C92.7131 101.181 92.9818 101.233 93.2591 101.233C93.5711 101.233 93.8528 101.181 94.1041 101.077C94.3555 100.973 94.5678 100.826 94.7411 100.635C94.9231 100.436 95.0445 100.197 95.1051 99.92H96.2231C96.0845 100.587 95.7508 101.129 95.2221 101.545C94.6935 101.952 94.0435 102.156 93.2721 102.156ZM100.646 102.156C100.031 102.156 99.4849 102.013 99.0083 101.727C98.5403 101.441 98.1719 101.038 97.9033 100.518C97.6346 99.998 97.5003 99.3913 97.5003 98.698C97.5003 97.996 97.6303 97.3893 97.8903 96.878C98.1589 96.358 98.5316 95.955 99.0083 95.669C99.4936 95.383 100.048 95.24 100.672 95.24C101.314 95.24 101.855 95.383 102.297 95.669C102.748 95.955 103.09 96.3363 103.324 96.813C103.567 97.281 103.688 97.7923 103.688 98.347C103.688 98.4337 103.688 98.5247 103.688 98.62C103.688 98.7153 103.684 98.8237 103.675 98.945H98.3193V98.1H102.609C102.583 97.4847 102.384 97.008 102.011 96.67C101.647 96.332 101.192 96.163 100.646 96.163C100.274 96.163 99.9269 96.2497 99.6063 96.423C99.2943 96.5877 99.0429 96.8347 98.8523 97.164C98.6616 97.4933 98.5663 97.905 98.5663 98.399V98.763C98.5663 99.309 98.6616 99.7683 98.8523 100.141C99.0516 100.505 99.3073 100.778 99.6193 100.96C99.9399 101.142 100.282 101.233 100.646 101.233C101.106 101.233 101.483 101.133 101.777 100.934C102.072 100.735 102.289 100.457 102.427 100.102H103.506C103.394 100.501 103.207 100.856 102.947 101.168C102.687 101.471 102.362 101.714 101.972 101.896C101.591 102.069 101.149 102.156 100.646 102.156ZM105.552 102.065C105.344 102.065 105.166 101.996 105.019 101.857C104.88 101.71 104.811 101.532 104.811 101.324C104.811 101.116 104.88 100.943 105.019 100.804C105.166 100.657 105.344 100.583 105.552 100.583C105.777 100.583 105.955 100.657 106.085 100.804C106.224 100.943 106.293 101.116 106.293 101.324C106.293 101.532 106.224 101.71 106.085 101.857C105.955 101.996 105.777 102.065 105.552 102.065ZM105.552 96.722C105.344 96.722 105.166 96.6527 105.019 96.514C104.88 96.3667 104.811 96.189 104.811 95.981C104.811 95.773 104.88 95.5997 105.019 95.461C105.166 95.3137 105.344 95.24 105.552 95.24C105.777 95.24 105.955 95.3137 106.085 95.461C106.224 95.5997 106.293 95.773 106.293 95.981C106.293 96.189 106.224 96.3667 106.085 96.514C105.955 96.6527 105.777 96.722 105.552 96.722ZM114.596 102.156C113.938 102.156 113.383 102.035 112.932 101.792C112.482 101.541 112.122 101.211 111.853 100.804C111.585 100.388 111.39 99.92 111.268 99.4C111.147 98.88 111.086 98.3513 111.086 97.814C111.086 96.8087 111.221 95.929 111.489 95.175C111.767 94.4123 112.165 93.8187 112.685 93.394C113.214 92.9607 113.847 92.744 114.583 92.744C115.155 92.744 115.645 92.8567 116.052 93.082C116.468 93.2987 116.798 93.5933 117.04 93.966C117.283 94.3387 117.43 94.7503 117.482 95.201H116.468C116.382 94.7157 116.169 94.343 115.831 94.083C115.502 93.823 115.082 93.693 114.57 93.693C114.12 93.693 113.712 93.836 113.348 94.122C112.984 94.3993 112.694 94.8283 112.477 95.409C112.269 95.981 112.152 96.7133 112.126 97.606C112.126 97.6147 112.126 97.6277 112.126 97.645C112.126 97.6623 112.126 97.6797 112.126 97.697C112.256 97.4283 112.443 97.177 112.685 96.943C112.937 96.709 113.236 96.5227 113.582 96.384C113.929 96.2453 114.315 96.176 114.739 96.176C115.251 96.176 115.732 96.2973 116.182 96.54C116.633 96.7827 116.997 97.125 117.274 97.567C117.552 98.0003 117.69 98.5117 117.69 99.101C117.69 99.6123 117.565 100.102 117.313 100.57C117.062 101.038 116.702 101.419 116.234 101.714C115.775 102.009 115.229 102.156 114.596 102.156ZM114.518 101.194C114.908 101.194 115.259 101.107 115.571 100.934C115.883 100.752 116.13 100.509 116.312 100.206C116.494 99.894 116.585 99.543 116.585 99.153C116.585 98.7457 116.494 98.3903 116.312 98.087C116.13 97.7837 115.883 97.5497 115.571 97.385C115.259 97.2117 114.908 97.125 114.518 97.125C114.12 97.125 113.76 97.216 113.439 97.398C113.119 97.58 112.867 97.827 112.685 98.139C112.503 98.4423 112.412 98.7847 112.412 99.166C112.412 99.556 112.503 99.907 112.685 100.219C112.867 100.522 113.119 100.761 113.439 100.934C113.76 101.107 114.12 101.194 114.518 101.194ZM118.599 103.599L119.353 100.726H120.484L119.353 103.599H118.599ZM122.962 102V94.122L121.324 94.551V93.758L123.326 92.9H124.067V102H122.962ZM125.879 102V101.233C126.503 100.748 127.092 100.258 127.647 99.764C128.21 99.27 128.709 98.7803 129.142 98.295C129.575 97.801 129.918 97.32 130.169 96.852C130.42 96.384 130.546 95.9333 130.546 95.5C130.546 95.1793 130.49 94.8847 130.377 94.616C130.264 94.3387 130.082 94.1133 129.831 93.94C129.588 93.7667 129.255 93.68 128.83 93.68C128.423 93.68 128.08 93.771 127.803 93.953C127.534 94.1263 127.331 94.3603 127.192 94.655C127.062 94.941 126.997 95.2573 126.997 95.604H125.944C125.953 95.006 126.078 94.4947 126.321 94.07C126.572 93.6367 126.915 93.3073 127.348 93.082C127.79 92.8567 128.288 92.744 128.843 92.744C129.389 92.744 129.87 92.848 130.286 93.056C130.702 93.2553 131.031 93.5543 131.274 93.953C131.517 94.3517 131.638 94.8543 131.638 95.461C131.638 95.8857 131.547 96.3103 131.365 96.735C131.192 97.1597 130.958 97.5757 130.663 97.983C130.368 98.3817 130.039 98.7673 129.675 99.14C129.311 99.5127 128.938 99.8637 128.557 100.193C128.184 100.522 127.829 100.821 127.491 101.09H131.95V102H125.879ZM136.397 102.156C135.817 102.156 135.288 102.052 134.811 101.844C134.343 101.627 133.971 101.307 133.693 100.882C133.416 100.457 133.269 99.9287 133.251 99.296H134.356C134.365 99.6427 134.447 99.9633 134.603 100.258C134.768 100.544 135.002 100.774 135.305 100.947C135.609 101.12 135.973 101.207 136.397 101.207C136.822 101.207 137.177 101.125 137.463 100.96C137.749 100.795 137.966 100.579 138.113 100.31C138.261 100.033 138.334 99.725 138.334 99.387C138.334 98.971 138.23 98.633 138.022 98.373C137.823 98.1043 137.55 97.905 137.203 97.775C136.865 97.645 136.493 97.58 136.085 97.58H135.409V96.657H136.085C136.683 96.657 137.151 96.5227 137.489 96.254C137.836 95.9767 138.009 95.591 138.009 95.097C138.009 94.6983 137.875 94.3647 137.606 94.096C137.338 93.8273 136.935 93.693 136.397 93.693C135.877 93.693 135.466 93.8403 135.162 94.135C134.859 94.4297 134.686 94.8067 134.642 95.266H133.537C133.563 94.772 133.698 94.3343 133.94 93.953C134.183 93.5717 134.512 93.277 134.928 93.069C135.353 92.8523 135.843 92.744 136.397 92.744C136.995 92.744 137.494 92.848 137.892 93.056C138.291 93.264 138.594 93.5413 138.802 93.888C139.01 94.2347 139.114 94.616 139.114 95.032C139.114 95.344 139.054 95.6387 138.932 95.916C138.82 96.1933 138.651 96.436 138.425 96.644C138.2 96.852 137.914 96.995 137.567 97.073C137.923 97.1423 138.239 97.281 138.516 97.489C138.802 97.6883 139.028 97.9483 139.192 98.269C139.357 98.5897 139.439 98.9623 139.439 99.387C139.439 99.881 139.322 100.34 139.088 100.765C138.863 101.181 138.525 101.519 138.074 101.779C137.624 102.03 137.065 102.156 136.397 102.156ZM141.569 102.065C141.361 102.065 141.183 101.996 141.036 101.857C140.897 101.71 140.828 101.532 140.828 101.324C140.828 101.116 140.897 100.943 141.036 100.804C141.183 100.657 141.361 100.583 141.569 100.583C141.794 100.583 141.972 100.657 142.102 100.804C142.24 100.943 142.31 101.116 142.31 101.324C142.31 101.532 142.24 101.71 142.102 101.857C141.972 101.996 141.794 102.065 141.569 102.065ZM146.823 102.156C146.234 102.156 145.705 102.048 145.237 101.831C144.769 101.606 144.396 101.298 144.119 100.908C143.85 100.509 143.716 100.05 143.716 99.53C143.716 99.1573 143.785 98.8107 143.924 98.49C144.071 98.1693 144.275 97.892 144.535 97.658C144.804 97.4153 145.111 97.2463 145.458 97.151C144.973 96.9777 144.596 96.709 144.327 96.345C144.067 95.981 143.937 95.5867 143.937 95.162C143.937 94.7113 144.054 94.304 144.288 93.94C144.522 93.576 144.851 93.2857 145.276 93.069C145.709 92.8523 146.225 92.744 146.823 92.744C147.421 92.744 147.932 92.8523 148.357 93.069C148.79 93.2857 149.12 93.576 149.345 93.94C149.579 94.304 149.696 94.7113 149.696 95.162C149.696 95.5867 149.562 95.981 149.293 96.345C149.033 96.709 148.665 96.9777 148.188 97.151C148.543 97.2463 148.847 97.4153 149.098 97.658C149.358 97.892 149.562 98.1693 149.709 98.49C149.856 98.8107 149.93 99.1573 149.93 99.53C149.93 100.05 149.791 100.509 149.514 100.908C149.245 101.298 148.877 101.606 148.409 101.831C147.941 102.048 147.412 102.156 146.823 102.156ZM146.823 101.194C147.499 101.194 148.002 101.038 148.331 100.726C148.669 100.405 148.838 99.985 148.838 99.465C148.838 98.8757 148.652 98.4293 148.279 98.126C147.915 97.8227 147.43 97.671 146.823 97.671C146.208 97.671 145.718 97.8227 145.354 98.126C144.99 98.4293 144.808 98.8757 144.808 99.465C144.808 99.985 144.973 100.405 145.302 100.726C145.64 101.038 146.147 101.194 146.823 101.194ZM146.823 96.761C147.36 96.761 147.789 96.618 148.11 96.332C148.431 96.046 148.591 95.6777 148.591 95.227C148.591 94.7157 148.431 94.33 148.11 94.07C147.798 93.81 147.369 93.68 146.823 93.68C146.277 93.68 145.844 93.81 145.523 94.07C145.211 94.33 145.055 94.7157 145.055 95.227C145.055 95.6777 145.211 96.046 145.523 96.332C145.844 96.618 146.277 96.761 146.823 96.761ZM155.2 102.156C154.412 102.156 153.731 101.961 153.159 101.571C152.596 101.172 152.163 100.622 151.859 99.92C151.556 99.2093 151.404 98.386 151.404 97.45C151.404 96.514 151.556 95.695 151.859 94.993C152.163 94.2823 152.596 93.732 153.159 93.342C153.731 92.9433 154.412 92.744 155.2 92.744C155.989 92.744 156.661 92.9433 157.215 93.342C157.779 93.732 158.212 94.2823 158.515 94.993C158.819 95.695 158.97 96.514 158.97 97.45C158.97 98.386 158.819 99.2093 158.515 99.92C158.212 100.622 157.779 101.172 157.215 101.571C156.661 101.961 155.989 102.156 155.2 102.156ZM155.2 101.194C155.712 101.194 156.167 101.047 156.565 100.752C156.964 100.449 157.276 100.02 157.501 99.465C157.735 98.9017 157.852 98.23 157.852 97.45C157.852 96.67 157.735 96.0027 157.501 95.448C157.276 94.8847 156.964 94.4557 156.565 94.161C156.167 93.8663 155.712 93.719 155.2 93.719C154.68 93.719 154.217 93.8663 153.809 94.161C153.411 94.4557 153.094 94.8847 152.86 95.448C152.635 96.0027 152.522 96.67 152.522 97.45C152.522 98.23 152.635 98.9017 152.86 99.465C153.094 100.02 153.411 100.449 153.809 100.752C154.217 101.047 154.68 101.194 155.2 101.194Z" fill="#7F7A93"/>
<path d="M335.328 103.131V91.717H336.225V103.131H335.328ZM335.887 102.156C335.22 102.156 334.639 102.035 334.145 101.792C333.651 101.549 333.27 101.211 333.001 100.778C332.732 100.345 332.598 99.842 332.598 99.27H333.742C333.742 99.6253 333.824 99.9547 333.989 100.258C334.154 100.553 334.392 100.791 334.704 100.973C335.025 101.146 335.419 101.233 335.887 101.233C336.294 101.233 336.641 101.168 336.927 101.038C337.222 100.899 337.443 100.713 337.59 100.479C337.746 100.245 337.824 99.9807 337.824 99.686C337.824 99.3393 337.746 99.0577 337.59 98.841C337.443 98.6157 337.239 98.4337 336.979 98.295C336.719 98.1477 336.42 98.022 336.082 97.918C335.744 97.8053 335.389 97.6883 335.016 97.567C334.288 97.3243 333.755 97.021 333.417 96.657C333.079 96.293 332.91 95.8207 332.91 95.24C332.91 94.746 333.023 94.3127 333.248 93.94C333.482 93.5673 333.811 93.277 334.236 93.069C334.669 92.8523 335.181 92.744 335.77 92.744C336.351 92.744 336.853 92.8523 337.278 93.069C337.711 93.2857 338.049 93.5847 338.292 93.966C338.535 94.3387 338.656 94.772 338.656 95.266H337.512C337.512 95.0147 337.447 94.7677 337.317 94.525C337.187 94.2823 336.988 94.083 336.719 93.927C336.459 93.7623 336.13 93.68 335.731 93.68C335.402 93.6713 335.107 93.7277 334.847 93.849C334.596 93.9617 334.396 94.1263 334.249 94.343C334.11 94.5597 334.041 94.824 334.041 95.136C334.041 95.4307 334.102 95.669 334.223 95.851C334.353 96.033 334.535 96.189 334.769 96.319C335.012 96.4403 335.293 96.553 335.614 96.657C335.935 96.761 336.29 96.878 336.68 97.008C337.122 97.1553 337.512 97.3373 337.85 97.554C338.197 97.762 338.465 98.0307 338.656 98.36C338.855 98.6893 338.955 99.1097 338.955 99.621C338.955 100.054 338.838 100.466 338.604 100.856C338.379 101.237 338.041 101.549 337.59 101.792C337.139 102.035 336.572 102.156 335.887 102.156ZM343.584 102.156C342.968 102.156 342.431 102.043 341.972 101.818C341.521 101.593 341.166 101.289 340.906 100.908C340.646 100.527 340.481 100.089 340.412 99.595H341.478C341.582 100.08 341.816 100.475 342.18 100.778C342.552 101.073 343.025 101.22 343.597 101.22C344.03 101.22 344.398 101.12 344.702 100.921C345.014 100.722 345.252 100.449 345.417 100.102C345.581 99.7553 345.664 99.3697 345.664 98.945C345.664 98.503 345.581 98.1173 345.417 97.788C345.252 97.4587 345.018 97.1987 344.715 97.008C344.411 96.8173 344.056 96.722 343.649 96.722C343.155 96.722 342.734 96.8303 342.388 97.047C342.041 97.255 341.785 97.5237 341.621 97.853H340.555L341.309 92.9H346.119V93.849H342.154L341.647 96.644C341.863 96.4013 342.149 96.202 342.505 96.046C342.869 95.8813 343.289 95.799 343.766 95.799C344.216 95.799 344.619 95.8813 344.975 96.046C345.339 96.202 345.651 96.423 345.911 96.709C346.171 96.9863 346.37 97.3157 346.509 97.697C346.647 98.0783 346.717 98.49 346.717 98.932C346.717 99.374 346.647 99.79 346.509 100.18C346.37 100.561 346.166 100.904 345.898 101.207C345.629 101.502 345.3 101.736 344.91 101.909C344.528 102.074 344.086 102.156 343.584 102.156ZM347.566 103.599L348.32 100.726H349.451L348.32 103.599H347.566ZM353.905 102.156C353.29 102.156 352.752 102.043 352.293 101.818C351.842 101.593 351.487 101.289 351.227 100.908C350.967 100.527 350.802 100.089 350.733 99.595H351.799C351.903 100.08 352.137 100.475 352.501 100.778C352.874 101.073 353.346 101.22 353.918 101.22C354.351 101.22 354.72 101.12 355.023 100.921C355.335 100.722 355.573 100.449 355.738 100.102C355.903 99.7553 355.985 99.3697 355.985 98.945C355.985 98.503 355.903 98.1173 355.738 97.788C355.573 97.4587 355.339 97.1987 355.036 97.008C354.733 96.8173 354.377 96.722 353.97 96.722C353.476 96.722 353.056 96.8303 352.709 97.047C352.362 97.255 352.107 97.5237 351.942 97.853H350.876L351.63 92.9H356.44V93.849H352.475L351.968 96.644C352.185 96.4013 352.471 96.202 352.826 96.046C353.19 95.8813 353.61 95.799 354.087 95.799C354.538 95.799 354.941 95.8813 355.296 96.046C355.66 96.202 355.972 96.423 356.232 96.709C356.492 96.9863 356.691 97.3157 356.83 97.697C356.969 98.0783 357.038 98.49 357.038 98.932C357.038 99.374 356.969 99.79 356.83 100.18C356.691 100.561 356.488 100.904 356.219 101.207C355.95 101.502 355.621 101.736 355.231 101.909C354.85 102.074 354.408 102.156 353.905 102.156ZM362.048 102.156C361.389 102.156 360.834 102.035 360.384 101.792C359.933 101.541 359.573 101.211 359.305 100.804C359.036 100.388 358.841 99.92 358.72 99.4C358.598 98.88 358.538 98.3513 358.538 97.814C358.538 96.8087 358.672 95.929 358.941 95.175C359.218 94.4123 359.617 93.8187 360.137 93.394C360.665 92.9607 361.298 92.744 362.035 92.744C362.607 92.744 363.096 92.8567 363.504 93.082C363.92 93.2987 364.249 93.5933 364.492 93.966C364.734 94.3387 364.882 94.7503 364.934 95.201H363.92C363.833 94.7157 363.621 94.343 363.283 94.083C362.953 93.823 362.533 93.693 362.022 93.693C361.571 93.693 361.164 93.836 360.8 94.122C360.436 94.3993 360.145 94.8283 359.929 95.409C359.721 95.981 359.604 96.7133 359.578 97.606C359.578 97.6147 359.578 97.6277 359.578 97.645C359.578 97.6623 359.578 97.6797 359.578 97.697C359.708 97.4283 359.894 97.177 360.137 96.943C360.388 96.709 360.687 96.5227 361.034 96.384C361.38 96.2453 361.766 96.176 362.191 96.176C362.702 96.176 363.183 96.2973 363.634 96.54C364.084 96.7827 364.448 97.125 364.726 97.567C365.003 98.0003 365.142 98.5117 365.142 99.101C365.142 99.6123 365.016 100.102 364.765 100.57C364.513 101.038 364.154 101.419 363.686 101.714C363.226 102.009 362.68 102.156 362.048 102.156ZM361.97 101.194C362.36 101.194 362.711 101.107 363.023 100.934C363.335 100.752 363.582 100.509 363.764 100.206C363.946 99.894 364.037 99.543 364.037 99.153C364.037 98.7457 363.946 98.3903 363.764 98.087C363.582 97.7837 363.335 97.5497 363.023 97.385C362.711 97.2117 362.36 97.125 361.97 97.125C361.571 97.125 361.211 97.216 360.891 97.398C360.57 97.58 360.319 97.827 360.137 98.139C359.955 98.4423 359.864 98.7847 359.864 99.166C359.864 99.556 359.955 99.907 360.137 100.219C360.319 100.522 360.57 100.761 360.891 100.934C361.211 101.107 361.571 101.194 361.97 101.194ZM369.795 102.156C369.214 102.156 368.685 102.052 368.209 101.844C367.741 101.627 367.368 101.307 367.091 100.882C366.813 100.457 366.666 99.9287 366.649 99.296H367.754C367.762 99.6427 367.845 99.9633 368.001 100.258C368.165 100.544 368.399 100.774 368.703 100.947C369.006 101.12 369.37 101.207 369.795 101.207C370.219 101.207 370.575 101.125 370.861 100.96C371.147 100.795 371.363 100.579 371.511 100.31C371.658 100.033 371.732 99.725 371.732 99.387C371.732 98.971 371.628 98.633 371.42 98.373C371.22 98.1043 370.947 97.905 370.601 97.775C370.263 97.645 369.89 97.58 369.483 97.58H368.807V96.657H369.483C370.081 96.657 370.549 96.5227 370.887 96.254C371.233 95.9767 371.407 95.591 371.407 95.097C371.407 94.6983 371.272 94.3647 371.004 94.096C370.735 93.8273 370.332 93.693 369.795 93.693C369.275 93.693 368.863 93.8403 368.56 94.135C368.256 94.4297 368.083 94.8067 368.04 95.266H366.935C366.961 94.772 367.095 94.3343 367.338 93.953C367.58 93.5717 367.91 93.277 368.326 93.069C368.75 92.8523 369.24 92.744 369.795 92.744C370.393 92.744 370.891 92.848 371.29 93.056C371.688 93.264 371.992 93.5413 372.2 93.888C372.408 94.2347 372.512 94.616 372.512 95.032C372.512 95.344 372.451 95.6387 372.33 95.916C372.217 96.1933 372.048 96.436 371.823 96.644C371.597 96.852 371.311 96.995 370.965 97.073C371.32 97.1423 371.636 97.281 371.914 97.489C372.2 97.6883 372.425 97.9483 372.59 98.269C372.754 98.5897 372.837 98.9623 372.837 99.387C372.837 99.881 372.72 100.34 372.486 100.765C372.26 101.181 371.922 101.519 371.472 101.779C371.021 102.03 370.462 102.156 369.795 102.156ZM374.966 102.065C374.758 102.065 374.58 101.996 374.433 101.857C374.294 101.71 374.225 101.532 374.225 101.324C374.225 101.116 374.294 100.943 374.433 100.804C374.58 100.657 374.758 100.583 374.966 100.583C375.191 100.583 375.369 100.657 375.499 100.804C375.638 100.943 375.707 101.116 375.707 101.324C375.707 101.532 375.638 101.71 375.499 101.857C375.369 101.996 375.191 102.065 374.966 102.065ZM380.113 102.156C379.454 102.156 378.9 102.035 378.449 101.792C377.998 101.541 377.639 101.211 377.37 100.804C377.101 100.388 376.906 99.92 376.785 99.4C376.664 98.88 376.603 98.3513 376.603 97.814C376.603 96.8087 376.737 95.929 377.006 95.175C377.283 94.4123 377.682 93.8187 378.202 93.394C378.731 92.9607 379.363 92.744 380.1 92.744C380.672 92.744 381.162 92.8567 381.569 93.082C381.985 93.2987 382.314 93.5933 382.557 93.966C382.8 94.3387 382.947 94.7503 382.999 95.201H381.985C381.898 94.7157 381.686 94.343 381.348 94.083C381.019 93.823 380.598 93.693 380.087 93.693C379.636 93.693 379.229 93.836 378.865 94.122C378.501 94.3993 378.211 94.8283 377.994 95.409C377.786 95.981 377.669 96.7133 377.643 97.606C377.643 97.6147 377.643 97.6277 377.643 97.645C377.643 97.6623 377.643 97.6797 377.643 97.697C377.773 97.4283 377.959 97.177 378.202 96.943C378.453 96.709 378.752 96.5227 379.099 96.384C379.446 96.2453 379.831 96.176 380.256 96.176C380.767 96.176 381.248 96.2973 381.699 96.54C382.15 96.7827 382.514 97.125 382.791 97.567C383.068 98.0003 383.207 98.5117 383.207 99.101C383.207 99.6123 383.081 100.102 382.83 100.57C382.579 101.038 382.219 101.419 381.751 101.714C381.292 102.009 380.746 102.156 380.113 102.156ZM380.035 101.194C380.425 101.194 380.776 101.107 381.088 100.934C381.4 100.752 381.647 100.509 381.829 100.206C382.011 99.894 382.102 99.543 382.102 99.153C382.102 98.7457 382.011 98.3903 381.829 98.087C381.647 97.7837 381.4 97.5497 381.088 97.385C380.776 97.2117 380.425 97.125 380.035 97.125C379.636 97.125 379.277 97.216 378.956 97.398C378.635 97.58 378.384 97.827 378.202 98.139C378.02 98.4423 377.929 98.7847 377.929 99.166C377.929 99.556 378.02 99.907 378.202 100.219C378.384 100.522 378.635 100.761 378.956 100.934C379.277 101.107 379.636 101.194 380.035 101.194ZM388.276 102.156C387.617 102.156 387.063 102.035 386.612 101.792C386.161 101.541 385.802 101.211 385.533 100.804C385.264 100.388 385.069 99.92 384.948 99.4C384.827 98.88 384.766 98.3513 384.766 97.814C384.766 96.8087 384.9 95.929 385.169 95.175C385.446 94.4123 385.845 93.8187 386.365 93.394C386.894 92.9607 387.526 92.744 388.263 92.744C388.835 92.744 389.325 92.8567 389.732 93.082C390.148 93.2987 390.477 93.5933 390.72 93.966C390.963 94.3387 391.11 94.7503 391.162 95.201H390.148C390.061 94.7157 389.849 94.343 389.511 94.083C389.182 93.823 388.761 93.693 388.25 93.693C387.799 93.693 387.392 93.836 387.028 94.122C386.664 94.3993 386.374 94.8283 386.157 95.409C385.949 95.981 385.832 96.7133 385.806 97.606C385.806 97.6147 385.806 97.6277 385.806 97.645C385.806 97.6623 385.806 97.6797 385.806 97.697C385.936 97.4283 386.122 97.177 386.365 96.943C386.616 96.709 386.915 96.5227 387.262 96.384C387.609 96.2453 387.994 96.176 388.419 96.176C388.93 96.176 389.411 96.2973 389.862 96.54C390.313 96.7827 390.677 97.125 390.954 97.567C391.231 98.0003 391.37 98.5117 391.37 99.101C391.37 99.6123 391.244 100.102 390.993 100.57C390.742 101.038 390.382 101.419 389.914 101.714C389.455 102.009 388.909 102.156 388.276 102.156ZM388.198 101.194C388.588 101.194 388.939 101.107 389.251 100.934C389.563 100.752 389.81 100.509 389.992 100.206C390.174 99.894 390.265 99.543 390.265 99.153C390.265 98.7457 390.174 98.3903 389.992 98.087C389.81 97.7837 389.563 97.5497 389.251 97.385C388.939 97.2117 388.588 97.125 388.198 97.125C387.799 97.125 387.44 97.216 387.119 97.398C386.798 97.58 386.547 97.827 386.365 98.139C386.183 98.4423 386.092 98.7847 386.092 99.166C386.092 99.556 386.183 99.907 386.365 100.219C386.547 100.522 386.798 100.761 387.119 100.934C387.44 101.107 387.799 101.194 388.198 101.194Z" fill="#7F7A93"/>
<path d="M41 137C41 132.582 44.5817 129 49 129H401C405.418 129 409 132.582 409 137V204C409 208.418 405.418 212 401 212H49C44.5817 212 41 208.418 41 204V137Z" fill="#2B283C"/>
<path d="M57 159.5C57 152.873 62.3726 147.5 69 147.5H131C137.627 147.5 143 152.873 143 159.5V159.5C143 166.127 137.627 171.5 131 171.5H69C62.3726 171.5 57 166.127 57 159.5V159.5Z" fill="#3A3650"/>
<path d="M76.9925 158.5H76.8346C76.1786 158.5 75.5229 158.498 74.8669 158.501C73.737 158.504 72.828 159.28 72.7182 160.331C72.6135 161.332 73.3696 162.262 74.4556 162.462C74.5989 162.489 74.748 162.497 74.8945 162.497C75.5413 162.501 76.1885 162.499 76.8354 162.499H76.996C76.996 162.723 76.9984 162.938 76.9952 163.153C76.9925 163.328 77.003 163.505 76.9725 163.676C76.8868 164.156 76.4533 164.493 75.9296 164.498C75.4656 164.502 75.0016 164.499 74.5375 164.499C71.9364 164.499 69.3352 164.5 66.734 164.498C65.9072 164.498 65.2223 163.988 65.0421 163.242C65.0158 163.133 65.0022 163.019 65.0022 162.908C65 160.638 64.9987 158.368 65.0019 156.098C65.003 155.211 65.7631 154.503 66.7139 154.502C69.3464 154.499 71.9787 154.5 74.6112 154.501C74.9555 154.501 75.2195 154.705 75.2755 155.007C75.3263 155.282 75.1502 155.569 74.8613 155.66C74.7665 155.69 74.6604 155.699 74.5595 155.699C71.9763 155.701 69.3927 155.701 66.8095 155.701C66.7474 155.701 66.6834 155.699 66.6231 155.711C66.413 155.754 66.2702 155.938 66.2877 156.134C66.3053 156.33 66.4802 156.487 66.6952 156.499C66.7442 156.502 66.7932 156.5 66.8424 156.5C69.8541 156.5 72.8657 156.5 75.8774 156.5C76.4763 156.5 76.9521 156.878 76.988 157.409C77.0121 157.765 76.9925 158.125 76.9925 158.5Z" fill="#AAA4C2"/>
<path d="M76.9853 161.698C76.2431 161.698 75.5119 161.71 74.7812 161.694C74.1126 161.68 73.5723 161.137 73.5693 160.507C73.5664 159.876 74.0971 159.324 74.7657 159.307C75.4961 159.288 76.2276 159.302 76.9585 159.302C76.9663 159.302 76.9743 159.308 76.9853 159.312V161.698Z" fill="#AAA4C2"/>
<path d="M85.42 163.656C84.6313 163.656 83.951 163.461 83.379 163.071C82.8157 162.672 82.3823 162.122 82.079 161.42C81.7757 160.709 81.624 159.886 81.624 158.95C81.624 158.014 81.7757 157.195 82.079 156.493C82.3823 155.782 82.8157 155.232 83.379 154.842C83.951 154.443 84.6313 154.244 85.42 154.244C86.2087 154.244 86.8803 154.443 87.435 154.842C87.9983 155.232 88.4317 155.782 88.735 156.493C89.0383 157.195 89.19 158.014 89.19 158.95C89.19 159.886 89.0383 160.709 88.735 161.42C88.4317 162.122 87.9983 162.672 87.435 163.071C86.8803 163.461 86.2087 163.656 85.42 163.656ZM85.42 162.694C85.9313 162.694 86.3863 162.547 86.785 162.252C87.1837 161.949 87.4957 161.52 87.721 160.965C87.955 160.402 88.072 159.73 88.072 158.95C88.072 158.17 87.955 157.503 87.721 156.948C87.4957 156.385 87.1837 155.956 86.785 155.661C86.3863 155.366 85.9313 155.219 85.42 155.219C84.9 155.219 84.4363 155.366 84.029 155.661C83.6303 155.956 83.314 156.385 83.08 156.948C82.8547 157.503 82.742 158.17 82.742 158.95C82.742 159.73 82.8547 160.402 83.08 160.965C83.314 161.52 83.6303 161.949 84.029 162.252C84.4363 162.547 84.9 162.694 85.42 162.694ZM90.0835 163.5L92.2935 160.198L90.0835 156.896H91.2665L93.0345 159.587L94.8025 156.896H95.9855L93.7625 160.198L95.9855 163.5H94.8025L93.0345 160.783L91.2795 163.5H90.0835ZM97.5471 163.565C97.3391 163.565 97.1614 163.496 97.0141 163.357C96.8754 163.21 96.8061 163.032 96.8061 162.824C96.8061 162.616 96.8754 162.443 97.0141 162.304C97.1614 162.157 97.3391 162.083 97.5471 162.083C97.7724 162.083 97.9501 162.157 98.0801 162.304C98.2187 162.443 98.2881 162.616 98.2881 162.824C98.2881 163.032 98.2187 163.21 98.0801 163.357C97.9501 163.496 97.7724 163.565 97.5471 163.565ZM100.15 163.565C99.9416 163.565 99.7639 163.496 99.6166 163.357C99.4779 163.21 99.4086 163.032 99.4086 162.824C99.4086 162.616 99.4779 162.443 99.6166 162.304C99.7639 162.157 99.9416 162.083 100.15 162.083C100.375 162.083 100.553 162.157 100.683 162.304C100.821 162.443 100.891 162.616 100.891 162.824C100.891 163.032 100.821 163.21 100.683 163.357C100.553 163.496 100.375 163.565 100.15 163.565ZM102.752 163.565C102.544 163.565 102.366 163.496 102.219 163.357C102.08 163.21 102.011 163.032 102.011 162.824C102.011 162.616 102.08 162.443 102.219 162.304C102.366 162.157 102.544 162.083 102.752 162.083C102.977 162.083 103.155 162.157 103.285 162.304C103.424 162.443 103.493 162.616 103.493 162.824C103.493 163.032 103.424 163.21 103.285 163.357C103.155 163.496 102.977 163.565 102.752 163.565ZM104.887 163.5V162.733C105.511 162.248 106.1 161.758 106.655 161.264C107.218 160.77 107.716 160.28 108.15 159.795C108.583 159.301 108.925 158.82 109.177 158.352C109.428 157.884 109.554 157.433 109.554 157C109.554 156.679 109.497 156.385 109.385 156.116C109.272 155.839 109.09 155.613 108.839 155.44C108.596 155.267 108.262 155.18 107.838 155.18C107.43 155.18 107.088 155.271 106.811 155.453C106.542 155.626 106.338 155.86 106.2 156.155C106.07 156.441 106.005 156.757 106.005 157.104H104.952C104.96 156.506 105.086 155.995 105.329 155.57C105.58 155.137 105.922 154.807 106.356 154.582C106.798 154.357 107.296 154.244 107.851 154.244C108.397 154.244 108.878 154.348 109.294 154.556C109.71 154.755 110.039 155.054 110.282 155.453C110.524 155.852 110.646 156.354 110.646 156.961C110.646 157.386 110.555 157.81 110.373 158.235C110.199 158.66 109.965 159.076 109.671 159.483C109.376 159.882 109.047 160.267 108.683 160.64C108.319 161.013 107.946 161.364 107.565 161.693C107.192 162.022 106.837 162.321 106.499 162.59H110.958V163.5H104.887ZM115.405 163.656C114.824 163.656 114.296 163.552 113.819 163.344C113.351 163.127 112.978 162.807 112.701 162.382C112.424 161.957 112.276 161.429 112.259 160.796H113.364C113.373 161.143 113.455 161.463 113.611 161.758C113.776 162.044 114.01 162.274 114.313 162.447C114.616 162.62 114.98 162.707 115.405 162.707C115.83 162.707 116.185 162.625 116.471 162.46C116.757 162.295 116.974 162.079 117.121 161.81C117.268 161.533 117.342 161.225 117.342 160.887C117.342 160.471 117.238 160.133 117.03 159.873C116.831 159.604 116.558 159.405 116.211 159.275C115.873 159.145 115.5 159.08 115.093 159.08H114.417V158.157H115.093C115.691 158.157 116.159 158.023 116.497 157.754C116.844 157.477 117.017 157.091 117.017 156.597C117.017 156.198 116.883 155.865 116.614 155.596C116.345 155.327 115.942 155.193 115.405 155.193C114.885 155.193 114.473 155.34 114.17 155.635C113.867 155.93 113.693 156.307 113.65 156.766H112.545C112.571 156.272 112.705 155.834 112.948 155.453C113.191 155.072 113.52 154.777 113.936 154.569C114.361 154.352 114.85 154.244 115.405 154.244C116.003 154.244 116.501 154.348 116.9 154.556C117.299 154.764 117.602 155.041 117.81 155.388C118.018 155.735 118.122 156.116 118.122 156.532C118.122 156.844 118.061 157.139 117.94 157.416C117.827 157.693 117.658 157.936 117.433 158.144C117.208 158.352 116.922 158.495 116.575 158.573C116.93 158.642 117.247 158.781 117.524 158.989C117.81 159.188 118.035 159.448 118.2 159.769C118.365 160.09 118.447 160.462 118.447 160.887C118.447 161.381 118.33 161.84 118.096 162.265C117.871 162.681 117.533 163.019 117.082 163.279C116.631 163.53 116.072 163.656 115.405 163.656ZM123.137 163.656C122.522 163.656 121.967 163.513 121.473 163.227C120.988 162.932 120.607 162.525 120.329 162.005C120.052 161.485 119.913 160.883 119.913 160.198C119.913 159.505 120.052 158.902 120.329 158.391C120.607 157.871 120.988 157.468 121.473 157.182C121.967 156.887 122.526 156.74 123.15 156.74C123.922 156.74 124.567 156.944 125.087 157.351C125.607 157.758 125.941 158.3 126.088 158.976H124.97C124.875 158.569 124.658 158.252 124.32 158.027C123.982 157.793 123.584 157.676 123.124 157.676C122.752 157.676 122.405 157.771 122.084 157.962C121.764 158.153 121.508 158.434 121.317 158.807C121.127 159.18 121.031 159.643 121.031 160.198C121.031 160.614 121.088 160.982 121.2 161.303C121.313 161.615 121.465 161.879 121.655 162.096C121.846 162.304 122.067 162.464 122.318 162.577C122.578 162.681 122.847 162.733 123.124 162.733C123.436 162.733 123.718 162.681 123.969 162.577C124.221 162.473 124.433 162.326 124.606 162.135C124.788 161.936 124.91 161.697 124.97 161.42H126.088C125.95 162.087 125.616 162.629 125.087 163.045C124.559 163.452 123.909 163.656 123.137 163.656ZM130.681 163.656C130.091 163.656 129.563 163.548 129.095 163.331C128.627 163.106 128.254 162.798 127.977 162.408C127.708 162.009 127.574 161.55 127.574 161.03C127.574 160.657 127.643 160.311 127.782 159.99C127.929 159.669 128.133 159.392 128.393 159.158C128.661 158.915 128.969 158.746 129.316 158.651C128.83 158.478 128.453 158.209 128.185 157.845C127.925 157.481 127.795 157.087 127.795 156.662C127.795 156.211 127.912 155.804 128.146 155.44C128.38 155.076 128.709 154.786 129.134 154.569C129.567 154.352 130.083 154.244 130.681 154.244C131.279 154.244 131.79 154.352 132.215 154.569C132.648 154.786 132.977 155.076 133.203 155.44C133.437 155.804 133.554 156.211 133.554 156.662C133.554 157.087 133.419 157.481 133.151 157.845C132.891 158.209 132.522 158.478 132.046 158.651C132.401 158.746 132.704 158.915 132.956 159.158C133.216 159.392 133.419 159.669 133.567 159.99C133.714 160.311 133.788 160.657 133.788 161.03C133.788 161.55 133.649 162.009 133.372 162.408C133.103 162.798 132.735 163.106 132.267 163.331C131.799 163.548 131.27 163.656 130.681 163.656ZM130.681 162.694C131.357 162.694 131.859 162.538 132.189 162.226C132.527 161.905 132.696 161.485 132.696 160.965C132.696 160.376 132.509 159.929 132.137 159.626C131.773 159.323 131.287 159.171 130.681 159.171C130.065 159.171 129.576 159.323 129.212 159.626C128.848 159.929 128.666 160.376 128.666 160.965C128.666 161.485 128.83 161.905 129.16 162.226C129.498 162.538 130.005 162.694 130.681 162.694ZM130.681 158.261C131.218 158.261 131.647 158.118 131.968 157.832C132.288 157.546 132.449 157.178 132.449 156.727C132.449 156.216 132.288 155.83 131.968 155.57C131.656 155.31 131.227 155.18 130.681 155.18C130.135 155.18 129.701 155.31 129.381 155.57C129.069 155.83 128.913 156.216 128.913 156.727C128.913 157.178 129.069 157.546 129.381 157.832C129.701 158.118 130.135 158.261 130.681 158.261Z" fill="#AAA4C2"/>
<path d="M276.535 168V153.912L273.775 154.536V152.784L277.423 151.2H278.983V168H276.535ZM282.76 168.12C282.296 168.12 281.912 167.976 281.608 167.688C281.32 167.384 281.176 167.024 281.176 166.608C281.176 166.176 281.32 165.816 281.608 165.528C281.912 165.224 282.296 165.072 282.76 165.072C283.224 165.072 283.6 165.224 283.888 165.528C284.176 165.816 284.32 166.176 284.32 166.608C284.32 167.024 284.176 167.384 283.888 167.688C283.6 167.976 283.224 168.12 282.76 168.12ZM292.19 168.288C291.07 168.288 290.062 168.088 289.166 167.688C288.286 167.272 287.582 166.696 287.054 165.96C286.526 165.224 286.262 164.368 286.262 163.392C286.262 162.704 286.39 162.072 286.646 161.496C286.918 160.904 287.286 160.392 287.75 159.96C288.23 159.528 288.79 159.216 289.43 159.024C288.566 158.688 287.894 158.192 287.414 157.536C286.934 156.88 286.694 156.16 286.694 155.376C286.694 154.56 286.91 153.816 287.342 153.144C287.774 152.472 288.398 151.936 289.214 151.536C290.046 151.12 291.038 150.912 292.19 150.912C293.358 150.912 294.35 151.12 295.166 151.536C295.998 151.936 296.63 152.472 297.062 153.144C297.494 153.816 297.71 154.56 297.71 155.376C297.71 156.16 297.462 156.888 296.966 157.56C296.486 158.216 295.822 158.704 294.974 159.024C295.63 159.216 296.19 159.528 296.654 159.96C297.118 160.392 297.478 160.904 297.734 161.496C298.006 162.072 298.142 162.704 298.142 163.392C298.142 164.368 297.878 165.224 297.35 165.96C296.822 166.696 296.11 167.272 295.214 167.688C294.334 168.088 293.326 168.288 292.19 168.288ZM292.19 166.224C293.39 166.224 294.278 165.952 294.854 165.408C295.446 164.848 295.742 164.12 295.742 163.224C295.742 162.216 295.422 161.448 294.782 160.92C294.142 160.392 293.278 160.128 292.19 160.128C291.118 160.128 290.254 160.392 289.598 160.92C288.958 161.448 288.638 162.216 288.638 163.224C288.638 164.12 288.934 164.848 289.526 165.408C290.134 165.952 291.022 166.224 292.19 166.224ZM292.19 158.232C293.15 158.232 293.91 157.984 294.47 157.488C295.03 156.992 295.31 156.36 295.31 155.592C295.31 154.712 295.03 154.048 294.47 153.6C293.926 153.152 293.166 152.928 292.19 152.928C291.246 152.928 290.494 153.152 289.934 153.6C289.39 154.048 289.118 154.712 289.118 155.592C289.118 156.36 289.39 156.992 289.934 157.488C290.494 157.984 291.246 158.232 292.19 158.232ZM307.003 168.288C305.771 168.288 304.731 168.056 303.883 167.592C303.035 167.128 302.355 166.512 301.843 165.744C301.331 164.976 300.955 164.112 300.715 163.152C300.491 162.192 300.379 161.216 300.379 160.224C300.379 158.368 300.635 156.744 301.147 155.352C301.675 153.96 302.427 152.872 303.403 152.088C304.395 151.304 305.579 150.912 306.955 150.912C308.043 150.912 308.971 151.128 309.739 151.56C310.523 151.992 311.139 152.56 311.587 153.264C312.035 153.968 312.299 154.752 312.379 155.616H310.147C310.003 154.768 309.651 154.112 309.091 153.648C308.531 153.184 307.811 152.952 306.931 152.952C306.147 152.952 305.443 153.2 304.819 153.696C304.195 154.176 303.699 154.912 303.331 155.904C302.963 156.88 302.755 158.136 302.707 159.672C302.707 159.688 302.707 159.712 302.707 159.744C302.707 159.76 302.707 159.784 302.707 159.816C302.963 159.336 303.315 158.904 303.763 158.52C304.211 158.12 304.739 157.808 305.347 157.584C305.955 157.344 306.627 157.224 307.363 157.224C308.307 157.224 309.195 157.448 310.027 157.896C310.859 158.328 311.531 158.952 312.043 159.768C312.571 160.584 312.835 161.536 312.835 162.624C312.835 163.6 312.595 164.52 312.115 165.384C311.651 166.248 310.979 166.952 310.099 167.496C309.219 168.024 308.187 168.288 307.003 168.288ZM306.835 166.2C307.539 166.2 308.163 166.048 308.707 165.744C309.251 165.44 309.675 165.032 309.979 164.52C310.299 163.992 310.459 163.392 310.459 162.72C310.459 162.032 310.299 161.432 309.979 160.92C309.675 160.392 309.251 159.984 308.707 159.696C308.163 159.408 307.539 159.264 306.835 159.264C306.147 159.264 305.523 159.424 304.963 159.744C304.419 160.064 303.987 160.488 303.667 161.016C303.347 161.528 303.187 162.104 303.187 162.744C303.187 163.4 303.347 163.992 303.667 164.52C303.987 165.032 304.419 165.44 304.963 165.744C305.523 166.048 306.147 166.2 306.835 166.2ZM314.692 168V166.272C315.78 165.408 316.82 164.536 317.812 163.656C318.82 162.776 319.716 161.904 320.5 161.04C321.284 160.16 321.9 159.304 322.348 158.472C322.796 157.624 323.02 156.816 323.02 156.048C323.02 155.504 322.924 155 322.732 154.536C322.556 154.072 322.26 153.696 321.844 153.408C321.428 153.104 320.868 152.952 320.164 152.952C319.492 152.952 318.924 153.104 318.46 153.408C317.996 153.712 317.652 154.12 317.428 154.632C317.204 155.128 317.092 155.68 317.092 156.288H314.764C314.796 155.136 315.044 154.16 315.508 153.36C315.988 152.56 316.636 151.952 317.452 151.536C318.268 151.12 319.188 150.912 320.212 150.912C321.268 150.912 322.188 151.112 322.972 151.512C323.756 151.896 324.356 152.464 324.772 153.216C325.204 153.952 325.42 154.856 325.42 155.928C325.42 156.696 325.268 157.464 324.964 158.232C324.676 158.984 324.268 159.72 323.74 160.44C323.228 161.16 322.652 161.856 322.012 162.528C321.372 163.184 320.716 163.808 320.044 164.4C319.388 164.992 318.756 165.528 318.148 166.008H325.948V168H314.692ZM334.066 168.288C332.898 168.288 331.882 168.072 331.018 167.64C330.154 167.208 329.474 166.624 328.978 165.888C328.482 165.152 328.178 164.32 328.066 163.392H330.394C330.57 164.24 330.986 164.928 331.642 165.456C332.298 165.984 333.114 166.248 334.09 166.248C334.826 166.248 335.458 166.072 335.986 165.72C336.514 165.368 336.922 164.896 337.21 164.304C337.514 163.696 337.666 163.032 337.666 162.312C337.666 161.528 337.514 160.848 337.21 160.272C336.906 159.696 336.49 159.248 335.962 158.928C335.45 158.608 334.85 158.448 334.162 158.448C333.298 158.448 332.562 158.648 331.954 159.048C331.346 159.432 330.906 159.936 330.634 160.56H328.354L329.794 151.2H338.77V153.288H331.618L330.706 157.968C331.09 157.52 331.602 157.16 332.242 156.888C332.898 156.6 333.642 156.456 334.474 156.456C335.338 156.456 336.106 156.608 336.778 156.912C337.45 157.216 338.026 157.632 338.506 158.16C338.986 158.688 339.346 159.304 339.586 160.008C339.842 160.712 339.97 161.472 339.97 162.288C339.97 163.12 339.834 163.904 339.562 164.64C339.306 165.36 338.914 166 338.386 166.56C337.874 167.104 337.258 167.528 336.538 167.832C335.818 168.136 334.994 168.288 334.066 168.288ZM347.872 168.288C346.784 168.288 345.8 168.096 344.92 167.712C344.04 167.312 343.336 166.72 342.808 165.936C342.296 165.136 342.024 164.136 341.992 162.936H344.368C344.384 163.544 344.528 164.096 344.8 164.592C345.088 165.088 345.488 165.488 346 165.792C346.512 166.08 347.136 166.224 347.872 166.224C348.576 166.224 349.168 166.088 349.648 165.816C350.144 165.544 350.52 165.176 350.776 164.712C351.032 164.248 351.16 163.728 351.16 163.152C351.16 162.432 350.984 161.848 350.632 161.4C350.296 160.936 349.832 160.592 349.24 160.368C348.648 160.128 348 160.008 347.296 160.008H346.048V158.016H347.296C348.288 158.016 349.072 157.784 349.648 157.32C350.24 156.856 350.536 156.208 350.536 155.376C350.536 154.672 350.304 154.096 349.84 153.648C349.392 153.2 348.728 152.976 347.848 152.976C346.984 152.976 346.296 153.232 345.784 153.744C345.272 154.256 344.976 154.904 344.896 155.688H342.52C342.568 154.744 342.816 153.912 343.264 153.192C343.712 152.456 344.328 151.896 345.112 151.512C345.912 151.112 346.832 150.912 347.872 150.912C348.976 150.912 349.904 151.112 350.656 151.512C351.408 151.896 351.976 152.416 352.36 153.072C352.744 153.728 352.936 154.44 352.936 155.208C352.936 155.8 352.824 156.352 352.6 156.864C352.392 157.36 352.08 157.792 351.664 158.16C351.264 158.528 350.768 158.784 350.176 158.928C350.832 159.056 351.408 159.312 351.904 159.696C352.416 160.064 352.816 160.544 353.104 161.136C353.392 161.728 353.536 162.408 353.536 163.176C353.536 164.088 353.32 164.936 352.888 165.72C352.456 166.488 351.816 167.112 350.968 167.592C350.136 168.056 349.104 168.288 347.872 168.288ZM361.203 168.288C360.099 168.288 359.163 168.072 358.395 167.64C357.627 167.208 357.019 166.64 356.571 165.936C356.139 165.216 355.875 164.432 355.779 163.584H358.011C358.155 164.432 358.507 165.088 359.067 165.552C359.643 166.016 360.363 166.248 361.227 166.248C362.027 166.248 362.731 166.008 363.339 165.528C363.947 165.048 364.435 164.312 364.803 163.32C365.187 162.328 365.403 161.08 365.451 159.576C365.451 159.544 365.451 159.512 365.451 159.48C365.451 159.448 365.451 159.416 365.451 159.384C365.195 159.864 364.835 160.304 364.371 160.704C363.923 161.088 363.395 161.4 362.787 161.64C362.195 161.864 361.531 161.976 360.795 161.976C359.851 161.976 358.955 161.76 358.107 161.328C357.275 160.88 356.595 160.248 356.067 159.432C355.555 158.616 355.299 157.664 355.299 156.576C355.299 155.6 355.531 154.68 355.995 153.816C356.475 152.952 357.155 152.256 358.035 151.728C358.915 151.184 359.947 150.912 361.131 150.912C362.379 150.912 363.419 151.144 364.251 151.608C365.099 152.072 365.779 152.688 366.291 153.456C366.803 154.224 367.171 155.088 367.395 156.048C367.635 157.008 367.755 157.984 367.755 158.976C367.755 160.816 367.499 162.44 366.987 163.848C366.475 165.24 365.723 166.328 364.731 167.112C363.755 167.896 362.579 168.288 361.203 168.288ZM361.299 159.936C362.003 159.936 362.627 159.776 363.171 159.456C363.715 159.136 364.147 158.712 364.467 158.184C364.803 157.656 364.971 157.08 364.971 156.456C364.971 155.8 364.803 155.208 364.467 154.68C364.147 154.152 363.715 153.744 363.171 153.456C362.627 153.152 362.003 153 361.299 153C360.595 153 359.971 153.152 359.427 153.456C358.883 153.76 358.451 154.168 358.131 154.68C357.827 155.192 357.675 155.792 357.675 156.48C357.675 157.168 357.827 157.776 358.131 158.304C358.451 158.816 358.883 159.216 359.427 159.504C359.987 159.792 360.611 159.936 361.299 159.936Z" fill="#F4F4F6"/>
<circle cx="385" cy="159.5" r="8" fill="#627EEA"/>
<path d="M384.999 154.614L384.934 154.837V161.298L384.999 161.363L387.998 159.59L384.999 154.614Z" fill="#E8E8E8"/>
<path d="M384.999 154.614L382 159.59L384.999 161.363V158.227V154.614Z" fill="white"/>
<path d="M384.999 161.932L384.962 161.977V164.278L384.999 164.386L388 160.16L384.999 161.932Z" fill="#E8E8E8"/>
<path d="M384.999 164.386V161.932L382 160.16L384.999 164.386Z" fill="white"/>
<path d="M384.999 161.363L387.998 159.59L384.999 158.227V161.363Z" fill="#C4C4C4"/>
<path d="M382 159.59L384.999 161.363V158.227L382 159.59Z" fill="#E8E8E8"/>
<path d="M57.975 193V183.9H61.173C61.8143 183.9 62.343 184.004 62.759 184.212C63.1837 184.411 63.5 184.689 63.708 185.044C63.916 185.391 64.02 185.781 64.02 186.214C64.02 186.682 63.916 187.072 63.708 187.384C63.5087 187.696 63.2443 187.934 62.915 188.099C62.5943 188.264 62.252 188.363 61.888 188.398L62.07 188.268C62.46 188.277 62.8197 188.381 63.149 188.58C63.4783 188.779 63.7383 189.048 63.929 189.386C64.1283 189.724 64.228 190.101 64.228 190.517C64.228 190.976 64.1153 191.397 63.89 191.778C63.6647 192.151 63.331 192.45 62.889 192.675C62.4557 192.892 61.9183 193 61.277 193H57.975ZM59.067 192.09H61.16C61.7753 192.09 62.252 191.947 62.59 191.661C62.9367 191.366 63.11 190.959 63.11 190.439C63.11 189.928 62.9323 189.52 62.577 189.217C62.2303 188.905 61.7493 188.749 61.134 188.749H59.067V192.09ZM59.067 187.878H61.095C61.6843 187.878 62.1307 187.739 62.434 187.462C62.746 187.185 62.902 186.808 62.902 186.331C62.902 185.872 62.746 185.503 62.434 185.226C62.1307 184.949 61.6713 184.81 61.056 184.81H59.067V187.878ZM67.8877 193.156C67.359 193.156 66.917 193.065 66.5617 192.883C66.215 192.692 65.955 192.441 65.7817 192.129C65.6084 191.817 65.5217 191.479 65.5217 191.115C65.5217 190.673 65.6344 190.296 65.8597 189.984C66.0937 189.672 66.4187 189.438 66.8347 189.282C67.2594 189.117 67.7534 189.035 68.3167 189.035H70.0457C70.0457 188.619 69.985 188.272 69.8637 187.995C69.7424 187.718 69.5604 187.51 69.3177 187.371C69.0837 187.232 68.7847 187.163 68.4207 187.163C68.0134 187.163 67.658 187.267 67.3547 187.475C67.06 187.674 66.878 187.973 66.8087 188.372H65.6907C65.7427 187.913 65.8987 187.527 66.1587 187.215C66.4274 186.894 66.761 186.652 67.1597 186.487C67.5584 186.322 67.9787 186.24 68.4207 186.24C69.0274 186.24 69.53 186.353 69.9287 186.578C70.336 186.795 70.6394 187.102 70.8387 187.501C71.038 187.891 71.1377 188.35 71.1377 188.879V193H70.1627L70.0977 191.843C70.011 192.025 69.8984 192.198 69.7597 192.363C69.6297 192.519 69.4737 192.658 69.2917 192.779C69.1097 192.892 68.9017 192.983 68.6677 193.052C68.4424 193.121 68.1824 193.156 67.8877 193.156ZM68.0567 192.233C68.36 192.233 68.633 192.172 68.8757 192.051C69.1184 191.921 69.3264 191.748 69.4997 191.531C69.6817 191.306 69.816 191.059 69.9027 190.79C69.998 190.513 70.0457 190.231 70.0457 189.945V189.88H68.4077C67.9917 189.88 67.6537 189.932 67.3937 190.036C67.1337 190.131 66.9474 190.27 66.8347 190.452C66.722 190.634 66.6657 190.838 66.6657 191.063C66.6657 191.297 66.7177 191.505 66.8217 191.687C66.9344 191.86 67.0947 191.995 67.3027 192.09C67.5107 192.185 67.762 192.233 68.0567 192.233ZM72.8524 193V183.64H73.9444V193H72.8524ZM77.8916 193.156C77.3629 193.156 76.9209 193.065 76.5656 192.883C76.2189 192.692 75.9589 192.441 75.7856 192.129C75.6123 191.817 75.5256 191.479 75.5256 191.115C75.5256 190.673 75.6383 190.296 75.8636 189.984C76.0976 189.672 76.4226 189.438 76.8386 189.282C77.2633 189.117 77.7573 189.035 78.3206 189.035H80.0496C80.0496 188.619 79.9889 188.272 79.8676 187.995C79.7463 187.718 79.5643 187.51 79.3216 187.371C79.0876 187.232 78.7886 187.163 78.4246 187.163C78.0173 187.163 77.6619 187.267 77.3586 187.475C77.0639 187.674 76.8819 187.973 76.8126 188.372H75.6946C75.7466 187.913 75.9026 187.527 76.1626 187.215C76.4313 186.894 76.7649 186.652 77.1636 186.487C77.5623 186.322 77.9826 186.24 78.4246 186.24C79.0313 186.24 79.5339 186.353 79.9326 186.578C80.3399 186.795 80.6433 187.102 80.8426 187.501C81.0419 187.891 81.1416 188.35 81.1416 188.879V193H80.1666L80.1016 191.843C80.0149 192.025 79.9023 192.198 79.7636 192.363C79.6336 192.519 79.4776 192.658 79.2956 192.779C79.1136 192.892 78.9056 192.983 78.6716 193.052C78.4463 193.121 78.1863 193.156 77.8916 193.156ZM78.0606 192.233C78.3639 192.233 78.6369 192.172 78.8796 192.051C79.1223 191.921 79.3303 191.748 79.5036 191.531C79.6856 191.306 79.8199 191.059 79.9066 190.79C80.0019 190.513 80.0496 190.231 80.0496 189.945V189.88H78.4116C77.9956 189.88 77.6576 189.932 77.3976 190.036C77.1376 190.131 76.9513 190.27 76.8386 190.452C76.7259 190.634 76.6696 190.838 76.6696 191.063C76.6696 191.297 76.7216 191.505 76.8256 191.687C76.9383 191.86 77.0986 191.995 77.3066 192.09C77.5146 192.185 77.7659 192.233 78.0606 192.233ZM82.8563 193V186.396H83.8443L83.8963 187.527C84.1043 187.12 84.399 186.803 84.7803 186.578C85.1703 186.353 85.6123 186.24 86.1063 186.24C86.609 186.24 87.0466 186.34 87.4193 186.539C87.792 186.738 88.0823 187.042 88.2903 187.449C88.4983 187.856 88.6023 188.372 88.6023 188.996V193H87.5103V189.113C87.5103 188.472 87.363 187.991 87.0683 187.67C86.7823 187.341 86.3793 187.176 85.8593 187.176C85.4953 187.176 85.1703 187.263 84.8843 187.436C84.5983 187.609 84.3686 187.861 84.1953 188.19C84.0306 188.519 83.9483 188.927 83.9483 189.412V193H82.8563ZM93.2721 193.156C92.6568 193.156 92.1021 193.013 91.6081 192.727C91.1228 192.432 90.7415 192.025 90.4641 191.505C90.1868 190.985 90.0481 190.383 90.0481 189.698C90.0481 189.005 90.1868 188.402 90.4641 187.891C90.7415 187.371 91.1228 186.968 91.6081 186.682C92.1021 186.387 92.6611 186.24 93.2851 186.24C94.0565 186.24 94.7021 186.444 95.2221 186.851C95.7421 187.258 96.0758 187.8 96.2231 188.476H95.1051C95.0098 188.069 94.7931 187.752 94.4551 187.527C94.1171 187.293 93.7185 187.176 93.2591 187.176C92.8865 187.176 92.5398 187.271 92.2191 187.462C91.8985 187.653 91.6428 187.934 91.4521 188.307C91.2615 188.68 91.1661 189.143 91.1661 189.698C91.1661 190.114 91.2225 190.482 91.3351 190.803C91.4478 191.115 91.5995 191.379 91.7901 191.596C91.9808 191.804 92.2018 191.964 92.4531 192.077C92.7131 192.181 92.9818 192.233 93.2591 192.233C93.5711 192.233 93.8528 192.181 94.1041 192.077C94.3555 191.973 94.5678 191.826 94.7411 191.635C94.9231 191.436 95.0445 191.197 95.1051 190.92H96.2231C96.0845 191.587 95.7508 192.129 95.2221 192.545C94.6935 192.952 94.0435 193.156 93.2721 193.156ZM100.646 193.156C100.031 193.156 99.4849 193.013 99.0083 192.727C98.5403 192.441 98.1719 192.038 97.9033 191.518C97.6346 190.998 97.5003 190.391 97.5003 189.698C97.5003 188.996 97.6303 188.389 97.8903 187.878C98.1589 187.358 98.5316 186.955 99.0083 186.669C99.4936 186.383 100.048 186.24 100.672 186.24C101.314 186.24 101.855 186.383 102.297 186.669C102.748 186.955 103.09 187.336 103.324 187.813C103.567 188.281 103.688 188.792 103.688 189.347C103.688 189.434 103.688 189.525 103.688 189.62C103.688 189.715 103.684 189.824 103.675 189.945H98.3193V189.1H102.609C102.583 188.485 102.384 188.008 102.011 187.67C101.647 187.332 101.192 187.163 100.646 187.163C100.274 187.163 99.9269 187.25 99.6063 187.423C99.2943 187.588 99.0429 187.835 98.8523 188.164C98.6616 188.493 98.5663 188.905 98.5663 189.399V189.763C98.5663 190.309 98.6616 190.768 98.8523 191.141C99.0516 191.505 99.3073 191.778 99.6193 191.96C99.9399 192.142 100.282 192.233 100.646 192.233C101.106 192.233 101.483 192.133 101.777 191.934C102.072 191.735 102.289 191.457 102.427 191.102H103.506C103.394 191.501 103.207 191.856 102.947 192.168C102.687 192.471 102.362 192.714 101.972 192.896C101.591 193.069 101.149 193.156 100.646 193.156ZM105.552 193.065C105.344 193.065 105.166 192.996 105.019 192.857C104.88 192.71 104.811 192.532 104.811 192.324C104.811 192.116 104.88 191.943 105.019 191.804C105.166 191.657 105.344 191.583 105.552 191.583C105.777 191.583 105.955 191.657 106.085 191.804C106.224 191.943 106.293 192.116 106.293 192.324C106.293 192.532 106.224 192.71 106.085 192.857C105.955 192.996 105.777 193.065 105.552 193.065ZM105.552 187.722C105.344 187.722 105.166 187.653 105.019 187.514C104.88 187.367 104.811 187.189 104.811 186.981C104.811 186.773 104.88 186.6 105.019 186.461C105.166 186.314 105.344 186.24 105.552 186.24C105.777 186.24 105.955 186.314 106.085 186.461C106.224 186.6 106.293 186.773 106.293 186.981C106.293 187.189 106.224 187.367 106.085 187.514C105.955 187.653 105.777 187.722 105.552 187.722ZM111.294 189.581V188.658H116.442V189.581H111.294Z" fill="#7F7A93"/>
<path d="M280.237 194.885C279.769 194.434 279.336 193.897 278.937 193.273C278.538 192.658 278.218 191.964 277.975 191.193C277.741 190.422 277.624 189.581 277.624 188.671C277.624 187.761 277.741 186.92 277.975 186.149C278.218 185.378 278.538 184.68 278.937 184.056C279.336 183.432 279.769 182.899 280.237 182.457H281.355V182.561C280.826 183.081 280.363 183.662 279.964 184.303C279.574 184.944 279.266 185.633 279.041 186.37C278.824 187.098 278.716 187.865 278.716 188.671C278.716 189.477 278.824 190.248 279.041 190.985C279.266 191.713 279.578 192.398 279.977 193.039C280.376 193.68 280.835 194.261 281.355 194.781V194.885H280.237ZM282.786 189.581V188.658H287.934V189.581H282.786ZM293.29 193.156C292.501 193.156 291.821 192.961 291.249 192.571C290.686 192.172 290.252 191.622 289.949 190.92C289.646 190.209 289.494 189.386 289.494 188.45C289.494 187.514 289.646 186.695 289.949 185.993C290.252 185.282 290.686 184.732 291.249 184.342C291.821 183.943 292.501 183.744 293.29 183.744C294.079 183.744 294.75 183.943 295.305 184.342C295.868 184.732 296.302 185.282 296.605 185.993C296.908 186.695 297.06 187.514 297.06 188.45C297.06 189.386 296.908 190.209 296.605 190.92C296.302 191.622 295.868 192.172 295.305 192.571C294.75 192.961 294.079 193.156 293.29 193.156ZM293.29 192.194C293.801 192.194 294.256 192.047 294.655 191.752C295.054 191.449 295.366 191.02 295.591 190.465C295.825 189.902 295.942 189.23 295.942 188.45C295.942 187.67 295.825 187.003 295.591 186.448C295.366 185.885 295.054 185.456 294.655 185.161C294.256 184.866 293.801 184.719 293.29 184.719C292.77 184.719 292.306 184.866 291.899 185.161C291.5 185.456 291.184 185.885 290.95 186.448C290.725 187.003 290.612 187.67 290.612 188.45C290.612 189.23 290.725 189.902 290.95 190.465C291.184 191.02 291.5 191.449 291.899 191.752C292.306 192.047 292.77 192.194 293.29 192.194ZM298.46 193.065C298.252 193.065 298.074 192.996 297.927 192.857C297.788 192.71 297.719 192.532 297.719 192.324C297.719 192.116 297.788 191.943 297.927 191.804C298.074 191.657 298.252 191.583 298.46 191.583C298.685 191.583 298.863 191.657 298.993 191.804C299.132 191.943 299.201 192.116 299.201 192.324C299.201 192.532 299.132 192.71 298.993 192.857C298.863 192.996 298.685 193.065 298.46 193.065ZM303.662 193.156C302.874 193.156 302.193 192.961 301.621 192.571C301.058 192.172 300.625 191.622 300.321 190.92C300.018 190.209 299.866 189.386 299.866 188.45C299.866 187.514 300.018 186.695 300.321 185.993C300.625 185.282 301.058 184.732 301.621 184.342C302.193 183.943 302.874 183.744 303.662 183.744C304.451 183.744 305.123 183.943 305.677 184.342C306.241 184.732 306.674 185.282 306.977 185.993C307.281 186.695 307.432 187.514 307.432 188.45C307.432 189.386 307.281 190.209 306.977 190.92C306.674 191.622 306.241 192.172 305.677 192.571C305.123 192.961 304.451 193.156 303.662 193.156ZM303.662 192.194C304.174 192.194 304.629 192.047 305.027 191.752C305.426 191.449 305.738 191.02 305.963 190.465C306.197 189.902 306.314 189.23 306.314 188.45C306.314 187.67 306.197 187.003 305.963 186.448C305.738 185.885 305.426 185.456 305.027 185.161C304.629 184.866 304.174 184.719 303.662 184.719C303.142 184.719 302.679 184.866 302.271 185.161C301.873 185.456 301.556 185.885 301.322 186.448C301.097 187.003 300.984 187.67 300.984 188.45C300.984 189.23 301.097 189.902 301.322 190.465C301.556 191.02 301.873 191.449 302.271 191.752C302.679 192.047 303.142 192.194 303.662 192.194ZM309.721 193L313.218 184.836H308.226V183.9H314.336V184.719L310.878 193H309.721ZM316.756 193L322.047 183.9H323.139L317.848 193H316.756ZM322.541 193.156C322.151 193.156 321.8 193.069 321.488 192.896C321.176 192.714 320.925 192.458 320.734 192.129C320.552 191.8 320.461 191.414 320.461 190.972C320.461 190.521 320.552 190.136 320.734 189.815C320.925 189.486 321.176 189.234 321.488 189.061C321.8 188.879 322.151 188.788 322.541 188.788C322.94 188.788 323.291 188.879 323.594 189.061C323.906 189.234 324.153 189.486 324.335 189.815C324.517 190.136 324.608 190.521 324.608 190.972C324.608 191.414 324.517 191.8 324.335 192.129C324.153 192.458 323.906 192.714 323.594 192.896C323.282 193.069 322.931 193.156 322.541 193.156ZM322.528 192.311C322.736 192.311 322.927 192.263 323.1 192.168C323.273 192.064 323.412 191.912 323.516 191.713C323.629 191.514 323.685 191.267 323.685 190.972C323.685 190.669 323.633 190.417 323.529 190.218C323.425 190.019 323.286 189.871 323.113 189.776C322.94 189.672 322.749 189.62 322.541 189.62C322.342 189.62 322.151 189.672 321.969 189.776C321.796 189.871 321.653 190.019 321.54 190.218C321.436 190.417 321.384 190.669 321.384 190.972C321.384 191.267 321.436 191.514 321.54 191.713C321.653 191.912 321.796 192.064 321.969 192.168C322.142 192.263 322.329 192.311 322.528 192.311ZM317.458 188.125C317.068 188.125 316.717 188.038 316.405 187.865C316.093 187.683 315.842 187.427 315.651 187.098C315.469 186.769 315.378 186.383 315.378 185.941C315.378 185.49 315.469 185.105 315.651 184.784C315.842 184.455 316.093 184.203 316.405 184.03C316.726 183.848 317.081 183.757 317.471 183.757C317.861 183.757 318.212 183.848 318.524 184.03C318.836 184.203 319.083 184.455 319.265 184.784C319.447 185.105 319.538 185.49 319.538 185.941C319.538 186.383 319.447 186.769 319.265 187.098C319.083 187.427 318.832 187.683 318.511 187.865C318.199 188.038 317.848 188.125 317.458 188.125ZM317.458 187.28C317.666 187.28 317.857 187.232 318.03 187.137C318.203 187.033 318.342 186.881 318.446 186.682C318.55 186.483 318.602 186.236 318.602 185.941C318.602 185.638 318.55 185.386 318.446 185.187C318.342 184.979 318.203 184.827 318.03 184.732C317.857 184.628 317.67 184.576 317.471 184.576C317.272 184.576 317.081 184.628 316.899 184.732C316.717 184.827 316.57 184.979 316.457 185.187C316.353 185.386 316.301 185.638 316.301 185.941C316.301 186.236 316.353 186.483 316.457 186.682C316.57 186.881 316.713 187.033 316.886 187.137C317.068 187.232 317.259 187.28 317.458 187.28ZM326.753 194.885H325.635V194.781C326.163 194.261 326.623 193.68 327.013 193.039C327.411 192.398 327.719 191.713 327.936 190.985C328.161 190.248 328.274 189.477 328.274 188.671C328.274 187.865 328.161 187.098 327.936 186.37C327.719 185.633 327.411 184.944 327.013 184.303C326.623 183.662 326.163 183.081 325.635 182.561V182.457H326.753C327.229 182.899 327.663 183.432 328.053 184.056C328.451 184.68 328.768 185.378 329.002 186.149C329.244 186.92 329.366 187.761 329.366 188.671C329.366 189.581 329.244 190.422 329.002 191.193C328.768 191.964 328.451 192.658 328.053 193.273C327.663 193.897 327.229 194.434 326.753 194.885Z" fill="#AAA4C2"/>
<path d="M337.328 194.131V182.717H338.225V194.131H337.328ZM337.887 193.156C337.22 193.156 336.639 193.035 336.145 192.792C335.651 192.549 335.27 192.211 335.001 191.778C334.732 191.345 334.598 190.842 334.598 190.27H335.742C335.742 190.625 335.824 190.955 335.989 191.258C336.154 191.553 336.392 191.791 336.704 191.973C337.025 192.146 337.419 192.233 337.887 192.233C338.294 192.233 338.641 192.168 338.927 192.038C339.222 191.899 339.443 191.713 339.59 191.479C339.746 191.245 339.824 190.981 339.824 190.686C339.824 190.339 339.746 190.058 339.59 189.841C339.443 189.616 339.239 189.434 338.979 189.295C338.719 189.148 338.42 189.022 338.082 188.918C337.744 188.805 337.389 188.688 337.016 188.567C336.288 188.324 335.755 188.021 335.417 187.657C335.079 187.293 334.91 186.821 334.91 186.24C334.91 185.746 335.023 185.313 335.248 184.94C335.482 184.567 335.811 184.277 336.236 184.069C336.669 183.852 337.181 183.744 337.77 183.744C338.351 183.744 338.853 183.852 339.278 184.069C339.711 184.286 340.049 184.585 340.292 184.966C340.535 185.339 340.656 185.772 340.656 186.266H339.512C339.512 186.015 339.447 185.768 339.317 185.525C339.187 185.282 338.988 185.083 338.719 184.927C338.459 184.762 338.13 184.68 337.731 184.68C337.402 184.671 337.107 184.728 336.847 184.849C336.596 184.962 336.396 185.126 336.249 185.343C336.11 185.56 336.041 185.824 336.041 186.136C336.041 186.431 336.102 186.669 336.223 186.851C336.353 187.033 336.535 187.189 336.769 187.319C337.012 187.44 337.293 187.553 337.614 187.657C337.935 187.761 338.29 187.878 338.68 188.008C339.122 188.155 339.512 188.337 339.85 188.554C340.197 188.762 340.465 189.031 340.656 189.36C340.855 189.689 340.955 190.11 340.955 190.621C340.955 191.054 340.838 191.466 340.604 191.856C340.379 192.237 340.041 192.549 339.59 192.792C339.139 193.035 338.572 193.156 337.887 193.156ZM345.584 193.156C344.968 193.156 344.431 193.043 343.972 192.818C343.521 192.593 343.166 192.289 342.906 191.908C342.646 191.527 342.481 191.089 342.412 190.595H343.478C343.582 191.08 343.816 191.475 344.18 191.778C344.552 192.073 345.025 192.22 345.597 192.22C346.03 192.22 346.398 192.12 346.702 191.921C347.014 191.722 347.252 191.449 347.417 191.102C347.581 190.755 347.664 190.37 347.664 189.945C347.664 189.503 347.581 189.117 347.417 188.788C347.252 188.459 347.018 188.199 346.715 188.008C346.411 187.817 346.056 187.722 345.649 187.722C345.155 187.722 344.734 187.83 344.388 188.047C344.041 188.255 343.785 188.524 343.621 188.853H342.555L343.309 183.9H348.119V184.849H344.154L343.647 187.644C343.863 187.401 344.149 187.202 344.505 187.046C344.869 186.881 345.289 186.799 345.766 186.799C346.216 186.799 346.619 186.881 346.975 187.046C347.339 187.202 347.651 187.423 347.911 187.709C348.171 187.986 348.37 188.316 348.509 188.697C348.647 189.078 348.717 189.49 348.717 189.932C348.717 190.374 348.647 190.79 348.509 191.18C348.37 191.561 348.166 191.904 347.898 192.207C347.629 192.502 347.3 192.736 346.91 192.909C346.528 193.074 346.086 193.156 345.584 193.156ZM349.566 194.599L350.32 191.726H351.451L350.32 194.599H349.566ZM355.905 193.156C355.29 193.156 354.752 193.043 354.293 192.818C353.842 192.593 353.487 192.289 353.227 191.908C352.967 191.527 352.802 191.089 352.733 190.595H353.799C353.903 191.08 354.137 191.475 354.501 191.778C354.874 192.073 355.346 192.22 355.918 192.22C356.351 192.22 356.72 192.12 357.023 191.921C357.335 191.722 357.573 191.449 357.738 191.102C357.903 190.755 357.985 190.37 357.985 189.945C357.985 189.503 357.903 189.117 357.738 188.788C357.573 188.459 357.339 188.199 357.036 188.008C356.733 187.817 356.377 187.722 355.97 187.722C355.476 187.722 355.056 187.83 354.709 188.047C354.362 188.255 354.107 188.524 353.942 188.853H352.876L353.63 183.9H358.44V184.849H354.475L353.968 187.644C354.185 187.401 354.471 187.202 354.826 187.046C355.19 186.881 355.61 186.799 356.087 186.799C356.538 186.799 356.941 186.881 357.296 187.046C357.66 187.202 357.972 187.423 358.232 187.709C358.492 187.986 358.691 188.316 358.83 188.697C358.969 189.078 359.038 189.49 359.038 189.932C359.038 190.374 358.969 190.79 358.83 191.18C358.691 191.561 358.488 191.904 358.219 192.207C357.95 192.502 357.621 192.736 357.231 192.909C356.85 193.074 356.408 193.156 355.905 193.156ZM363.84 193.156C363.224 193.156 362.687 193.043 362.228 192.818C361.777 192.593 361.422 192.289 361.162 191.908C360.902 191.527 360.737 191.089 360.668 190.595H361.734C361.838 191.08 362.072 191.475 362.436 191.778C362.808 192.073 363.281 192.22 363.853 192.22C364.286 192.22 364.654 192.12 364.958 191.921C365.27 191.722 365.508 191.449 365.673 191.102C365.837 190.755 365.92 190.37 365.92 189.945C365.92 189.503 365.837 189.117 365.673 188.788C365.508 188.459 365.274 188.199 364.971 188.008C364.667 187.817 364.312 187.722 363.905 187.722C363.411 187.722 362.99 187.83 362.644 188.047C362.297 188.255 362.041 188.524 361.877 188.853H360.811L361.565 183.9H366.375V184.849H362.41L361.903 187.644C362.119 187.401 362.405 187.202 362.761 187.046C363.125 186.881 363.545 186.799 364.022 186.799C364.472 186.799 364.875 186.881 365.231 187.046C365.595 187.202 365.907 187.423 366.167 187.709C366.427 187.986 366.626 188.316 366.765 188.697C366.903 189.078 366.973 189.49 366.973 189.932C366.973 190.374 366.903 190.79 366.765 191.18C366.626 191.561 366.422 191.904 366.154 192.207C365.885 192.502 365.556 192.736 365.166 192.909C364.784 193.074 364.342 193.156 363.84 193.156ZM371.289 193.156C370.726 193.156 370.236 193.048 369.82 192.831C369.413 192.606 369.088 192.307 368.845 191.934C368.611 191.553 368.468 191.141 368.416 190.699H369.43C369.517 191.184 369.725 191.557 370.054 191.817C370.384 192.077 370.8 192.207 371.302 192.207C371.762 192.207 372.169 192.068 372.524 191.791C372.88 191.514 373.166 191.093 373.382 190.53C373.599 189.967 373.725 189.252 373.759 188.385C373.759 188.35 373.759 188.32 373.759 188.294C373.759 188.259 373.759 188.229 373.759 188.203C373.629 188.472 373.439 188.723 373.187 188.957C372.945 189.191 372.65 189.377 372.303 189.516C371.965 189.655 371.58 189.724 371.146 189.724C370.635 189.724 370.154 189.603 369.703 189.36C369.253 189.117 368.889 188.779 368.611 188.346C368.334 187.904 368.195 187.388 368.195 186.799C368.195 186.288 368.317 185.798 368.559 185.33C368.811 184.862 369.17 184.481 369.638 184.186C370.106 183.891 370.657 183.744 371.289 183.744C371.948 183.744 372.498 183.87 372.94 184.121C373.391 184.364 373.751 184.693 374.019 185.109C374.288 185.516 374.483 185.98 374.604 186.5C374.734 187.02 374.799 187.549 374.799 188.086C374.799 189.083 374.661 189.962 374.383 190.725C374.106 191.488 373.707 192.086 373.187 192.519C372.667 192.944 372.035 193.156 371.289 193.156ZM371.367 188.775C371.766 188.775 372.126 188.684 372.446 188.502C372.767 188.32 373.018 188.073 373.2 187.761C373.391 187.449 373.486 187.107 373.486 186.734C373.486 186.335 373.391 185.984 373.2 185.681C373.018 185.378 372.767 185.139 372.446 184.966C372.126 184.793 371.766 184.706 371.367 184.706C370.977 184.706 370.622 184.797 370.301 184.979C369.989 185.152 369.742 185.391 369.56 185.694C369.387 185.997 369.3 186.348 369.3 186.747C369.3 187.154 369.387 187.51 369.56 187.813C369.742 188.116 369.989 188.355 370.301 188.528C370.622 188.693 370.977 188.775 371.367 188.775ZM376.433 193.065C376.225 193.065 376.047 192.996 375.9 192.857C375.761 192.71 375.692 192.532 375.692 192.324C375.692 192.116 375.761 191.943 375.9 191.804C376.047 191.657 376.225 191.583 376.433 191.583C376.658 191.583 376.836 191.657 376.966 191.804C377.104 191.943 377.174 192.116 377.174 192.324C377.174 192.532 377.104 192.71 376.966 192.857C376.836 192.996 376.658 193.065 376.433 193.065ZM379.188 193L382.685 184.836H377.693V183.9H383.803V184.719L380.345 193H379.188ZM388.194 193.156C387.535 193.156 386.981 193.035 386.53 192.792C386.079 192.541 385.72 192.211 385.451 191.804C385.182 191.388 384.987 190.92 384.866 190.4C384.745 189.88 384.684 189.351 384.684 188.814C384.684 187.809 384.818 186.929 385.087 186.175C385.364 185.412 385.763 184.819 386.283 184.394C386.812 183.961 387.444 183.744 388.181 183.744C388.753 183.744 389.243 183.857 389.65 184.082C390.066 184.299 390.395 184.593 390.638 184.966C390.881 185.339 391.028 185.75 391.08 186.201H390.066C389.979 185.716 389.767 185.343 389.429 185.083C389.1 184.823 388.679 184.693 388.168 184.693C387.717 184.693 387.31 184.836 386.946 185.122C386.582 185.399 386.292 185.828 386.075 186.409C385.867 186.981 385.75 187.713 385.724 188.606C385.724 188.615 385.724 188.628 385.724 188.645C385.724 188.662 385.724 188.68 385.724 188.697C385.854 188.428 386.04 188.177 386.283 187.943C386.534 187.709 386.833 187.523 387.18 187.384C387.527 187.245 387.912 187.176 388.337 187.176C388.848 187.176 389.329 187.297 389.78 187.54C390.231 187.783 390.595 188.125 390.872 188.567C391.149 189 391.288 189.512 391.288 190.101C391.288 190.612 391.162 191.102 390.911 191.57C390.66 192.038 390.3 192.419 389.832 192.714C389.373 193.009 388.827 193.156 388.194 193.156ZM388.116 192.194C388.506 192.194 388.857 192.107 389.169 191.934C389.481 191.752 389.728 191.509 389.91 191.206C390.092 190.894 390.183 190.543 390.183 190.153C390.183 189.746 390.092 189.39 389.91 189.087C389.728 188.784 389.481 188.55 389.169 188.385C388.857 188.212 388.506 188.125 388.116 188.125C387.717 188.125 387.358 188.216 387.037 188.398C386.716 188.58 386.465 188.827 386.283 189.139C386.101 189.442 386.01 189.785 386.01 190.166C386.01 190.556 386.101 190.907 386.283 191.219C386.465 191.522 386.716 191.761 387.037 191.934C387.358 192.107 387.717 192.194 388.116 192.194Z" fill="#7F7A93"/>
<path d="M209 125C209 133.837 216.163 141 225 141C233.837 141 241 133.837 241 125C241 116.163 233.837 109 225 109C216.163 109 209 116.163 209 125Z" fill="#3A3650"/>
<path d="M209 125C209 133.837 216.163 141 225 141C233.837 141 241 133.837 241 125C241 116.163 233.837 109 225 109C216.163 109 209 116.163 209 125Z" stroke="#2B283C" stroke-width="2"/>
<path d="M225 119.5L225 130.5" stroke="#7F7A93" stroke-linecap="round" stroke-linejoin="round"/>
<path d="M229.5 126L225 130.5L220.5 126" stroke="#7F7A93" stroke-linecap="round" stroke-linejoin="round"/>
</svg>
