<svg width="450" height="250" viewBox="0 0 450 250" fill="none" xmlns="http://www.w3.org/2000/svg">
<path d="M190 91.3728C190 80.3271 198.954 71.3728 210 71.3728H336C347.046 71.3728 356 80.3271 356 91.3728V91.3728C356 102.418 347.046 111.373 336 111.373H210C198.954 111.373 190 102.418 190 91.3728V91.3728Z" fill="#2B283C"/>
<path d="M226.104 83.3728L219.08 88.3747L220.379 85.4236L226.104 83.3728Z" fill="#E2761B"/>
<path d="M209.889 83.3728L216.856 88.422L215.621 85.4236L209.889 83.3728Z" fill="#E4761B"/>
<path d="M223.576 94.9675L221.706 97.7155L225.708 98.7714L226.859 95.0285L223.576 94.9675Z" fill="#E4761B"/>
<path d="M209.148 95.0285L210.292 98.7714L214.294 97.7155L212.423 94.9675L209.148 95.0285Z" fill="#E4761B"/>
<path d="M214.068 90.3234L212.953 91.9411L216.927 92.1103L216.786 88.0154L214.068 90.3234Z" fill="#E4761B"/>
<path d="M221.925 90.324L219.172 87.9686L219.08 92.1108L223.047 91.9416L221.925 90.324Z" fill="#E4761B"/>
<path d="M214.294 97.7155L216.68 96.599L214.619 95.0558L214.294 97.7155Z" fill="#E4761B"/>
<path d="M219.313 96.599L221.706 97.7155L221.374 95.0558L219.313 96.599Z" fill="#E4761B"/>
<path d="M221.706 97.7141L219.313 96.5973L219.504 98.0932L219.482 98.7226L221.706 97.7141Z" fill="#D7C1B3"/>
<path d="M214.294 97.7141L216.518 98.7226L216.504 98.0932L216.68 96.5973L214.294 97.7141Z" fill="#D7C1B3"/>
<path d="M216.553 94.0659L214.562 93.5042L215.967 92.8882L216.553 94.0659Z" fill="#233447"/>
<path d="M219.44 94.0659L220.026 92.8882L221.438 93.5042L219.44 94.0659Z" fill="#233447"/>
<path d="M214.294 97.7141L214.633 94.9666L212.424 95.0275L214.294 97.7141Z" fill="#CD6116"/>
<path d="M221.367 94.9666L221.706 97.7141L223.576 95.0275L221.367 94.9666Z" fill="#CD6116"/>
<path d="M223.047 91.9416L219.08 92.1108L219.447 94.0664L220.033 92.8887L221.445 93.5046L223.047 91.9416Z" fill="#CD6116"/>
<path d="M214.562 93.5042L215.974 92.8887L216.553 94.0659L216.927 92.1103L212.953 91.9411L214.562 93.5042Z" fill="#CD6116"/>
<path d="M212.953 91.9411L214.619 95.0546L214.562 93.5042L212.953 91.9411Z" fill="#E4751F"/>
<path d="M221.445 93.5046L221.374 95.0546L223.047 91.9416L221.445 93.5046Z" fill="#E4751F"/>
<path d="M216.927 92.1103L216.553 94.0659L217.019 96.3748L217.125 93.3358L216.927 92.1103Z" fill="#E4751F"/>
<path d="M219.08 92.1108L218.889 93.329L218.974 96.3748L219.447 94.0664L219.08 92.1108Z" fill="#E4751F"/>
<path d="M219.447 94.0664L218.974 96.3748L219.313 96.5973L221.374 95.0546L221.445 93.5046L219.447 94.0664Z" fill="#F6851B"/>
<path d="M214.562 93.5042L214.619 95.0546L216.68 96.5973L217.019 96.3748L216.553 94.0659L214.562 93.5042Z" fill="#F6851B"/>
<path d="M219.482 98.7226L219.504 98.0932L219.327 97.9447H216.666L216.504 98.0932L216.518 98.7226L214.294 97.7141L215.071 98.3237L216.645 99.3728H219.348L220.929 98.3237L221.706 97.7141L219.482 98.7226Z" fill="#C0AD9E"/>
<path d="M219.313 96.5973L218.974 96.3748H217.019L216.68 96.5973L216.504 98.0932L216.666 97.9447H219.327L219.504 98.0932L219.313 96.5973Z" fill="#161616"/>
<path d="M226.4 88.6995L227 85.938L226.104 83.3728L219.313 88.2055L221.925 90.324L225.616 91.3595L226.435 90.4458L226.082 90.2021L226.647 89.708L226.209 89.3832L226.774 88.9703L226.4 88.6995Z" fill="#763D16"/>
<path d="M209 85.938L209.6 88.6995L209.219 88.9703L209.784 89.3832L209.353 89.708L209.918 90.2021L209.565 90.4458L210.376 91.3595L214.068 90.3234L216.68 88.2055L209.889 83.3728L209 85.938Z" fill="#763D16"/>
<path d="M225.616 91.3595L221.925 90.324L223.047 91.9416L221.374 95.0546L223.576 95.0275L226.859 95.0275L225.616 91.3595Z" fill="#F6851B"/>
<path d="M214.068 90.3234L210.376 91.3595L209.148 95.0275L212.424 95.0275L214.619 95.0546L212.953 91.9411L214.068 90.3234Z" fill="#F6851B"/>
<path d="M219.08 92.1108L219.313 88.2055L220.386 85.4231L215.621 85.4236L216.68 88.2055L216.927 92.1103L217.012 93.3421L217.019 96.3748H218.974L218.988 93.3421L219.08 92.1108Z" fill="#F6851B"/>
<path d="M243.552 97.0648C242.549 97.0648 241.691 96.8248 240.976 96.3448C240.261 95.8541 239.712 95.1768 239.328 94.3128C238.944 93.4381 238.752 92.4248 238.752 91.2728C238.752 90.1208 238.944 89.1128 239.328 88.2488C239.712 87.3741 240.261 86.6968 240.976 86.2168C241.691 85.7261 242.549 85.4808 243.552 85.4808C244.544 85.4808 245.392 85.7261 246.096 86.2168C246.811 86.6968 247.36 87.3741 247.744 88.2488C248.128 89.1128 248.32 90.1208 248.32 91.2728C248.32 92.4248 248.128 93.4381 247.744 94.3128C247.36 95.1768 246.811 95.8541 246.096 96.3448C245.392 96.8248 244.544 97.0648 243.552 97.0648ZM243.536 95.6408C244.155 95.6408 244.699 95.4648 245.168 95.1128C245.637 94.7608 246.005 94.2595 246.272 93.6088C246.549 92.9581 246.688 92.1795 246.688 91.2728C246.688 90.3661 246.549 89.5875 246.272 88.9368C246.005 88.2861 245.637 87.7901 245.168 87.4488C244.699 87.0968 244.155 86.9208 243.536 86.9208C242.928 86.9208 242.384 87.0968 241.904 87.4488C241.435 87.7901 241.061 88.2861 240.784 88.9368C240.517 89.5875 240.384 90.3661 240.384 91.2728C240.384 92.1795 240.517 92.9581 240.784 93.6088C241.061 94.2595 241.435 94.7608 241.904 95.1128C242.384 95.4648 242.928 95.6408 243.536 95.6408ZM249.398 96.8728L252.182 92.8568L249.398 88.8408H251.126L253.238 91.9608L255.366 88.8408H257.094L254.294 92.8568L257.094 96.8728H255.366L253.238 93.7368L251.126 96.8728H249.398ZM258.911 96.8728V87.7208C258.911 87.1661 259.001 86.7128 259.183 86.3608C259.375 86.0088 259.652 85.7528 260.015 85.5928C260.377 85.4328 260.815 85.3528 261.327 85.3528H262.239V86.7128H261.583C261.199 86.7128 260.921 86.7928 260.751 86.9528C260.591 87.1021 260.511 87.3688 260.511 87.7528V96.8728H258.911ZM257.727 90.1848V88.8408H262.431V90.1848H257.727ZM267.393 97.0648C266.614 97.0648 265.926 96.8941 265.329 96.5528C264.731 96.2008 264.262 95.7101 263.921 95.0808C263.59 94.4515 263.425 93.7155 263.425 92.8728C263.425 92.0301 263.59 91.2941 263.921 90.6648C264.262 90.0355 264.731 89.5448 265.329 89.1928C265.926 88.8301 266.619 88.6488 267.409 88.6488C268.198 88.6488 268.875 88.8248 269.441 89.1768C270.006 89.5181 270.443 89.9821 270.753 90.5688C271.062 91.1448 271.217 91.7848 271.217 92.4888C271.217 92.5955 271.217 92.7128 271.217 92.8408C271.217 92.9581 271.206 93.0861 271.185 93.2248H264.593V92.1048H269.617C269.585 91.4435 269.361 90.9261 268.945 90.5528C268.529 90.1688 268.011 89.9768 267.393 89.9768C266.966 89.9768 266.566 90.0728 266.193 90.2648C265.83 90.4568 265.537 90.7448 265.313 91.1288C265.099 91.5021 264.993 91.9768 264.993 92.5528V93.0008C264.993 93.5981 265.099 94.0995 265.313 94.5048C265.537 94.9101 265.83 95.2195 266.193 95.4328C266.555 95.6355 266.95 95.7368 267.377 95.7368C267.889 95.7368 268.31 95.6248 268.641 95.4008C268.982 95.1661 269.233 94.8568 269.393 94.4728H270.993C270.843 94.9741 270.603 95.4221 270.273 95.8168C269.953 96.2008 269.547 96.5048 269.057 96.7288C268.577 96.9528 268.022 97.0648 267.393 97.0648ZM276.77 97.0648C276.045 97.0648 275.426 96.9261 274.914 96.6488C274.402 96.3608 273.997 95.9821 273.698 95.5128C273.41 95.0328 273.234 94.5155 273.17 93.9608H274.658C274.754 94.5155 274.989 94.9475 275.362 95.2568C275.736 95.5555 276.216 95.7048 276.802 95.7048C277.336 95.7048 277.805 95.5448 278.21 95.2248C278.616 94.9048 278.941 94.4195 279.186 93.7688C279.432 93.1181 279.57 92.2915 279.602 91.2888C279.602 91.2568 279.602 91.2301 279.602 91.2088C279.602 91.1768 279.602 91.1448 279.602 91.1128C279.442 91.4328 279.208 91.7261 278.898 91.9928C278.6 92.2595 278.248 92.4728 277.842 92.6328C277.448 92.7821 277.005 92.8568 276.514 92.8568C275.896 92.8568 275.304 92.7128 274.738 92.4248C274.184 92.1261 273.736 91.7048 273.394 91.1608C273.053 90.6168 272.882 89.9821 272.882 89.2568C272.882 88.6061 273.037 87.9928 273.346 87.4168C273.666 86.8408 274.114 86.3768 274.69 86.0248C275.277 85.6621 275.965 85.4808 276.754 85.4808C277.576 85.4808 278.264 85.6355 278.818 85.9448C279.384 86.2435 279.832 86.6541 280.162 87.1768C280.504 87.6888 280.749 88.2648 280.898 88.9048C281.058 89.5341 281.138 90.1848 281.138 90.8568C281.138 92.0835 280.968 93.1661 280.626 94.1048C280.285 95.0328 279.789 95.7581 279.138 96.2808C278.488 96.8035 277.698 97.0648 276.77 97.0648ZM276.866 91.4968C277.325 91.4968 277.736 91.3955 278.098 91.1928C278.461 90.9795 278.749 90.6968 278.962 90.3448C279.176 89.9928 279.282 89.6035 279.282 89.1768C279.282 88.7288 279.176 88.3341 278.962 87.9928C278.749 87.6408 278.461 87.3688 278.098 87.1768C277.736 86.9741 277.32 86.8728 276.85 86.8728C276.402 86.8728 275.997 86.9741 275.634 87.1768C275.272 87.3795 274.984 87.6515 274.77 87.9928C274.568 88.3341 274.466 88.7341 274.466 89.1928C274.466 89.6515 274.568 90.0568 274.77 90.4088C274.984 90.7501 275.272 91.0168 275.634 91.2088C275.997 91.4008 276.408 91.4968 276.866 91.4968ZM286.816 97.0648C286.037 97.0648 285.344 96.8888 284.736 96.5368C284.128 96.1848 283.648 95.6941 283.296 95.0648C282.955 94.4248 282.784 93.6941 282.784 92.8728C282.784 92.0301 282.955 91.2941 283.296 90.6648C283.648 90.0355 284.128 89.5448 284.736 89.1928C285.344 88.8301 286.037 88.6488 286.816 88.6488C287.797 88.6488 288.619 88.9048 289.28 89.4168C289.941 89.9181 290.357 90.6061 290.528 91.4808H288.864C288.768 91.0221 288.528 90.6648 288.144 90.4088C287.76 90.1528 287.312 90.0248 286.8 90.0248C286.373 90.0248 285.979 90.1315 285.616 90.3448C285.253 90.5581 284.96 90.8781 284.736 91.3048C284.523 91.7208 284.416 92.2381 284.416 92.8568C284.416 93.3155 284.48 93.7261 284.608 94.0888C284.736 94.4408 284.907 94.7395 285.12 94.9848C285.344 95.2195 285.6 95.4008 285.888 95.5288C286.176 95.6461 286.48 95.7048 286.8 95.7048C287.152 95.7048 287.467 95.6515 287.744 95.5448C288.032 95.4275 288.272 95.2568 288.464 95.0328C288.667 94.8088 288.8 94.5421 288.864 94.2328H290.528C290.357 95.0861 289.941 95.7741 289.28 96.2968C288.619 96.8088 287.797 97.0648 286.816 97.0648ZM293.041 96.9528C292.731 96.9528 292.475 96.8568 292.273 96.6648C292.081 96.4621 291.985 96.2221 291.985 95.9448C291.985 95.6568 292.081 95.4168 292.273 95.2248C292.475 95.0221 292.731 94.9208 293.041 94.9208C293.339 94.9208 293.585 95.0221 293.777 95.2248C293.979 95.4168 294.081 95.6568 294.081 95.9448C294.081 96.2221 293.979 96.4621 293.777 96.6648C293.585 96.8568 293.339 96.9528 293.041 96.9528ZM296.462 96.9528C296.153 96.9528 295.897 96.8568 295.694 96.6648C295.502 96.4621 295.406 96.2221 295.406 95.9448C295.406 95.6568 295.502 95.4168 295.694 95.2248C295.897 95.0221 296.153 94.9208 296.462 94.9208C296.761 94.9208 297.006 95.0221 297.198 95.2248C297.401 95.4168 297.502 95.6568 297.502 95.9448C297.502 96.2221 297.401 96.4621 297.198 96.6648C297.006 96.8568 296.761 96.9528 296.462 96.9528ZM299.884 96.9528C299.575 96.9528 299.319 96.8568 299.116 96.6648C298.924 96.4621 298.828 96.2221 298.828 95.9448C298.828 95.6568 298.924 95.4168 299.116 95.2248C299.319 95.0221 299.575 94.9208 299.884 94.9208C300.183 94.9208 300.428 95.0221 300.62 95.2248C300.823 95.4168 300.924 95.6568 300.924 95.9448C300.924 96.2221 300.823 96.4621 300.62 96.6648C300.428 96.8568 300.183 96.9528 299.884 96.9528ZM302.522 96.8728V95.7208C303.258 95.1448 303.962 94.5635 304.634 93.9768C305.306 93.3901 305.903 92.8088 306.426 92.2328C306.959 91.6461 307.375 91.0755 307.674 90.5208C307.973 89.9555 308.122 89.4168 308.122 88.9048C308.122 88.5421 308.058 88.2061 307.93 87.8968C307.802 87.5875 307.599 87.3368 307.322 87.1448C307.045 86.9421 306.671 86.8408 306.202 86.8408C305.743 86.8408 305.359 86.9421 305.05 87.1448C304.741 87.3475 304.506 87.6195 304.346 87.9608C304.197 88.2915 304.122 88.6595 304.122 89.0648H302.586C302.597 88.2968 302.762 87.6461 303.082 87.1128C303.402 86.5795 303.834 86.1741 304.378 85.8968C304.922 85.6195 305.541 85.4808 306.234 85.4808C306.938 85.4808 307.551 85.6141 308.074 85.8808C308.597 86.1368 309.002 86.5155 309.29 87.0168C309.578 87.5075 309.722 88.1101 309.722 88.8248C309.722 89.3368 309.621 89.8488 309.418 90.3608C309.215 90.8621 308.938 91.3528 308.586 91.8328C308.245 92.3128 307.861 92.7768 307.434 93.2248C307.007 93.6621 306.57 94.0781 306.122 94.4728C305.674 94.8675 305.242 95.2248 304.826 95.5448H310.074V96.8728H302.522ZM315.517 97.0648C314.802 97.0648 314.146 96.9368 313.549 96.6808C312.962 96.4141 312.493 96.0195 312.141 95.4968C311.8 94.9635 311.618 94.2968 311.597 93.4968H313.197C313.208 93.9021 313.304 94.2701 313.485 94.6008C313.666 94.9315 313.928 95.1981 314.269 95.4008C314.621 95.5928 315.037 95.6888 315.517 95.6888C315.997 95.6888 316.397 95.5981 316.717 95.4168C317.048 95.2355 317.293 94.9901 317.453 94.6808C317.624 94.3715 317.709 94.0248 317.709 93.6408C317.709 93.1608 317.592 92.7715 317.357 92.4728C317.133 92.1741 316.824 91.9501 316.429 91.8008C316.045 91.6408 315.613 91.5608 315.133 91.5608H314.301V90.2328H315.133C315.794 90.2328 316.322 90.0781 316.717 89.7688C317.122 89.4595 317.325 89.0221 317.325 88.4568C317.325 87.9875 317.17 87.6035 316.861 87.3048C316.552 87.0061 316.104 86.8568 315.517 86.8568C314.92 86.8568 314.445 87.0275 314.093 87.3688C313.752 87.7101 313.56 88.1421 313.517 88.6648H311.933C311.965 88.0355 312.13 87.4808 312.429 87.0008C312.738 86.5101 313.154 86.1368 313.677 85.8808C314.2 85.6141 314.813 85.4808 315.517 85.4808C316.264 85.4808 316.888 85.6141 317.389 85.8808C317.89 86.1368 318.269 86.4835 318.525 86.9208C318.792 87.3581 318.925 87.8381 318.925 88.3608C318.925 88.7555 318.85 89.1235 318.701 89.4648C318.552 89.7955 318.338 90.0835 318.061 90.3288C317.794 90.5741 317.464 90.7501 317.069 90.8568C317.496 90.9315 317.874 91.0968 318.205 91.3528C318.546 91.5981 318.813 91.9181 319.005 92.3128C319.208 92.6968 319.309 93.1448 319.309 93.6568C319.309 94.2648 319.165 94.8301 318.877 95.3528C318.589 95.8648 318.162 96.2808 317.597 96.6008C317.042 96.9101 316.349 97.0648 315.517 97.0648ZM325.113 97.0648C324.334 97.0648 323.641 96.8888 323.033 96.5368C322.425 96.1848 321.945 95.6941 321.593 95.0648C321.252 94.4248 321.081 93.6941 321.081 92.8728C321.081 92.0301 321.252 91.2941 321.593 90.6648C321.945 90.0355 322.425 89.5448 323.033 89.1928C323.641 88.8301 324.334 88.6488 325.113 88.6488C326.094 88.6488 326.916 88.9048 327.577 89.4168C328.238 89.9181 328.654 90.6061 328.825 91.4808H327.161C327.065 91.0221 326.825 90.6648 326.441 90.4088C326.057 90.1528 325.609 90.0248 325.097 90.0248C324.67 90.0248 324.276 90.1315 323.913 90.3448C323.55 90.5581 323.257 90.8781 323.033 91.3048C322.82 91.7208 322.713 92.2381 322.713 92.8568C322.713 93.3155 322.777 93.7261 322.905 94.0888C323.033 94.4408 323.204 94.7395 323.417 94.9848C323.641 95.2195 323.897 95.4008 324.185 95.5288C324.473 95.6461 324.777 95.7048 325.097 95.7048C325.449 95.7048 325.764 95.6515 326.041 95.5448C326.329 95.4275 326.569 95.2568 326.761 95.0328C326.964 94.8088 327.097 94.5421 327.161 94.2328H328.825C328.654 95.0861 328.238 95.7741 327.577 96.2968C326.916 96.8088 326.094 97.0648 325.113 97.0648ZM334.537 97.0648C333.801 97.0648 333.135 96.9315 332.537 96.6648C331.951 96.3875 331.481 96.0035 331.129 95.5128C330.777 95.0221 330.601 94.4515 330.601 93.8008C330.601 93.3421 330.687 92.9208 330.857 92.5368C331.039 92.1421 331.284 91.8008 331.593 91.5128C331.903 91.2248 332.265 91.0168 332.681 90.8888C332.127 90.6648 331.689 90.3341 331.369 89.8968C331.049 89.4595 330.889 88.9795 330.889 88.4568C330.889 87.9128 331.033 87.4168 331.321 86.9688C331.609 86.5208 332.025 86.1635 332.569 85.8968C333.113 85.6195 333.769 85.4808 334.537 85.4808C335.316 85.4808 335.972 85.6195 336.505 85.8968C337.049 86.1635 337.465 86.5208 337.753 86.9688C338.041 87.4168 338.185 87.9128 338.185 88.4568C338.185 88.9795 338.025 89.4648 337.705 89.9128C337.385 90.3501 336.948 90.6755 336.393 90.8888C336.82 91.0168 337.188 91.2248 337.497 91.5128C337.807 91.8008 338.047 92.1421 338.217 92.5368C338.388 92.9208 338.473 93.3421 338.473 93.8008C338.473 94.4515 338.297 95.0221 337.945 95.5128C337.604 96.0035 337.135 96.3875 336.537 96.6648C335.951 96.9315 335.284 97.0648 334.537 97.0648ZM334.537 95.6888C335.327 95.6888 335.913 95.5075 336.297 95.1448C336.692 94.7715 336.889 94.2861 336.889 93.6888C336.889 93.0168 336.676 92.5048 336.249 92.1528C335.823 91.8008 335.252 91.6248 334.537 91.6248C333.823 91.6248 333.252 91.8008 332.825 92.1528C332.399 92.5048 332.185 93.0168 332.185 93.6888C332.185 94.2861 332.383 94.7715 332.777 95.1448C333.172 95.5075 333.759 95.6888 334.537 95.6888ZM334.537 90.3608C335.167 90.3608 335.663 90.1955 336.025 89.8648C336.399 89.5341 336.585 89.1128 336.585 88.6008C336.585 88.0141 336.404 87.5715 336.041 87.2728C335.679 86.9741 335.177 86.8248 334.537 86.8248C333.908 86.8248 333.412 86.9741 333.049 87.2728C332.687 87.5715 332.505 88.0141 332.505 88.6008C332.505 89.1128 332.687 89.5341 333.049 89.8648C333.412 90.1955 333.908 90.3608 334.537 90.3608Z" fill="#F4F4F6"/>
<path d="M93 135C93 130.582 96.5817 127 101 127H266V178H101C96.5817 178 93 174.418 93 170V135Z" fill="#50AF95" fill-opacity="0.3"/>
<path d="M110.168 150.373V139.173H113.96C114.845 139.173 115.571 139.322 116.136 139.621C116.701 139.919 117.117 140.319 117.384 140.821C117.661 141.311 117.8 141.871 117.8 142.501C117.8 143.098 117.661 143.653 117.384 144.165C117.107 144.666 116.68 145.071 116.104 145.381C115.539 145.679 114.808 145.829 113.912 145.829H111.768V150.373H110.168ZM116.04 150.373L113.64 145.397H115.4L117.912 150.373H116.04ZM111.768 144.613H113.848C114.637 144.613 115.219 144.421 115.592 144.037C115.965 143.642 116.152 143.141 116.152 142.533C116.152 141.914 115.971 141.423 115.608 141.061C115.245 140.698 114.653 140.517 113.832 140.517H111.768V144.613ZM122.955 150.565C122.176 150.565 121.488 150.394 120.891 150.053C120.294 149.701 119.824 149.21 119.483 148.581C119.152 147.951 118.987 147.215 118.987 146.373C118.987 145.53 119.152 144.794 119.483 144.165C119.824 143.535 120.294 143.045 120.891 142.693C121.488 142.33 122.182 142.149 122.971 142.149C123.76 142.149 124.438 142.325 125.003 142.677C125.568 143.018 126.006 143.482 126.315 144.069C126.624 144.645 126.779 145.285 126.779 145.989C126.779 146.095 126.779 146.213 126.779 146.341C126.779 146.458 126.768 146.586 126.747 146.725H120.155V145.605H125.179C125.147 144.943 124.923 144.426 124.507 144.053C124.091 143.669 123.574 143.477 122.955 143.477C122.528 143.477 122.128 143.573 121.755 143.765C121.392 143.957 121.099 144.245 120.875 144.629C120.662 145.002 120.555 145.477 120.555 146.053V146.501C120.555 147.098 120.662 147.599 120.875 148.005C121.099 148.41 121.392 148.719 121.755 148.933C122.118 149.135 122.512 149.237 122.939 149.237C123.451 149.237 123.872 149.125 124.203 148.901C124.544 148.666 124.795 148.357 124.955 147.973H126.555C126.406 148.474 126.166 148.922 125.835 149.317C125.515 149.701 125.11 150.005 124.619 150.229C124.139 150.453 123.584 150.565 122.955 150.565ZM132.285 150.565C131.506 150.565 130.813 150.389 130.205 150.037C129.597 149.685 129.117 149.194 128.765 148.565C128.423 147.925 128.253 147.194 128.253 146.373C128.253 145.53 128.423 144.794 128.765 144.165C129.117 143.535 129.597 143.045 130.205 142.693C130.813 142.33 131.506 142.149 132.285 142.149C133.266 142.149 134.087 142.405 134.749 142.917C135.41 143.418 135.826 144.106 135.997 144.981H134.333C134.237 144.522 133.997 144.165 133.613 143.909C133.229 143.653 132.781 143.525 132.269 143.525C131.842 143.525 131.447 143.631 131.085 143.845C130.722 144.058 130.429 144.378 130.205 144.805C129.991 145.221 129.885 145.738 129.885 146.357C129.885 146.815 129.949 147.226 130.077 147.589C130.205 147.941 130.375 148.239 130.589 148.485C130.813 148.719 131.069 148.901 131.357 149.029C131.645 149.146 131.949 149.205 132.269 149.205C132.621 149.205 132.935 149.151 133.213 149.045C133.501 148.927 133.741 148.757 133.933 148.533C134.135 148.309 134.269 148.042 134.333 147.733H135.997C135.826 148.586 135.41 149.274 134.749 149.797C134.087 150.309 133.266 150.565 132.285 150.565ZM141.533 150.565C140.755 150.565 140.067 150.394 139.469 150.053C138.872 149.701 138.403 149.21 138.061 148.581C137.731 147.951 137.565 147.215 137.565 146.373C137.565 145.53 137.731 144.794 138.061 144.165C138.403 143.535 138.872 143.045 139.469 142.693C140.067 142.33 140.76 142.149 141.549 142.149C142.339 142.149 143.016 142.325 143.581 142.677C144.147 143.018 144.584 143.482 144.893 144.069C145.203 144.645 145.357 145.285 145.357 145.989C145.357 146.095 145.357 146.213 145.357 146.341C145.357 146.458 145.347 146.586 145.325 146.725H138.733V145.605H143.757C143.725 144.943 143.501 144.426 143.085 144.053C142.669 143.669 142.152 143.477 141.533 143.477C141.107 143.477 140.707 143.573 140.333 143.765C139.971 143.957 139.677 144.245 139.453 144.629C139.24 145.002 139.133 145.477 139.133 146.053V146.501C139.133 147.098 139.24 147.599 139.453 148.005C139.677 148.41 139.971 148.719 140.333 148.933C140.696 149.135 141.091 149.237 141.517 149.237C142.029 149.237 142.451 149.125 142.781 148.901C143.123 148.666 143.373 148.357 143.533 147.973H145.133C144.984 148.474 144.744 148.922 144.413 149.317C144.093 149.701 143.688 150.005 143.197 150.229C142.717 150.453 142.163 150.565 141.533 150.565ZM147.247 150.373V142.341H148.847V150.373H147.247ZM148.047 140.805C147.748 140.805 147.498 140.709 147.295 140.517C147.103 140.325 147.007 140.079 147.007 139.781C147.007 139.493 147.103 139.258 147.295 139.077C147.498 138.885 147.748 138.789 148.047 138.789C148.356 138.789 148.612 138.885 148.815 139.077C149.018 139.258 149.119 139.493 149.119 139.781C149.119 140.079 149.018 140.325 148.815 140.517C148.612 140.709 148.356 140.805 148.047 140.805ZM153.407 150.373L150.399 142.341H152.079L154.351 148.837L156.655 142.341H158.303L155.295 150.373H153.407ZM163.018 150.565C162.239 150.565 161.551 150.394 160.954 150.053C160.356 149.701 159.887 149.21 159.546 148.581C159.215 147.951 159.05 147.215 159.05 146.373C159.05 145.53 159.215 144.794 159.546 144.165C159.887 143.535 160.356 143.045 160.954 142.693C161.551 142.33 162.244 142.149 163.034 142.149C163.823 142.149 164.5 142.325 165.066 142.677C165.631 143.018 166.068 143.482 166.378 144.069C166.687 144.645 166.842 145.285 166.842 145.989C166.842 146.095 166.842 146.213 166.842 146.341C166.842 146.458 166.831 146.586 166.81 146.725H160.218V145.605H165.242C165.21 144.943 164.986 144.426 164.57 144.053C164.154 143.669 163.636 143.477 163.018 143.477C162.591 143.477 162.191 143.573 161.818 143.765C161.455 143.957 161.162 144.245 160.938 144.629C160.724 145.002 160.618 145.477 160.618 146.053V146.501C160.618 147.098 160.724 147.599 160.938 148.005C161.162 148.41 161.455 148.719 161.818 148.933C162.18 149.135 162.575 149.237 163.002 149.237C163.514 149.237 163.935 149.125 164.266 148.901C164.607 148.666 164.858 148.357 165.018 147.973H166.618C166.468 148.474 166.228 148.922 165.898 149.317C165.578 149.701 165.172 150.005 164.682 150.229C164.202 150.453 163.647 150.565 163.018 150.565ZM172.203 150.565C171.435 150.565 170.758 150.383 170.171 150.021C169.585 149.647 169.126 149.146 168.795 148.517C168.475 147.877 168.315 147.151 168.315 146.341C168.315 145.53 168.475 144.81 168.795 144.181C169.126 143.551 169.585 143.055 170.171 142.693C170.769 142.33 171.457 142.149 172.235 142.149C172.865 142.149 173.419 142.277 173.899 142.533C174.379 142.778 174.753 143.125 175.019 143.573V138.853H176.619V150.373H175.179L175.019 149.125C174.849 149.37 174.635 149.605 174.379 149.829C174.123 150.042 173.814 150.218 173.451 150.357C173.099 150.495 172.683 150.565 172.203 150.565ZM172.475 149.173C172.966 149.173 173.403 149.055 173.787 148.821C174.171 148.586 174.47 148.261 174.683 147.845C174.897 147.418 175.003 146.922 175.003 146.357C175.003 145.791 174.897 145.301 174.683 144.885C174.47 144.458 174.171 144.127 173.787 143.893C173.403 143.658 172.961 143.541 172.459 143.541C171.979 143.541 171.547 143.658 171.163 143.893C170.779 144.127 170.481 144.458 170.267 144.885C170.054 145.301 169.947 145.791 169.947 146.357C169.947 146.911 170.054 147.402 170.267 147.829C170.481 148.255 170.779 148.586 171.163 148.821C171.547 149.055 171.985 149.173 172.475 149.173ZM182.741 150.373V149.221C183.477 148.645 184.181 148.063 184.853 147.477C185.525 146.89 186.122 146.309 186.645 145.733C187.178 145.146 187.594 144.575 187.893 144.021C188.192 143.455 188.341 142.917 188.341 142.405C188.341 142.042 188.277 141.706 188.149 141.397C188.021 141.087 187.818 140.837 187.541 140.645C187.264 140.442 186.89 140.341 186.421 140.341C185.962 140.341 185.578 140.442 185.269 140.645C184.96 140.847 184.725 141.119 184.565 141.461C184.416 141.791 184.341 142.159 184.341 142.565H182.805C182.816 141.797 182.981 141.146 183.301 140.613C183.621 140.079 184.053 139.674 184.597 139.397C185.141 139.119 185.76 138.981 186.453 138.981C187.157 138.981 187.77 139.114 188.293 139.381C188.816 139.637 189.221 140.015 189.509 140.517C189.797 141.007 189.941 141.61 189.941 142.325C189.941 142.837 189.84 143.349 189.637 143.861C189.434 144.362 189.157 144.853 188.805 145.333C188.464 145.813 188.08 146.277 187.653 146.725C187.226 147.162 186.789 147.578 186.341 147.973C185.893 148.367 185.461 148.725 185.045 149.045H190.293V150.373H182.741ZM196.04 150.565C195.261 150.565 194.584 150.426 194.008 150.149C193.432 149.861 192.978 149.477 192.648 148.997C192.328 148.506 192.13 147.951 192.056 147.333H193.608C193.725 147.887 193.997 148.341 194.424 148.693C194.85 149.034 195.394 149.205 196.056 149.205C196.536 149.205 196.952 149.087 197.304 148.853C197.656 148.618 197.928 148.303 198.12 147.909C198.312 147.514 198.408 147.071 198.408 146.581C198.408 146.069 198.306 145.626 198.104 145.253C197.912 144.869 197.64 144.57 197.288 144.357C196.946 144.143 196.546 144.037 196.088 144.037C195.533 144.037 195.053 144.165 194.648 144.421C194.253 144.677 193.96 144.997 193.768 145.381H192.232L193.176 139.173H199.192V140.565H194.392L193.8 143.701C194.056 143.413 194.397 143.178 194.824 142.997C195.261 142.805 195.757 142.709 196.312 142.709C196.877 142.709 197.384 142.81 197.832 143.013C198.28 143.215 198.658 143.493 198.968 143.845C199.288 144.197 199.533 144.607 199.704 145.077C199.874 145.535 199.96 146.031 199.96 146.565C199.96 147.13 199.869 147.653 199.688 148.133C199.506 148.613 199.245 149.039 198.904 149.413C198.562 149.775 198.152 150.058 197.672 150.261C197.192 150.463 196.648 150.565 196.04 150.565ZM205.564 150.565C204.849 150.565 204.193 150.437 203.596 150.181C203.009 149.914 202.54 149.519 202.188 148.997C201.846 148.463 201.665 147.797 201.644 146.997H203.244C203.254 147.402 203.35 147.77 203.532 148.101C203.713 148.431 203.974 148.698 204.316 148.901C204.668 149.093 205.084 149.189 205.564 149.189C206.044 149.189 206.444 149.098 206.764 148.917C207.094 148.735 207.34 148.49 207.5 148.181C207.67 147.871 207.756 147.525 207.756 147.141C207.756 146.661 207.638 146.271 207.404 145.973C207.18 145.674 206.87 145.45 206.476 145.301C206.092 145.141 205.66 145.061 205.18 145.061H204.348V143.733H205.18C205.841 143.733 206.369 143.578 206.764 143.269C207.169 142.959 207.372 142.522 207.372 141.957C207.372 141.487 207.217 141.103 206.908 140.805C206.598 140.506 206.15 140.357 205.564 140.357C204.966 140.357 204.492 140.527 204.14 140.869C203.798 141.21 203.606 141.642 203.564 142.165H201.98C202.012 141.535 202.177 140.981 202.476 140.501C202.785 140.01 203.201 139.637 203.724 139.381C204.246 139.114 204.86 138.981 205.564 138.981C206.31 138.981 206.934 139.114 207.436 139.381C207.937 139.637 208.316 139.983 208.572 140.421C208.838 140.858 208.972 141.338 208.972 141.861C208.972 142.255 208.897 142.623 208.748 142.965C208.598 143.295 208.385 143.583 208.108 143.829C207.841 144.074 207.51 144.25 207.116 144.357C207.542 144.431 207.921 144.597 208.252 144.853C208.593 145.098 208.86 145.418 209.052 145.813C209.254 146.197 209.356 146.645 209.356 147.157C209.356 147.765 209.212 148.33 208.924 148.853C208.636 149.365 208.209 149.781 207.644 150.101C207.089 150.41 206.396 150.565 205.564 150.565ZM216.6 150.373V148.085H210.984V146.837L216.344 139.173H218.184V146.693H219.784V148.085H218.184V150.373H216.6ZM212.712 146.693H216.68V140.933L212.712 146.693ZM221.994 150.453C221.684 150.453 221.428 150.357 221.226 150.165C221.034 149.962 220.938 149.722 220.938 149.445C220.938 149.157 221.034 148.917 221.226 148.725C221.428 148.522 221.684 148.421 221.994 148.421C222.292 148.421 222.538 148.522 222.73 148.725C222.932 148.917 223.034 149.157 223.034 149.445C223.034 149.722 222.932 149.962 222.73 150.165C222.538 150.357 222.292 150.453 221.994 150.453ZM228.408 150.565C227.693 150.565 227.037 150.437 226.44 150.181C225.853 149.914 225.384 149.519 225.032 148.997C224.69 148.463 224.509 147.797 224.488 146.997H226.088C226.098 147.402 226.194 147.77 226.376 148.101C226.557 148.431 226.818 148.698 227.16 148.901C227.512 149.093 227.928 149.189 228.408 149.189C228.888 149.189 229.288 149.098 229.608 148.917C229.938 148.735 230.184 148.49 230.344 148.181C230.514 147.871 230.6 147.525 230.6 147.141C230.6 146.661 230.482 146.271 230.248 145.973C230.024 145.674 229.714 145.45 229.32 145.301C228.936 145.141 228.504 145.061 228.024 145.061H227.192V143.733H228.024C228.685 143.733 229.213 143.578 229.608 143.269C230.013 142.959 230.216 142.522 230.216 141.957C230.216 141.487 230.061 141.103 229.752 140.805C229.442 140.506 228.994 140.357 228.408 140.357C227.81 140.357 227.336 140.527 226.984 140.869C226.642 141.21 226.45 141.642 226.408 142.165H224.824C224.856 141.535 225.021 140.981 225.32 140.501C225.629 140.01 226.045 139.637 226.568 139.381C227.09 139.114 227.704 138.981 228.408 138.981C229.154 138.981 229.778 139.114 230.28 139.381C230.781 139.637 231.16 139.983 231.416 140.421C231.682 140.858 231.816 141.338 231.816 141.861C231.816 142.255 231.741 142.623 231.592 142.965C231.442 143.295 231.229 143.583 230.952 143.829C230.685 144.074 230.354 144.25 229.96 144.357C230.386 144.431 230.765 144.597 231.096 144.853C231.437 145.098 231.704 145.418 231.896 145.813C232.098 146.197 232.2 146.645 232.2 147.157C232.2 147.765 232.056 148.33 231.767 148.853C231.48 149.365 231.053 149.781 230.488 150.101C229.933 150.41 229.24 150.565 228.408 150.565ZM237.614 150.565C236.889 150.565 236.27 150.426 235.758 150.149C235.246 149.861 234.841 149.482 234.542 149.013C234.254 148.533 234.078 148.015 234.014 147.461H235.502C235.598 148.015 235.833 148.447 236.206 148.757C236.579 149.055 237.059 149.205 237.646 149.205C238.179 149.205 238.649 149.045 239.054 148.725C239.459 148.405 239.785 147.919 240.03 147.269C240.275 146.618 240.414 145.791 240.446 144.789C240.446 144.757 240.446 144.73 240.446 144.709C240.446 144.677 240.446 144.645 240.446 144.613C240.286 144.933 240.051 145.226 239.742 145.493C239.443 145.759 239.091 145.973 238.686 146.133C238.291 146.282 237.849 146.357 237.358 146.357C236.739 146.357 236.147 146.213 235.582 145.925C235.027 145.626 234.579 145.205 234.238 144.661C233.897 144.117 233.726 143.482 233.726 142.757C233.726 142.106 233.881 141.493 234.19 140.917C234.51 140.341 234.958 139.877 235.534 139.525C236.121 139.162 236.809 138.981 237.598 138.981C238.419 138.981 239.107 139.135 239.662 139.445C240.227 139.743 240.675 140.154 241.006 140.677C241.347 141.189 241.593 141.765 241.742 142.405C241.902 143.034 241.982 143.685 241.982 144.357C241.982 145.583 241.811 146.666 241.47 147.605C241.129 148.533 240.633 149.258 239.982 149.781C239.331 150.303 238.542 150.565 237.614 150.565ZM237.71 144.997C238.169 144.997 238.579 144.895 238.942 144.693C239.305 144.479 239.593 144.197 239.806 143.845C240.019 143.493 240.126 143.103 240.126 142.677C240.126 142.229 240.019 141.834 239.806 141.493C239.593 141.141 239.305 140.869 238.942 140.677C238.579 140.474 238.163 140.373 237.694 140.373C237.246 140.373 236.841 140.474 236.478 140.677C236.115 140.879 235.827 141.151 235.614 141.493C235.411 141.834 235.31 142.234 235.31 142.693C235.31 143.151 235.411 143.557 235.614 143.909C235.827 144.25 236.115 144.517 236.478 144.709C236.841 144.901 237.251 144.997 237.71 144.997ZM247.708 150.565C246.982 150.565 246.364 150.426 245.852 150.149C245.34 149.861 244.934 149.482 244.636 149.013C244.348 148.533 244.172 148.015 244.108 147.461H245.596C245.692 148.015 245.926 148.447 246.3 148.757C246.673 149.055 247.153 149.205 247.74 149.205C248.273 149.205 248.742 149.045 249.148 148.725C249.553 148.405 249.878 147.919 250.124 147.269C250.369 146.618 250.508 145.791 250.54 144.789C250.54 144.757 250.54 144.73 250.54 144.709C250.54 144.677 250.54 144.645 250.54 144.613C250.38 144.933 250.145 145.226 249.836 145.493C249.537 145.759 249.185 145.973 248.78 146.133C248.385 146.282 247.942 146.357 247.452 146.357C246.833 146.357 246.241 146.213 245.676 145.925C245.121 145.626 244.673 145.205 244.332 144.661C243.99 144.117 243.82 143.482 243.82 142.757C243.82 142.106 243.974 141.493 244.284 140.917C244.604 140.341 245.052 139.877 245.628 139.525C246.214 139.162 246.902 138.981 247.692 138.981C248.513 138.981 249.201 139.135 249.756 139.445C250.321 139.743 250.769 140.154 251.1 140.677C251.441 141.189 251.686 141.765 251.836 142.405C251.996 143.034 252.076 143.685 252.076 144.357C252.076 145.583 251.905 146.666 251.564 147.605C251.222 148.533 250.726 149.258 250.076 149.781C249.425 150.303 248.636 150.565 247.708 150.565ZM247.804 144.997C248.262 144.997 248.673 144.895 249.036 144.693C249.398 144.479 249.686 144.197 249.9 143.845C250.113 143.493 250.22 143.103 250.22 142.677C250.22 142.229 250.113 141.834 249.9 141.493C249.686 141.141 249.398 140.869 249.036 140.677C248.673 140.474 248.257 140.373 247.788 140.373C247.34 140.373 246.934 140.474 246.572 140.677C246.209 140.879 245.921 141.151 245.708 141.493C245.505 141.834 245.404 142.234 245.404 142.693C245.404 143.151 245.505 143.557 245.708 143.909C245.921 144.25 246.209 144.517 246.572 144.709C246.934 144.901 247.345 144.997 247.804 144.997ZM263.255 150.565C262.178 150.565 261.229 150.325 260.407 149.845C259.586 149.354 258.941 148.677 258.471 147.813C258.013 146.938 257.783 145.925 257.783 144.773C257.783 143.631 258.013 142.629 258.471 141.765C258.941 140.89 259.586 140.207 260.407 139.717C261.229 139.226 262.178 138.981 263.255 138.981C264.354 138.981 265.314 139.226 266.135 139.717C266.967 140.207 267.607 140.89 268.055 141.765C268.514 142.629 268.743 143.631 268.743 144.773C268.743 145.925 268.514 146.938 268.055 147.813C267.607 148.677 266.967 149.354 266.135 149.845C265.314 150.325 264.354 150.565 263.255 150.565ZM263.271 149.141C264.039 149.141 264.711 148.965 265.287 148.613C265.874 148.261 266.322 147.759 266.631 147.109C266.951 146.458 267.111 145.679 267.111 144.773C267.111 143.866 266.951 143.087 266.631 142.437C266.322 141.786 265.874 141.29 265.287 140.949C264.711 140.597 264.039 140.421 263.271 140.421C262.503 140.421 261.826 140.597 261.239 140.949C260.663 141.29 260.215 141.786 259.895 142.437C259.575 143.087 259.415 143.866 259.415 144.773C259.415 145.679 259.575 146.458 259.895 147.109C260.215 147.759 260.663 148.261 261.239 148.613C261.826 148.965 262.503 149.141 263.271 149.141ZM270.668 150.373V139.173H274.492C275.377 139.173 276.108 139.322 276.684 139.621C277.26 139.909 277.687 140.309 277.964 140.821C278.252 141.322 278.396 141.887 278.396 142.517C278.396 143.135 278.257 143.701 277.98 144.213C277.713 144.714 277.292 145.119 276.716 145.429C276.14 145.727 275.399 145.877 274.492 145.877H272.268V150.373H270.668ZM272.268 144.549H274.428C275.26 144.549 275.852 144.367 276.204 144.005C276.567 143.631 276.748 143.135 276.748 142.517C276.748 141.877 276.567 141.381 276.204 141.029C275.852 140.677 275.26 140.501 274.428 140.501H272.268V144.549Z" fill="#FBFAFF"/>
<path d="M112.848 166.529C112.233 166.529 111.682 166.386 111.197 166.1C110.712 165.814 110.33 165.411 110.053 164.891C109.776 164.371 109.637 163.764 109.637 163.071C109.637 162.369 109.776 161.762 110.053 161.251C110.339 160.731 110.725 160.328 111.21 160.042C111.704 159.756 112.259 159.613 112.874 159.613C113.489 159.613 114.04 159.756 114.525 160.042C115.01 160.328 115.392 160.731 115.669 161.251C115.946 161.762 116.085 162.369 116.085 163.071C116.085 163.773 115.942 164.384 115.656 164.904C115.379 165.415 114.993 165.814 114.499 166.1C114.014 166.386 113.463 166.529 112.848 166.529ZM112.848 165.593C113.229 165.593 113.58 165.502 113.901 165.32C114.222 165.129 114.477 164.847 114.668 164.475C114.867 164.093 114.967 163.625 114.967 163.071C114.967 162.507 114.872 162.039 114.681 161.667C114.49 161.294 114.235 161.017 113.914 160.835C113.593 160.644 113.247 160.549 112.874 160.549C112.501 160.549 112.15 160.644 111.821 160.835C111.5 161.017 111.24 161.294 111.041 161.667C110.85 162.039 110.755 162.507 110.755 163.071C110.755 163.625 110.85 164.093 111.041 164.475C111.24 164.847 111.496 165.129 111.808 165.32C112.129 165.502 112.475 165.593 112.848 165.593ZM117.629 166.373V159.769H118.617L118.669 160.9C118.877 160.492 119.171 160.176 119.553 159.951C119.943 159.725 120.385 159.613 120.879 159.613C121.381 159.613 121.819 159.712 122.192 159.912C122.564 160.111 122.855 160.414 123.063 160.822C123.271 161.229 123.375 161.745 123.375 162.369V166.373H122.283V162.486C122.283 161.844 122.135 161.363 121.841 161.043C121.555 160.713 121.152 160.549 120.632 160.549C120.268 160.549 119.943 160.635 119.657 160.809C119.371 160.982 119.141 161.233 118.968 161.563C118.803 161.892 118.721 162.299 118.721 162.785V166.373H117.629ZM132.641 166.529C131.775 166.529 131.012 166.334 130.353 165.944C129.703 165.545 129.192 164.995 128.819 164.293C128.455 163.582 128.273 162.759 128.273 161.823C128.273 160.895 128.455 160.081 128.819 159.379C129.192 158.668 129.703 158.113 130.353 157.715C131.012 157.316 131.775 157.117 132.641 157.117C133.525 157.117 134.292 157.316 134.942 157.715C135.601 158.113 136.112 158.668 136.476 159.379C136.84 160.081 137.022 160.895 137.022 161.823C137.022 162.759 136.84 163.582 136.476 164.293C136.112 164.995 135.601 165.545 134.942 165.944C134.292 166.334 133.525 166.529 132.641 166.529ZM132.641 165.567C133.291 165.567 133.863 165.419 134.357 165.125C134.851 164.821 135.233 164.392 135.501 163.838C135.77 163.274 135.904 162.603 135.904 161.823C135.904 161.043 135.77 160.375 135.501 159.821C135.233 159.257 134.851 158.828 134.357 158.534C133.863 158.239 133.291 158.092 132.641 158.092C132 158.092 131.432 158.239 130.938 158.534C130.453 158.828 130.072 159.257 129.794 159.821C129.526 160.375 129.391 161.043 129.391 161.823C129.391 162.603 129.526 163.274 129.794 163.838C130.072 164.392 130.453 164.821 130.938 165.125C131.432 165.419 132 165.567 132.641 165.567ZM138.551 169.233V159.769H139.539L139.63 160.835C139.768 160.618 139.946 160.419 140.163 160.237C140.379 160.046 140.639 159.894 140.943 159.782C141.246 159.669 141.593 159.613 141.983 159.613C142.615 159.613 143.166 159.764 143.634 160.068C144.11 160.371 144.479 160.783 144.739 161.303C144.999 161.823 145.129 162.416 145.129 163.084C145.129 163.751 144.999 164.345 144.739 164.865C144.479 165.376 144.11 165.783 143.634 166.087C143.157 166.381 142.602 166.529 141.97 166.529C141.441 166.529 140.973 166.42 140.566 166.204C140.167 165.987 139.859 165.684 139.643 165.294V169.233H138.551ZM141.853 165.58C142.269 165.58 142.641 165.476 142.971 165.268C143.3 165.06 143.556 164.769 143.738 164.397C143.928 164.015 144.024 163.573 144.024 163.071C144.024 162.568 143.928 162.13 143.738 161.758C143.556 161.376 143.3 161.082 142.971 160.874C142.641 160.666 142.269 160.562 141.853 160.562C141.419 160.562 141.038 160.666 140.709 160.874C140.379 161.082 140.124 161.376 139.942 161.758C139.76 162.13 139.669 162.568 139.669 163.071C139.669 163.573 139.76 164.015 139.942 164.397C140.124 164.769 140.379 165.06 140.709 165.268C141.038 165.476 141.419 165.58 141.853 165.58ZM149.021 166.373C148.631 166.373 148.293 166.312 148.007 166.191C147.721 166.069 147.5 165.866 147.344 165.58C147.197 165.285 147.123 164.891 147.123 164.397V160.692H145.979V159.769H147.123L147.266 158.157H148.215V159.769H150.126V160.692H148.215V164.397C148.215 164.804 148.298 165.081 148.462 165.229C148.627 165.367 148.917 165.437 149.333 165.437H150.061V166.373H149.021ZM151.667 166.373V159.769H152.759V166.373H151.667ZM152.213 158.391C151.997 158.391 151.815 158.321 151.667 158.183C151.529 158.035 151.459 157.853 151.459 157.637C151.459 157.42 151.529 157.247 151.667 157.117C151.815 156.978 151.997 156.909 152.213 156.909C152.421 156.909 152.599 156.978 152.746 157.117C152.894 157.247 152.967 157.42 152.967 157.637C152.967 157.853 152.894 158.035 152.746 158.183C152.599 158.321 152.421 158.391 152.213 158.391ZM154.686 166.373V159.769H155.674L155.739 160.705C155.947 160.358 156.225 160.089 156.571 159.899C156.927 159.708 157.312 159.613 157.728 159.613C158.058 159.613 158.357 159.66 158.625 159.756C158.903 159.842 159.145 159.981 159.353 160.172C159.561 160.354 159.73 160.588 159.86 160.874C160.086 160.466 160.393 160.154 160.783 159.938C161.173 159.721 161.589 159.613 162.031 159.613C162.543 159.613 162.985 159.712 163.357 159.912C163.73 160.111 164.016 160.419 164.215 160.835C164.423 161.242 164.527 161.753 164.527 162.369V166.373H163.448V162.486C163.448 161.844 163.314 161.363 163.045 161.043C162.777 160.713 162.4 160.549 161.914 160.549C161.576 160.549 161.273 160.635 161.004 160.809C160.744 160.982 160.536 161.238 160.38 161.576C160.224 161.905 160.146 162.312 160.146 162.798V166.373H159.054V162.486C159.054 161.844 158.92 161.363 158.651 161.043C158.383 160.713 158.01 160.549 157.533 160.549C157.204 160.549 156.905 160.635 156.636 160.809C156.376 160.982 156.168 161.238 156.012 161.576C155.856 161.905 155.778 162.312 155.778 162.798V166.373H154.686ZM166.343 166.373V159.769H167.435V166.373H166.343ZM166.889 158.391C166.672 158.391 166.49 158.321 166.343 158.183C166.204 158.035 166.135 157.853 166.135 157.637C166.135 157.42 166.204 157.247 166.343 157.117C166.49 156.978 166.672 156.909 166.889 156.909C167.097 156.909 167.275 156.978 167.422 157.117C167.569 157.247 167.643 157.42 167.643 157.637C167.643 157.853 167.569 158.035 167.422 158.183C167.275 158.321 167.097 158.391 166.889 158.391ZM171.832 166.529C171.277 166.529 170.796 166.438 170.389 166.256C169.982 166.074 169.661 165.818 169.427 165.489C169.202 165.159 169.063 164.774 169.011 164.332H170.129C170.172 164.566 170.259 164.778 170.389 164.969C170.528 165.159 170.718 165.315 170.961 165.437C171.204 165.549 171.498 165.606 171.845 165.606C172.148 165.606 172.4 165.562 172.599 165.476C172.798 165.38 172.946 165.255 173.041 165.099C173.145 164.943 173.197 164.769 173.197 164.579C173.197 164.31 173.132 164.102 173.002 163.955C172.881 163.807 172.699 163.695 172.456 163.617C172.222 163.539 171.932 163.469 171.585 163.409C171.273 163.357 170.978 163.287 170.701 163.201C170.424 163.105 170.177 162.988 169.96 162.85C169.752 162.702 169.583 162.52 169.453 162.304C169.332 162.087 169.271 161.827 169.271 161.524C169.271 161.151 169.366 160.822 169.557 160.536C169.756 160.25 170.034 160.024 170.389 159.86C170.753 159.695 171.178 159.613 171.663 159.613C172.365 159.613 172.933 159.782 173.366 160.12C173.808 160.458 174.064 160.943 174.133 161.576H173.054C173.019 161.255 172.876 161.004 172.625 160.822C172.382 160.631 172.057 160.536 171.65 160.536C171.234 160.536 170.918 160.618 170.701 160.783C170.484 160.947 170.376 161.164 170.376 161.433C170.376 161.615 170.432 161.775 170.545 161.914C170.658 162.052 170.831 162.169 171.065 162.265C171.308 162.36 171.602 162.438 171.949 162.499C172.4 162.577 172.803 162.681 173.158 162.811C173.513 162.941 173.795 163.136 174.003 163.396C174.22 163.647 174.324 164.011 174.315 164.488C174.324 164.904 174.224 165.263 174.016 165.567C173.808 165.87 173.518 166.108 173.145 166.282C172.772 166.446 172.335 166.529 171.832 166.529ZM175.913 166.373V159.769H176.901L176.966 160.705C177.174 160.358 177.451 160.089 177.798 159.899C178.153 159.708 178.539 159.613 178.955 159.613C179.284 159.613 179.583 159.66 179.852 159.756C180.129 159.842 180.372 159.981 180.58 160.172C180.788 160.354 180.957 160.588 181.087 160.874C181.312 160.466 181.62 160.154 182.01 159.938C182.4 159.721 182.816 159.613 183.258 159.613C183.769 159.613 184.211 159.712 184.584 159.912C184.957 160.111 185.243 160.419 185.442 160.835C185.65 161.242 185.754 161.753 185.754 162.369V166.373H184.675V162.486C184.675 161.844 184.541 161.363 184.272 161.043C184.003 160.713 183.626 160.549 183.141 160.549C182.803 160.549 182.5 160.635 182.231 160.809C181.971 160.982 181.763 161.238 181.607 161.576C181.451 161.905 181.373 162.312 181.373 162.798V166.373H180.281V162.486C180.281 161.844 180.147 161.363 179.878 161.043C179.609 160.713 179.237 160.549 178.76 160.549C178.431 160.549 178.132 160.635 177.863 160.809C177.603 160.982 177.395 161.238 177.239 161.576C177.083 161.905 177.005 162.312 177.005 162.798V166.373H175.913Z" fill="#7F7A93"/>
<path d="M340 147.873L330 157.873M340 157.873L330 147.873" stroke="#AAA4C2" stroke-linecap="round"/>
</svg>
