<svg width="64" height="65" viewBox="0 0 64 65" fill="none" xmlns="http://www.w3.org/2000/svg">
<path fill-rule="evenodd" clip-rule="evenodd" d="M8 19.8273V39.2791C8 41.1726 9.53502 42.7076 11.4286 42.7076H41.5088C42.2599 42.7076 42.9902 42.9543 43.5875 43.4097L50.4927 48.6743C50.9646 49.0341 51.48 49.2482 52 49.336V50.8047C52 52.6983 50.465 54.2333 48.5714 54.2333H18.4912C17.7401 54.2333 17.0098 54.4799 16.4125 54.9353L9.5073 60.1999C7.25058 61.9204 4 60.3111 4 57.4734V54.2333V23.2558C4 21.3623 5.53502 19.8273 7.42857 19.8273H8Z" fill="url(#paint0_linear_8961_17454)"/>
<path d="M60 8.30162C60 6.40807 58.465 4.87305 56.5714 4.87305H15.4286C13.535 4.87305 12 6.40807 12 8.30162V35.8505C12 37.744 13.535 39.2791 15.4286 39.2791H45.5088C46.2599 39.2791 46.9902 39.5257 47.5875 39.9811L54.4927 45.2457C56.7494 46.9662 60 45.3569 60 42.5191V39.2791V8.30162Z" fill="url(#paint1_linear_8961_17454)"/>
<rect x="38" y="32.873" width="4" height="4" rx="2" transform="rotate(-180 38 32.873)" fill="url(#paint2_linear_8961_17454)"/>
<rect x="38" y="10.0237" width="15" height="4" rx="2" transform="rotate(90 38 10.0237)" fill="url(#paint3_linear_8961_17454)"/>
<defs>
<linearGradient id="paint0_linear_8961_17454" x1="3.87117" y1="54.2334" x2="38.7479" y2="9.49607" gradientUnits="userSpaceOnUse">
<stop stop-color="#9F82DE"/>
<stop offset="1" stop-color="#7138EB"/>
</linearGradient>
<linearGradient id="paint1_linear_8961_17454" x1="60.1288" y1="39.2792" x2="25.2521" y2="-5.45815" gradientUnits="userSpaceOnUse">
<stop stop-color="#9F82DE"/>
<stop offset="1" stop-color="#7138EB"/>
</linearGradient>
<linearGradient id="paint2_linear_8961_17454" x1="38" y1="34.873" x2="42" y2="34.873" gradientUnits="userSpaceOnUse">
<stop stop-color="#F4F4F6"/>
<stop offset="1" stop-color="#F4F4F6" stop-opacity="0.5"/>
</linearGradient>
<linearGradient id="paint3_linear_8961_17454" x1="38" y1="12.0237" x2="53" y2="12.0237" gradientUnits="userSpaceOnUse">
<stop stop-color="#F4F4F6"/>
<stop offset="1" stop-color="#F4F4F6" stop-opacity="0.5"/>
</linearGradient>
</defs>
</svg>
