<svg width="49" height="48" viewBox="0 0 49 48" fill="none" xmlns="http://www.w3.org/2000/svg">
<rect x="0.70339" y="1.07619" width="44.339" height="44.339" rx="6.30508" fill="#D0D0D0" stroke="#535354" stroke-width="0.40678"/>
<rect x="3.55105" y="2.70339" width="44.339" height="44.339" rx="6.30508" fill="#1969FF" stroke="#535354" stroke-width="0.40678"/>
<path d="M24.5488 11.6827C25.1992 11.3398 26.1889 11.3398 26.8393 11.6827L33.4764 15.1817C33.8682 15.3882 34.0833 15.696 34.1218 16.0137H34.1282V33.6015C34.1195 33.948 33.9024 34.2922 33.4764 34.5168L26.8393 38.0158C26.1889 38.3587 25.1992 38.3587 24.5488 38.0158L17.9117 34.5168C17.4876 34.2932 17.284 33.9466 17.2739 33.6015C17.2729 33.5661 17.2728 33.5369 17.2739 33.5129L17.2739 16.1321C17.2729 16.1076 17.2729 16.0833 17.2739 16.0591L17.2739 16.0137H17.2769C17.3064 15.6925 17.5117 15.3926 17.9117 15.1817L24.5488 11.6827ZM33.0724 25.7919L26.8373 29.0898C26.1878 29.4334 25.1996 29.4334 24.5501 29.0898L18.3289 25.7993V33.5471L24.5501 36.8202C24.9177 37.0169 25.3 37.2085 25.6722 37.2169L25.6937 37.2172C26.0652 37.2184 26.4259 37.0295 26.7916 36.8507L33.0724 33.5189V25.7919ZM16.2333 33.2202C16.2333 33.8945 16.311 34.3376 16.4652 34.6498C16.593 34.9086 16.7848 35.1063 17.1349 35.347L17.1549 35.3606C17.2318 35.4129 17.3164 35.4677 17.4195 35.532L17.541 35.6071L17.9141 35.8343L17.3789 36.727L16.9613 36.4725L16.8911 36.429C16.7703 36.3538 16.6702 36.2892 16.5769 36.2257C15.5789 35.5469 15.2067 34.8068 15.1993 33.2671L15.1992 33.2202H16.2333ZM25.1916 21.1163C25.1433 21.1329 25.098 21.1521 25.0568 21.174L18.4298 24.6843C18.4229 24.6879 18.4162 24.6916 18.4099 24.6952L18.4043 24.6984L18.4147 24.7044L18.4298 24.7126L25.0568 28.2229C25.098 28.2447 25.1433 28.264 25.1916 28.2806V21.1163ZM26.2474 21.1163V28.2806C26.2957 28.264 26.341 28.2447 26.3823 28.2229L33.0091 24.7126C33.0161 24.709 33.0227 24.7053 33.029 24.7017L33.0347 24.6984L33.0243 24.6925L33.0091 24.6843L26.3823 21.174C26.341 21.1521 26.2957 21.1329 26.2474 21.1163ZM33.0724 17.2701L27.1147 20.3998L33.0724 23.5295V17.2701ZM18.3289 17.2701V23.5295L24.2866 20.3998L18.3289 17.2701ZM26.3765 12.6181C26.0315 12.4357 25.4075 12.4357 25.0626 12.6181L18.4299 16.1247C18.4229 16.1284 18.4163 16.1321 18.4099 16.1357L18.4043 16.1389L18.4147 16.1449L18.4299 16.1531L25.0626 19.6597C25.4075 19.8421 26.0315 19.8421 26.3765 19.6597L33.0091 16.1531C33.0161 16.1494 33.0227 16.1458 33.029 16.1422L33.0347 16.1389L33.0243 16.133L33.0091 16.1247L26.3765 12.6181ZM34.0601 12.9715L34.4777 13.226L34.5479 13.2695C34.6687 13.3447 34.7688 13.4093 34.8621 13.4728C35.8601 14.1517 36.2323 14.8918 36.2397 16.4314L36.2398 16.4783H35.2057C35.2057 15.804 35.128 15.3609 34.9738 15.0487C34.846 14.7899 34.6543 14.5922 34.3041 14.3516L34.2841 14.3379C34.2073 14.2856 34.1226 14.2309 34.0196 14.1665L33.898 14.0914L33.5249 13.8642L34.0601 12.9715Z" fill="white"/>
</svg>
