<svg width="49" height="48" viewBox="0 0 49 48" fill="none" xmlns="http://www.w3.org/2000/svg">
<rect x="0.70339" y="1.07619" width="44.339" height="44.339" rx="6.30508" fill="#D0D0D0" stroke="#535354" stroke-width="0.40678"/>
<rect x="3.55105" y="2.70339" width="44.339" height="44.339" rx="6.30508" fill="black" stroke="#535354" stroke-width="0.40678"/>
<g clip-path="url(#clip0_9156_23630)">
<mask id="mask0_9156_23630" style="mask-type:luminance" maskUnits="userSpaceOnUse" x="12" y="11" width="28" height="28">
<path d="M39.1434 11.4258H12.2959V38.2732H39.1434V11.4258Z" fill="white"/>
</mask>
<g mask="url(#mask0_9156_23630)">
<path d="M39.1465 24.8467C39.1465 22.1923 38.3595 19.5975 36.8847 17.3904C35.4101 15.1834 33.3139 13.4632 30.8616 12.4474C28.4093 11.4316 25.7107 11.1658 23.1073 11.6837C20.5039 12.2015 18.1125 13.4797 16.2356 15.3567C14.3586 17.2336 13.0804 19.625 12.5626 22.2284C12.0447 24.8318 12.3105 27.5303 13.3263 29.9826C14.3421 32.435 16.0623 34.5311 18.2693 36.0057C20.4764 37.4805 23.0712 38.2677 25.7256 38.2677C27.4881 38.2678 29.2334 37.9208 30.8618 37.2464C32.4903 36.572 33.9697 35.5834 35.216 34.3372C36.4623 33.0909 37.451 31.6113 38.1253 29.9829C38.7998 28.3546 39.1468 26.6093 39.1465 24.8467Z" fill="#00CFFF"/>
<path d="M34.5386 24.176C34.2542 23.9609 33.9586 23.7614 33.6526 23.5784C33.5208 23.4949 33.3981 23.3977 33.2866 23.2885C33.058 23.0629 32.6771 22.667 32.553 22.4235C32.4724 22.2741 32.5053 21.9887 32.568 21.7213C32.6752 21.2525 32.5936 20.7603 32.3409 20.3512L31.9435 19.7028C31.7601 19.4078 31.6133 19.0918 31.5057 18.7616C31.368 18.3376 31.129 17.9535 30.8094 17.6426C30.1626 17.0106 28.3713 16.7013 26.8847 16.6505C26.7928 16.6237 26.6995 16.6018 26.6053 16.5848C25.9419 16.4712 25.2367 16.286 24.6018 16.4085C23.662 16.5833 22.7103 16.8776 22.0007 17.6037C21.8512 17.7531 21.6331 17.8203 21.4792 17.9593C21.173 18.2357 20.7621 18.2357 20.4902 18.542C20.3303 18.7212 20.2571 19.3039 19.8403 19.5265C19.15 19.8971 18.645 20.3034 18.4732 20.5111C18.3462 20.668 18.2491 20.8502 18.1266 21.0101C18.0041 21.17 17.4065 21.4583 17.2302 21.6242C17.0984 21.7704 17.0027 21.9455 16.9508 22.1355C16.8989 22.3254 16.8922 22.5248 16.9314 22.7178C16.9419 22.7641 16.9493 22.8015 16.9553 22.8313C17.024 23.0853 17.2093 23.544 17.1659 23.7546C17.1166 24.0042 16.4742 25.8627 17.913 26.3587C18.0442 26.3983 18.1594 26.4787 18.2417 26.5885C18.3239 26.6981 18.369 26.8313 18.3701 26.9683C18.3995 27.2165 18.4707 27.458 18.5808 27.6825C18.6764 27.8646 18.8174 28.019 18.9902 28.1307C19.1745 28.3063 19.3486 28.4923 19.5116 28.688C20.0196 29.6277 19.8776 30.0969 20.8562 30.4166C21.106 30.4991 21.346 30.6089 21.5719 30.7438C21.8467 30.9095 22.1414 31.04 22.4489 31.1323L22.4877 31.1457C22.7043 30.6242 22.9225 30.1281 23.1421 29.662C22.5755 29.1091 22.1712 28.4116 21.9731 27.6452C21.7751 26.8787 21.7908 26.0726 22.0186 25.3144C22.0234 25.2982 22.0321 25.2835 22.0442 25.2716C22.0562 25.2597 22.071 25.251 22.0872 25.2464C22.1035 25.2417 22.1207 25.2413 22.1371 25.2451C22.1536 25.2489 22.1688 25.2568 22.1814 25.2681C22.549 25.5908 23.6665 26.7532 23.535 28.8538C23.922 28.0814 24.297 27.4016 24.6406 26.8219C24.2256 26.1434 24.0032 25.3646 23.9972 24.5692C23.9911 23.7738 24.2017 22.9918 24.6063 22.3069C24.6155 22.2928 24.6281 22.2811 24.643 22.273C24.6578 22.265 24.6745 22.2607 24.6914 22.2607C24.7083 22.2607 24.725 22.265 24.7399 22.273C24.7547 22.2811 24.7673 22.2928 24.7766 22.3069C25.035 22.6894 25.7342 23.9504 25.301 25.7507C25.6162 25.2696 25.8717 24.914 26.0375 24.6914C26.4858 21.7033 28.7447 20.7247 29.3379 20.5171C29.3538 20.5112 29.3709 20.5094 29.3875 20.5119C29.4043 20.5145 29.4201 20.5212 29.4335 20.5315C29.4469 20.5418 29.4576 20.5553 29.4643 20.5708C29.4712 20.5863 29.4739 20.6033 29.4723 20.6202C29.3795 21.5295 29.0484 22.3983 28.5125 23.1388C27.9765 23.8794 27.2548 24.4654 26.42 24.8378C26.1048 25.2517 25.803 25.6879 25.5131 26.1362C26.5126 25.3533 27.9155 24.9857 29.0809 25.2681C29.0973 25.2719 29.1126 25.2798 29.1252 25.291C29.1379 25.3022 29.1475 25.3164 29.1533 25.3323C29.159 25.3481 29.1608 25.3652 29.1583 25.3819C29.1558 25.3986 29.1493 25.4144 29.1392 25.428C28.8044 25.8762 27.4718 27.3703 24.9559 27.0235C24.533 27.7393 24.1431 28.4639 23.7995 29.1556C24.8826 28.3368 26.4663 28.0217 27.6945 28.4354C27.7108 28.4405 27.7257 28.4497 27.7375 28.462C27.7495 28.4744 27.7581 28.4894 27.7625 28.5061C27.767 28.5225 27.7672 28.5401 27.7631 28.5567C27.759 28.5734 27.7508 28.5887 27.7393 28.6012C27.3583 29.0122 25.8896 30.3598 23.4738 29.8249C23.2467 30.3045 22.909 31.0904 22.7447 31.4788C22.6879 31.6133 22.6356 31.7477 22.5953 31.8851C22.4892 32.2019 22.3443 32.5978 22.1725 32.9938C22.1486 33.0501 22.1366 33.1108 22.137 33.172C22.1375 33.2333 22.1506 33.2938 22.1754 33.3498C22.2001 33.4057 22.2361 33.4561 22.2811 33.4977C22.3261 33.5392 22.3791 33.5712 22.4369 33.5914C24.3424 34.2723 26.4116 34.3491 28.3622 33.811C28.4268 33.7926 28.4862 33.7599 28.5364 33.7154C28.5865 33.671 28.626 33.6158 28.6522 33.5541C28.6925 33.4585 28.7327 33.3672 28.7327 33.3672C28.7327 33.3672 29.5754 31.4101 29.6993 30.5571C29.7351 30.2883 29.8186 30.0283 29.9459 29.789C30.0119 29.6693 30.1074 29.5684 30.2232 29.4957C30.3389 29.423 30.4713 29.3811 30.6078 29.3737C31.2487 29.3394 32.6158 29.2497 33.1133 29.0928C33.7751 28.8821 33.4884 27.678 33.4524 27.5495C33.4165 27.4211 33.7707 27.1177 33.8438 26.9415C33.9171 26.7651 33.6646 26.7054 33.5615 26.5111C33.4584 26.3169 33.817 26.1794 33.8678 26.0032C33.9186 25.8269 33.7513 25.6356 33.684 25.5057C33.638 25.4113 33.6063 25.3106 33.5898 25.2069C33.5898 25.2069 34.0739 24.8528 34.3368 24.6287C34.5999 24.4046 34.546 24.2208 34.5446 24.1805" fill="black"/>
</g>
</g>
<defs>
<clipPath id="clip0_9156_23630">
<rect width="26.8475" height="26.8475" fill="white" transform="translate(12.2969 11.4255)"/>
</clipPath>
</defs>
</svg>
