<svg width="119" height="115" viewBox="0 0 119 115" fill="none" xmlns="http://www.w3.org/2000/svg">
<rect x="0.852051" y="0.557617" width="109" height="109" rx="15.5" fill="#D0D0D0" stroke="#535354"/>
<rect x="7.85205" y="4.55762" width="109" height="109" rx="15.5" fill="#214E81" stroke="#535354"/>
<g clip-path="url(#clip0_8557_1298)">
<path d="M68.946 67.0748C56.5855 70.7866 46.3607 76.2012 39.9587 82.5452L39.6763 82.8276C41.3791 84.438 43.2455 85.8795 45.2625 87.1044L45.6955 86.5738C47.4431 84.438 49.3175 82.3762 51.2685 80.4332C56.5063 75.2139 62.4991 70.6968 68.9512 67.0695L68.9433 67.0748H68.946Z" fill="#FFECD4"/>
<path d="M29.5708 61.5757C30.0645 68.1942 32.5223 74.2635 36.3794 79.2003L36.5563 79.0234C40.5189 75.1136 45.6774 71.5601 51.8999 68.4634C57.3541 65.7469 63.6162 63.4158 70.3667 61.5757H29.5708Z" fill="#FFECD4"/>
<path d="M54.7273 34.3731C65.7863 45.3925 79.7043 52.6789 94.9715 55.443C93.1287 39.1067 79.2239 26.3977 62.3305 26.3977C57.8689 26.3977 53.6159 27.2874 49.7324 28.8925C51.3085 30.7907 52.9928 32.6387 54.7273 34.3731Z" fill="#FFECD4"/>
<path d="M39.959 35.7222C46.361 42.074 56.5858 47.4807 68.9462 51.2005C62.4941 47.5678 56.5013 43.0561 51.2635 37.8368C49.3178 35.899 47.4461 33.8372 45.6905 31.6962L45.2575 31.1655C43.2406 32.3905 41.3741 33.8293 39.6792 35.4397L39.9617 35.7222H39.959Z" fill="#FFECD4"/>
<path d="M54.7273 83.8942C52.9849 85.6287 51.3032 87.4767 49.7324 89.3748C53.6106 90.98 57.8689 91.8696 62.3305 91.8696C79.2265 91.8696 93.1314 79.1607 94.9767 62.8191C79.7123 65.5832 65.7942 72.8696 54.7326 83.8889L54.7273 83.8942Z" fill="#FFECD4"/>
<path d="M51.8999 49.8039C45.6774 46.7072 40.5189 43.1511 36.5563 39.2439L36.3794 39.067C32.5223 44.0038 30.0645 50.0732 29.5708 56.6917H70.3588C63.6109 54.8516 57.3541 52.5204 51.892 49.796L51.8973 49.8039H51.8999Z" fill="#FFECD4"/>
</g>
<defs>
<clipPath id="clip0_8557_1298">
<rect width="66" height="66" fill="white" transform="translate(29.2583 26.0439)"/>
</clipPath>
</defs>
</svg>
