<svg width="119" height="115" viewBox="0 0 119 115" fill="none" xmlns="http://www.w3.org/2000/svg">
<rect x="1.26807" y="0.739502" width="109" height="109" rx="15.5" fill="#D0D0D0" stroke="#535354"/>
<rect x="8.55469" y="4.62427" width="109" height="109" rx="17.8219" fill="white"/>
<rect x="8.55469" y="4.62427" width="109" height="109" rx="17.8219" fill="url(#paint0_radial_8791_107)"/>
<rect x="8.55469" y="4.62427" width="109" height="109" rx="17.8219" stroke="#535354"/>
<path d="M69.1632 85.472C69.1632 88.0364 67.0585 90.1208 64.0711 90.1806L63.8225 90.1819H63.7137C45.5133 90.1525 30.7681 75.3891 30.7681 57.1819C30.7681 38.9565 45.5427 24.1819 63.7681 24.1819C63.8664 24.1819 63.9646 24.1823 64.0626 24.1832C67.4339 24.2432 69.1632 26.3275 69.1632 28.8917C69.1632 31.5015 66.8563 33.4218 64.4121 33.4218C61.9681 33.4219 61.8481 33.4219 59.5086 33.6093C57.169 33.7968 54.7498 35.7172 54.7498 38.3192C54.7498 40.9367 56.8761 43.0445 59.5086 43.0445H80.2571C82.8819 43.0445 85.0082 45.1524 85.0082 47.7544C85.0082 50.3564 82.8819 52.4643 80.2571 52.4643H48.2989C45.6664 52.4643 43.5402 54.5799 43.5402 57.1896C43.5402 59.7916 45.6664 61.8994 48.2989 61.8994H64.4122C67.037 61.8994 69.1632 64.0073 69.1632 66.617C69.1632 69.219 67.037 71.3269 64.4122 71.3269H59.5086C56.8761 71.3269 54.7498 73.4348 54.7498 76.0368C54.7498 78.6465 56.929 80.5515 59.5086 80.7467L60.0691 80.7893C60.977 80.8585 61.473 80.8963 61.9697 80.917C62.5679 80.9419 63.1672 80.9419 64.4881 80.9419C67.1128 80.9419 69.1632 82.87 69.1632 85.472Z" fill="white"/>
<defs>
<radialGradient id="paint0_radial_8791_107" cx="0" cy="0" r="1" gradientUnits="userSpaceOnUse" gradientTransform="translate(115.548 -6.78094) rotate(112.241) scale(211.157 301.896)">
<stop offset="0.155205" stop-color="#8049F2"/>
<stop offset="1" stop-color="#6D4EAE" stop-opacity="0"/>
</radialGradient>
</defs>
</svg>
