<svg width="432" height="381" viewBox="0 0 432 381" fill="none" xmlns="http://www.w3.org/2000/svg">
<g clip-path="url(#clip0_9231_23505)">
<path d="M118.542 195.845C93.4472 205.478 85.7744 260.496 98.6275 293.98C109.279 321.727 140.335 335.555 168.083 324.903C195.83 314.252 209.657 283.196 199.006 255.448C186.153 221.965 143.636 186.212 118.542 195.845ZM166.996 300.641C145.486 308.898 125.669 300.135 117.385 278.553C115.871 274.61 117.859 270.145 121.803 268.631C125.746 267.117 130.211 269.105 131.725 273.049C139.761 293.985 157.333 287.898 161.491 286.301C165.435 284.788 169.9 286.776 171.413 290.719C172.927 294.663 170.939 299.128 166.996 300.641Z" fill="#FFCD20"/>
</g>
<g clip-path="url(#clip1_9231_23505)" filter="url(#filter0_f_9231_23505)">
<path d="M122.545 93.2714C118.189 94.9438 116.857 104.496 119.088 110.309C120.937 115.126 126.329 117.527 131.146 115.677C135.964 113.828 138.364 108.436 136.515 103.619C134.283 97.8061 126.902 91.5991 122.545 93.2714ZM130.958 111.465C127.223 112.899 123.783 111.377 122.345 107.63C122.082 106.946 122.427 106.171 123.112 105.908C123.796 105.645 124.571 105.99 124.834 106.675C126.229 110.31 129.28 109.253 130.002 108.976C130.687 108.713 131.462 109.058 131.725 109.743C131.987 110.427 131.642 111.202 130.958 111.465Z" fill="#FFCD20"/>
</g>
<g clip-path="url(#clip2_9231_23505)" filter="url(#filter1_f_9231_23505)">
<path d="M317.991 260.886C305.719 257.134 286.66 275.578 281.654 291.953C277.505 305.523 285.125 319.853 298.695 324.002C312.265 328.151 326.596 320.531 330.744 306.961C335.751 290.586 330.264 264.638 317.991 260.886ZM305.417 314.555C294.898 311.339 290.019 302.217 293.245 291.662C293.835 289.734 295.895 288.638 297.824 289.228C299.752 289.818 300.848 291.878 300.258 293.806C297.128 304.045 305.528 306.92 307.562 307.542C309.49 308.132 310.586 310.192 309.996 312.12C309.406 314.049 307.346 315.144 305.417 314.555Z" fill="#FFCD20"/>
</g>
<g filter="url(#filter2_f_9231_23505)">
<path d="M304.141 101.587C306.893 127.332 287.736 145.993 261.353 143.267C234.97 140.542 211.351 117.462 208.599 91.7164C205.847 65.9712 225.004 47.3103 251.387 50.036C277.77 52.7617 301.389 75.8419 304.141 101.587Z" fill="#D0D0D0" stroke="#535354" stroke-width="1.71131"/>
<path d="M265.884 136.929C278.851 138.269 289.977 134.351 297.519 127.004C305.059 119.659 309.084 108.824 307.734 96.191C305.026 70.8618 281.738 48.0858 255.742 45.4002C242.776 44.0605 231.65 47.9785 224.108 55.3256C216.568 62.6706 212.543 73.5057 213.893 86.1385C216.601 111.468 239.889 134.244 265.884 136.929Z" fill="url(#paint0_linear_9231_23505)" stroke="#535354" stroke-width="1.71131"/>
<path d="M283.124 84.7734L239.86 59.5397L266.086 82.795L246.819 93.333L270.658 93.1914L267.625 122.593L283.124 84.7734Z" fill="#FDFCF9" stroke="#535354" stroke-width="1.71131"/>
</g>
<path d="M318.508 108.939C321.467 136.623 300.868 156.688 272.499 153.757C244.129 150.827 218.732 126.009 215.773 98.3256C212.814 70.6423 233.413 50.5766 261.783 53.5075C290.152 56.4384 315.549 81.2561 318.508 108.939Z" fill="#D0D0D0" stroke="#535354" stroke-width="1.64734"/>
<path d="M277.361 147.038C291.329 148.481 303.321 144.261 311.454 136.339C319.585 128.418 323.921 116.738 322.466 103.127C319.55 75.8439 294.472 51.3191 266.475 48.4268C252.507 46.9837 240.515 51.204 232.382 59.1262C224.251 67.0464 219.915 78.7273 221.37 92.338C224.286 119.621 249.364 144.146 277.361 147.038Z" fill="url(#paint1_linear_9231_23505)" stroke="#535354" stroke-width="1.64734"/>
<path d="M295.908 90.8598L249.388 63.7264L277.587 88.7325L256.87 100.064L282.504 99.9115L279.242 131.527L295.908 90.8598Z" fill="#FDFCF9" stroke="#535354" stroke-width="1.64734"/>
<g filter="url(#filter3_d_9231_23505)">
<path d="M253.82 199.697C236.846 196.089 223.46 184.873 216.45 170.357C210.782 159.422 209.767 147.225 212.268 135.461C213.855 127.993 216.739 120.216 220.549 112.645L234.992 131.669L250.501 114.56L257.009 141.543L265.737 131.897L270.489 139.214L286.845 128.592L297.822 145.024L318.981 125.77C320.25 136.944 319.989 148.126 317.908 157.915C316.114 166.354 312.461 173.912 307.47 180.248C298.116 194.303 285.481 200.939 267.337 200.84C262.9 201.027 258.367 200.664 253.82 199.697Z" fill="#FFCD20"/>
</g>
<defs>
<filter id="filter0_f_9231_23505" x="105.5" y="81.9871" width="44.3428" height="44.3423" filterUnits="userSpaceOnUse" color-interpolation-filters="sRGB">
<feFlood flood-opacity="0" result="BackgroundImageFix"/>
<feBlend mode="normal" in="SourceGraphic" in2="BackgroundImageFix" result="shape"/>
<feGaussianBlur stdDeviation="0.75" result="effect1_foregroundBlur_9231_23505"/>
</filter>
<filter id="filter1_f_9231_23505" x="254.65" y="237.138" width="112.034" height="112.034" filterUnits="userSpaceOnUse" color-interpolation-filters="sRGB">
<feFlood flood-opacity="0" result="BackgroundImageFix"/>
<feBlend mode="normal" in="SourceGraphic" in2="BackgroundImageFix" result="shape"/>
<feGaussianBlur stdDeviation="0.5375" result="effect1_foregroundBlur_9231_23505"/>
</filter>
<filter id="filter2_f_9231_23505" x="153.412" y="-9.78378" width="209.504" height="208.24" filterUnits="userSpaceOnUse" color-interpolation-filters="sRGB">
<feFlood flood-opacity="0" result="BackgroundImageFix"/>
<feBlend mode="normal" in="SourceGraphic" in2="BackgroundImageFix" result="shape"/>
<feGaussianBlur stdDeviation="27.0342" result="effect1_foregroundBlur_9231_23505"/>
</filter>
<filter id="filter3_d_9231_23505" x="201.181" y="96.8454" width="128.37" height="107.842" filterUnits="userSpaceOnUse" color-interpolation-filters="sRGB">
<feFlood flood-opacity="0" result="BackgroundImageFix"/>
<feColorMatrix in="SourceAlpha" type="matrix" values="0 0 0 0 0 0 0 0 0 0 0 0 0 0 0 0 0 0 127 0" result="hardAlpha"/>
<feOffset dy="-6"/>
<feGaussianBlur stdDeviation="4.9"/>
<feComposite in2="hardAlpha" operator="out"/>
<feColorMatrix type="matrix" values="0 0 0 0 0.586344 0 0 0 0 0.47623 0 0 0 0 0.0952332 0 0 0 0.25 0"/>
<feBlend mode="normal" in2="BackgroundImageFix" result="effect1_dropShadow_9231_23505"/>
<feBlend mode="normal" in="SourceGraphic" in2="effect1_dropShadow_9231_23505" result="shape"/>
</filter>
<linearGradient id="paint0_linear_9231_23505" x1="221.312" y1="119.266" x2="312.252" y2="14.9509" gradientUnits="userSpaceOnUse">
<stop stop-color="#2C3AD7"/>
<stop offset="0.418964" stop-color="#7138EB"/>
<stop offset="1" stop-color="#FFE24A"/>
</linearGradient>
<linearGradient id="paint1_linear_9231_23505" x1="229.443" y1="127.949" x2="327.229" y2="15.7812" gradientUnits="userSpaceOnUse">
<stop stop-color="#2C3AD7"/>
<stop offset="0.418964" stop-color="#7138EB"/>
<stop offset="1" stop-color="#FFE24A"/>
</linearGradient>
<clipPath id="clip0_9231_23505">
<rect width="184.32" height="184.32" fill="white" transform="translate(29 205.541) rotate(-21)"/>
</clipPath>
<clipPath id="clip1_9231_23505">
<rect width="32" height="32" fill="white" transform="translate(107 94.9548) rotate(-21)"/>
</clipPath>
<clipPath id="clip2_9231_23505">
<rect width="88" height="88" fill="white" transform="translate(281.453 238.213) rotate(17)"/>
</clipPath>
</defs>
</svg>
