<svg width="432" height="381" viewBox="0 0 432 381" fill="none" xmlns="http://www.w3.org/2000/svg">
<g filter="url(#filter0_f_9231_23392)">
<path d="M68 113.667C68 107.776 72.7756 103 78.6667 103H121.333C127.224 103 132 107.776 132 113.667V156.333C132 162.224 127.224 167 121.333 167H78.6667C72.7756 167 68 162.224 68 156.333V113.667Z" fill="#08131F"/>
<mask id="mask0_9231_23392" style="mask-type:luminance" maskUnits="userSpaceOnUse" x="81" y="117" width="38" height="36">
<path d="M81.3047 117.618H118.694V152.387H81.3047V117.618Z" fill="white"/>
</mask>
<g mask="url(#mask0_9231_23392)">
<path d="M114.017 135.881L93.4267 146.976C92.0047 147.742 91.5173 149.439 92.338 150.766C93.1587 152.092 94.9768 152.547 96.3988 151.781L116.989 140.685C118.411 139.919 118.899 138.222 118.078 136.895C117.257 135.569 115.439 135.114 114.017 135.881Z" fill="#FF7829"/>
<path d="M99.7759 132.333L84.333 140.654C82.911 141.42 82.4235 143.117 83.2442 144.444C84.0649 145.771 85.883 146.225 87.305 145.459L102.748 137.137C104.17 136.371 104.657 134.674 103.837 133.347C103.016 132.021 101.198 131.566 99.7759 132.333Z" fill="#FCBF22"/>
<path d="M103.596 119.031L83.0049 130.127C81.5829 130.893 81.0954 132.589 81.9161 133.916C82.7368 135.243 84.5549 135.697 85.9769 134.931L106.568 123.836C107.99 123.069 108.477 121.373 107.656 120.046C106.836 118.719 105.018 118.265 103.596 119.031Z" fill="#2AE5B9"/>
</g>
</g>
<g filter="url(#filter1_f_9231_23392)">
<path d="M324 289C324 284.582 327.582 281 332 281H364C368.418 281 372 284.582 372 289V321C372 325.418 368.418 329 364 329H332C327.582 329 324 325.418 324 321V289Z" fill="#151554"/>
<path d="M362.086 312.597L347.094 320.168V305.025L362.086 297.454V312.597Z" fill="#612FFB"/>
<path d="M347.093 305.025L332.432 297.454L347.093 289.883L362.086 297.454L347.093 305.025Z" fill="#8076FF"/>
<path d="M332.432 312.597L347.093 320.169V305.026L332.432 297.455V312.597Z" fill="#151554"/>
</g>
<g filter="url(#filter2_f_9231_23392)">
<rect x="226" y="84" width="154" height="83.2" rx="30" fill="#2B283C"/>
<rect x="227.3" y="85.3" width="151.4" height="80.6" rx="28.7" stroke="#3A3650" stroke-width="2.6"/>
<path fill-rule="evenodd" clip-rule="evenodd" d="M294.465 125.593C294.465 137.559 284.765 147.26 272.799 147.26C260.832 147.26 251.132 137.559 251.132 125.593C251.132 113.627 260.832 103.927 272.799 103.927C284.765 103.927 294.465 113.627 294.465 125.593ZM276.457 129.988L276.452 129.99L276.46 129.986L276.455 129.988H276.457ZM276.452 129.99C272.925 131.974 269.649 134.444 266.785 137.297C265.717 138.36 264.692 139.489 263.736 140.657L263.499 140.947C262.395 140.277 261.374 139.489 260.442 138.607L260.597 138.453C264.099 134.983 269.691 132.021 276.452 129.99ZM258.638 136.616C256.527 133.915 255.182 130.594 254.912 126.973H277.233C273.54 127.98 270.114 129.255 267.129 130.742C263.725 132.436 260.902 134.38 258.734 136.519L258.638 136.616ZM268.677 112.091C274.728 118.12 282.343 122.106 290.697 123.619C289.688 114.68 282.08 107.727 272.837 107.727C270.396 107.727 268.069 108.214 265.945 109.092C266.807 110.13 267.728 111.142 268.677 112.091ZM276.455 121.295C269.693 119.26 264.098 116.302 260.595 112.826H260.597L260.442 112.672C261.37 111.791 262.391 111.003 263.494 110.333L263.731 110.624C264.692 111.795 265.716 112.923 266.781 113.983C269.646 116.839 272.925 119.308 276.455 121.295ZM268.677 139.19C267.724 140.139 266.804 141.15 265.945 142.188C268.066 143.066 270.396 143.553 272.837 143.553C282.082 143.553 289.69 136.6 290.699 127.659C282.348 129.171 274.733 133.158 268.68 139.187L268.677 139.19ZM267.127 120.532C263.724 118.838 260.902 116.893 258.734 114.755L258.638 114.659C256.527 117.36 255.182 120.68 254.912 124.302H277.229C273.537 123.295 270.114 122.019 267.125 120.529L267.127 120.532Z" fill="white"/>
<path d="M322.845 140.099C320.71 140.099 318.907 139.711 317.437 138.934C315.995 138.13 314.83 137.062 313.943 135.731C313.055 134.372 312.403 132.875 311.987 131.238C311.599 129.574 311.405 127.869 311.405 126.122C311.405 122.905 311.849 120.09 312.736 117.677C313.651 115.264 314.955 113.378 316.647 112.019C318.338 110.66 320.377 109.981 322.762 109.981C324.675 109.981 326.298 110.355 327.629 111.104C328.988 111.825 330.042 112.796 330.791 114.016C331.567 115.236 332.039 116.581 332.205 118.051H328.336C328.087 116.609 327.463 115.5 326.464 114.723C325.494 113.919 324.246 113.517 322.72 113.517C321.361 113.517 320.141 113.947 319.059 114.806C317.978 115.638 317.118 116.914 316.48 118.634C315.87 120.353 315.523 122.53 315.44 125.165C315.44 125.193 315.44 125.234 315.44 125.29C315.44 125.345 315.44 125.401 315.44 125.456C315.856 124.624 316.452 123.861 317.229 123.168C318.006 122.475 318.921 121.934 319.975 121.546C321.056 121.13 322.221 120.922 323.469 120.922C325.105 120.922 326.631 121.31 328.045 122.086C329.487 122.835 330.652 123.917 331.539 125.331C332.427 126.746 332.871 128.396 332.871 130.282C332.871 131.973 332.455 133.568 331.623 135.066C330.818 136.563 329.667 137.784 328.17 138.726C326.672 139.642 324.897 140.099 322.845 140.099ZM322.554 136.48C323.746 136.48 324.8 136.23 325.715 135.731C326.658 135.204 327.393 134.483 327.92 133.568C328.475 132.653 328.752 131.613 328.752 130.448C328.752 129.256 328.475 128.216 327.92 127.328C327.393 126.413 326.658 125.706 325.715 125.206C324.8 124.707 323.746 124.458 322.554 124.458C321.361 124.458 320.294 124.735 319.351 125.29C318.408 125.817 317.659 126.538 317.104 127.453C316.55 128.34 316.272 129.353 316.272 130.49C316.272 131.654 316.55 132.694 317.104 133.61C317.659 134.497 318.408 135.204 319.351 135.731C320.321 136.23 321.389 136.48 322.554 136.48ZM341.56 135.44L339.106 132.986L344.555 127.494L339.272 122.253L341.768 119.798L347.051 125.04L352.459 119.59L354.914 122.045L349.506 127.494L354.747 132.778L352.251 135.232L347.01 129.99L341.56 135.44Z" fill="#F4F4F6"/>
</g>
<path d="M100 55H192C198.075 55 203 59.9249 203 66V106C203 112.075 198.075 117 192 117H100C93.9249 117 89 112.075 89 106V66C89 59.9249 93.9249 55 100 55Z" fill="#2B283C"/>
<path d="M100 55H192C198.075 55 203 59.9249 203 66V106C203 112.075 198.075 117 192 117H100C93.9249 117 89 112.075 89 106V66C89 59.9249 93.9249 55 100 55Z" stroke="#3A3650" stroke-width="2"/>
<rect x="107.334" y="69.3333" width="33.3333" height="33.3333" rx="16.6667" fill="url(#paint0_radial_9231_23392)"/>
<path d="M122.232 82.3924H113.867L112.334 79.3281H122.232V82.3924Z" fill="white"/>
<path d="M129.469 79.3281H134L125.925 94.3281H120.231L118.697 91.2638H123.278L129.469 79.3281Z" fill="white"/>
<path d="M116.846 88.3624H122.232V85.2981H115.312L116.846 88.3624Z" fill="white"/>
<path d="M153.888 97V94.696C155.381 93.544 156.8 92.3813 158.144 91.208C159.488 90.0347 160.683 88.872 161.728 87.72C162.795 86.5467 163.627 85.4053 164.224 84.296C164.821 83.1653 165.12 82.088 165.12 81.064C165.12 80.3387 164.992 79.6667 164.736 79.048C164.48 78.4293 164.075 77.928 163.52 77.544C162.965 77.1387 162.208 76.936 161.248 76.936C160.331 76.936 159.563 77.1387 158.944 77.544C158.347 77.9493 157.888 78.4933 157.568 79.176C157.269 79.8373 157.12 80.5733 157.12 81.384H154.016C154.037 79.848 154.368 78.5467 155.008 77.48C155.648 76.4133 156.512 75.6027 157.6 75.048C158.709 74.4933 159.947 74.216 161.312 74.216C162.741 74.216 163.979 74.4827 165.024 75.016C166.069 75.528 166.88 76.2853 167.456 77.288C168.032 78.2693 168.32 79.4747 168.32 80.904C168.32 81.928 168.117 82.952 167.712 83.976C167.307 84.9787 166.752 85.96 166.048 86.92C165.365 87.88 164.597 88.808 163.744 89.704C162.891 90.5787 162.005 91.4107 161.088 92.2C160.192 92.9893 159.328 93.704 158.496 94.344H169.024V97H153.888ZM174.767 93.8L172.879 91.912L177.071 87.688L173.007 83.656L174.927 81.768L178.991 85.8L183.151 81.608L185.039 83.496L180.879 87.688L184.911 91.752L182.991 93.64L178.959 89.608L174.767 93.8Z" fill="#F4F4F6"/>
<g filter="url(#filter3_d_9231_23392)">
<rect x="154" y="147" width="125" height="64" rx="24" fill="#EAD27E" fill-opacity="0.1" shape-rendering="crispEdges"/>
<rect x="154.5" y="147.5" width="124" height="63" rx="23.5" stroke="#FFCD20" shape-rendering="crispEdges"/>
<g clip-path="url(#clip0_9231_23392)">
<path d="M185.117 167C180.45 167 175.783 175.44 175.783 181.667C175.783 186.827 179.957 191 185.117 191C190.277 191 194.45 186.827 194.45 181.667C194.45 175.44 189.783 167 185.117 167ZM186.45 187C182.45 187 179.783 184.347 179.783 180.333C179.783 179.6 180.383 179 181.117 179C181.85 179 182.45 179.6 182.45 180.333C182.45 184.227 185.677 184.333 186.45 184.333C187.183 184.333 187.783 184.933 187.783 185.667C187.783 186.4 187.183 187 186.45 187Z" fill="#FFCD20"/>
</g>
<path d="M214.352 190V170.608L210.736 171.408V169.552L215.248 167.6H217.072V190H214.352ZM229.881 190.384C227.897 190.384 226.179 189.904 224.729 188.944C223.299 187.963 222.201 186.608 221.433 184.88C220.665 183.131 220.281 181.104 220.281 178.8C220.281 176.496 220.665 174.48 221.433 172.752C222.201 171.003 223.299 169.648 224.729 168.688C226.179 167.707 227.897 167.216 229.881 167.216C231.886 167.216 233.593 167.707 235.001 168.688C236.43 169.648 237.529 171.003 238.297 172.752C239.065 174.48 239.449 176.496 239.449 178.8C239.449 181.104 239.065 183.131 238.297 184.88C237.529 186.608 236.43 187.963 235.001 188.944C233.593 189.904 231.886 190.384 229.881 190.384ZM229.881 188.016C231.203 188.016 232.377 187.653 233.401 186.928C234.425 186.181 235.225 185.125 235.801 183.76C236.398 182.373 236.697 180.72 236.697 178.8C236.697 176.88 236.398 175.237 235.801 173.872C235.225 172.485 234.425 171.429 233.401 170.704C232.377 169.979 231.203 169.616 229.881 169.616C228.558 169.616 227.374 169.979 226.329 170.704C225.305 171.429 224.494 172.485 223.897 173.872C223.321 175.237 223.033 176.88 223.033 178.8C223.033 180.72 223.321 182.373 223.897 183.76C224.494 185.125 225.305 186.181 226.329 186.928C227.374 187.653 228.558 188.016 229.881 188.016ZM251.662 190.384C249.678 190.384 247.961 189.904 246.51 188.944C245.081 187.963 243.982 186.608 243.214 184.88C242.446 183.131 242.062 181.104 242.062 178.8C242.062 176.496 242.446 174.48 243.214 172.752C243.982 171.003 245.081 169.648 246.51 168.688C247.961 167.707 249.678 167.216 251.662 167.216C253.667 167.216 255.374 167.707 256.782 168.688C258.211 169.648 259.31 171.003 260.078 172.752C260.846 174.48 261.23 176.496 261.23 178.8C261.23 181.104 260.846 183.131 260.078 184.88C259.31 186.608 258.211 187.963 256.782 188.944C255.374 189.904 253.667 190.384 251.662 190.384ZM251.662 188.016C252.985 188.016 254.158 187.653 255.182 186.928C256.206 186.181 257.006 185.125 257.582 183.76C258.179 182.373 258.478 180.72 258.478 178.8C258.478 176.88 258.179 175.237 257.582 173.872C257.006 172.485 256.206 171.429 255.182 170.704C254.158 169.979 252.985 169.616 251.662 169.616C250.339 169.616 249.155 169.979 248.11 170.704C247.086 171.429 246.275 172.485 245.678 173.872C245.102 175.237 244.814 176.88 244.814 178.8C244.814 180.72 245.102 182.373 245.678 183.76C246.275 185.125 247.086 186.181 248.11 186.928C249.155 187.653 250.339 188.016 251.662 188.016Z" fill="#F4F4F6"/>
</g>
<g filter="url(#filter4_f_9231_23392)">
<rect x="61" y="267" width="92.9213" height="54.3371" rx="19.5927" fill="#2B283C"/>
<rect x="61.849" y="267.849" width="91.2233" height="52.639" rx="18.7437" stroke="#3A3650" stroke-width="1.69803"/>
<path fill-rule="evenodd" clip-rule="evenodd" d="M101.216 304.515C106.931 299.185 107.244 290.232 101.914 284.516C96.5843 278.8 87.6304 278.488 81.9149 283.818C81.8846 283.846 81.8544 283.874 81.8243 283.903C87.103 279.049 95.3181 279.358 100.217 284.611C105.136 289.887 104.848 298.152 99.572 303.072C94.2962 307.991 86.031 307.703 81.1112 302.427C77.4229 298.472 76.6619 292.837 78.7348 288.19C76.3747 293.262 77.1669 299.474 81.2165 303.817C86.5463 309.532 95.5002 309.845 101.216 304.515Z" fill="url(#paint1_linear_9231_23392)"/>
<path fill-rule="evenodd" clip-rule="evenodd" d="M100.175 298.702C103.482 292.975 101.52 285.653 95.7929 282.346C90.0663 279.04 82.7435 281.002 79.4372 286.729C76.1308 292.455 78.093 299.778 83.8197 303.084C89.5464 306.391 96.8692 304.429 100.175 298.702ZM98.2902 297.614C101.296 292.407 99.5122 285.75 94.3061 282.745C89.0999 279.739 82.4429 281.523 79.4372 286.729C76.4314 291.935 78.2151 298.592 83.4213 301.598C88.6274 304.603 95.2844 302.82 98.2902 297.614Z" fill="url(#paint2_linear_9231_23392)"/>
<path fill-rule="evenodd" clip-rule="evenodd" d="M96.4165 296.509C99.1218 291.823 97.5164 285.832 92.8308 283.127C88.1454 280.422 82.1541 282.027 79.4489 286.712C76.7437 291.398 78.3491 297.389 83.0346 300.094C87.7201 302.8 93.7114 301.194 96.4165 296.509ZM94.5313 295.42C96.9359 291.255 95.5088 285.93 91.344 283.525C87.1791 281.121 81.8535 282.548 79.4489 286.712C77.0443 290.877 78.4713 296.203 82.6362 298.608C86.8011 301.012 92.1266 299.585 94.5313 295.42Z" fill="url(#paint3_linear_9231_23392)"/>
<path fill-rule="evenodd" clip-rule="evenodd" d="M91.4052 293.005C92.986 289.615 91.5193 285.585 88.1292 284.004C84.7552 282.431 80.7475 283.877 79.1512 287.233C80.9451 283.453 85.4565 281.824 89.2544 283.595C93.0681 285.373 94.7181 289.907 92.9397 293.721C91.1613 297.534 86.628 299.184 82.8142 297.406C79.0164 295.635 77.3642 291.132 79.1066 287.328C77.5618 290.708 79.0306 294.707 82.4047 296.281C85.7947 297.862 89.8244 296.395 91.4052 293.005Z" fill="url(#paint4_linear_9231_23392)"/>
<path d="M119.494 303.669V287.721L116.179 288.563V286.525L120.499 284.651H122.265V303.669H119.494ZM128.273 300.952L126.67 299.349L130.229 295.763L126.778 292.339L128.408 290.736L131.859 294.16L135.391 290.601L136.994 292.203L133.462 295.763L136.885 299.213L135.255 300.816L131.832 297.393L128.273 300.952Z" fill="#F4F4F6"/>
</g>
<rect x="217" y="231" width="115" height="62" rx="18" fill="#2B283C"/>
<rect x="217" y="231" width="115" height="62" rx="18" stroke="#3A3650" stroke-width="2"/>
<path d="M239.454 248.686C240.046 247.644 241.153 247 242.352 247L261.651 247C262.85 247 263.956 247.644 264.549 248.686L268.234 255.172C268.925 256.388 268.784 257.907 267.879 258.974L252.967 276.571C252.841 276.707 252.691 276.815 252.525 276.888C252.359 276.962 252.181 277 252.001 277C251.821 277 251.643 276.962 251.478 276.888C251.312 276.815 251.161 276.707 251.036 276.571L236.123 258.974C235.219 257.907 235.077 256.388 235.768 255.172L239.454 248.686Z" fill="url(#paint5_linear_9231_23392)"/>
<path d="M253.808 261.99L247.048 260.333L253.808 258.676L248.788 250.333L258.715 260.333L248.788 270.333L253.808 261.99Z" fill="white"/>
<path d="M289.44 273.384C288.011 273.384 286.699 273.128 285.504 272.616C284.331 272.083 283.392 271.293 282.688 270.248C282.005 269.181 281.643 267.848 281.6 266.248H284.8C284.821 267.059 285.013 267.795 285.376 268.456C285.739 269.117 286.261 269.651 286.944 270.056C287.648 270.44 288.48 270.632 289.44 270.632C290.4 270.632 291.2 270.451 291.84 270.088C292.501 269.725 292.992 269.235 293.312 268.616C293.653 267.997 293.824 267.304 293.824 266.536C293.824 265.576 293.589 264.797 293.12 264.2C292.672 263.603 292.053 263.155 291.264 262.856C290.496 262.557 289.632 262.408 288.672 262.408H287.008V259.72H288.672C290.016 259.72 291.083 259.411 291.872 258.792C292.683 258.173 293.088 257.299 293.088 256.168C293.088 255.229 292.779 254.461 292.16 253.864C291.541 253.267 290.635 252.968 289.44 252.968C288.245 252.968 287.296 253.309 286.592 253.992C285.909 254.675 285.525 255.539 285.44 256.584H282.272C282.336 255.325 282.667 254.216 283.264 253.256C283.883 252.275 284.715 251.528 285.76 251.016C286.827 250.483 288.053 250.216 289.44 250.216C290.933 250.216 292.181 250.483 293.184 251.016C294.208 251.528 294.976 252.221 295.488 253.096C296.021 253.971 296.288 254.931 296.288 255.976C296.288 256.765 296.139 257.501 295.84 258.184C295.541 258.845 295.115 259.421 294.56 259.912C294.005 260.403 293.333 260.755 292.544 260.968C293.397 261.139 294.165 261.469 294.848 261.96C295.531 262.451 296.064 263.091 296.448 263.88C296.832 264.648 297.024 265.544 297.024 266.568C297.024 267.784 296.736 268.915 296.16 269.96C295.584 270.984 294.731 271.816 293.6 272.456C292.491 273.075 291.104 273.384 289.44 273.384ZM303.736 269.8L301.848 267.912L306.04 263.688L301.976 259.656L303.896 257.768L307.96 261.8L312.12 257.608L314.008 259.496L309.848 263.688L313.88 267.752L311.96 269.64L307.928 265.608L303.736 269.8Z" fill="#F4F4F6"/>
<defs>
<filter id="filter0_f_9231_23392" x="64.8125" y="99.8125" width="70.375" height="70.375" filterUnits="userSpaceOnUse" color-interpolation-filters="sRGB">
<feFlood flood-opacity="0" result="BackgroundImageFix"/>
<feBlend mode="normal" in="SourceGraphic" in2="BackgroundImageFix" result="shape"/>
<feGaussianBlur stdDeviation="1.59375" result="effect1_foregroundBlur_9231_23392"/>
</filter>
<filter id="filter1_f_9231_23392" x="320.75" y="277.75" width="54.5" height="54.5" filterUnits="userSpaceOnUse" color-interpolation-filters="sRGB">
<feFlood flood-opacity="0" result="BackgroundImageFix"/>
<feBlend mode="normal" in="SourceGraphic" in2="BackgroundImageFix" result="shape"/>
<feGaussianBlur stdDeviation="1.625" result="effect1_foregroundBlur_9231_23392"/>
</filter>
<filter id="filter2_f_9231_23392" x="223.885" y="81.8846" width="158.231" height="87.4307" filterUnits="userSpaceOnUse" color-interpolation-filters="sRGB">
<feFlood flood-opacity="0" result="BackgroundImageFix"/>
<feBlend mode="normal" in="SourceGraphic" in2="BackgroundImageFix" result="shape"/>
<feGaussianBlur stdDeviation="1.05769" result="effect1_foregroundBlur_9231_23392"/>
</filter>
<filter id="filter3_d_9231_23392" x="145.1" y="138.1" width="142.8" height="81.8" filterUnits="userSpaceOnUse" color-interpolation-filters="sRGB">
<feFlood flood-opacity="0" result="BackgroundImageFix"/>
<feColorMatrix in="SourceAlpha" type="matrix" values="0 0 0 0 0 0 0 0 0 0 0 0 0 0 0 0 0 0 127 0" result="hardAlpha"/>
<feOffset/>
<feGaussianBlur stdDeviation="2.925"/>
<feComposite in2="hardAlpha" operator="out"/>
<feColorMatrix type="matrix" values="0 0 0 0 1 0 0 0 0 0.803922 0 0 0 0 0.12549 0 0 0 0.6 0"/>
<feBlend mode="normal" in2="BackgroundImageFix" result="effect1_dropShadow_9231_23392"/>
<feBlend mode="normal" in="SourceGraphic" in2="effect1_dropShadow_9231_23392" result="shape"/>
</filter>
<filter id="filter4_f_9231_23392" x="58.8846" y="264.885" width="97.1517" height="58.5678" filterUnits="userSpaceOnUse" color-interpolation-filters="sRGB">
<feFlood flood-opacity="0" result="BackgroundImageFix"/>
<feBlend mode="normal" in="SourceGraphic" in2="BackgroundImageFix" result="shape"/>
<feGaussianBlur stdDeviation="1.05769" result="effect1_foregroundBlur_9231_23392"/>
</filter>
<radialGradient id="paint0_radial_9231_23392" cx="0" cy="0" r="1" gradientUnits="userSpaceOnUse" gradientTransform="translate(117.312 114.758) rotate(-67.6713) scale(46.6064 84.3983)">
<stop stop-color="#F65A34"/>
<stop offset="0.356215" stop-color="#FD10E4"/>
<stop offset="0.701106" stop-color="#FF7A11"/>
<stop offset="1" stop-color="#FFC86B"/>
</radialGradient>
<linearGradient id="paint1_linear_9231_23392" x1="77.8888" y1="338.096" x2="106.785" y2="337.775" gradientUnits="userSpaceOnUse">
<stop stop-color="#7A8FD9"/>
<stop offset="1" stop-color="#AC62E4"/>
</linearGradient>
<linearGradient id="paint2_linear_9231_23392" x1="78.232" y1="329.892" x2="102.686" y2="329.621" gradientUnits="userSpaceOnUse">
<stop stop-color="#7A8FD9"/>
<stop offset="1" stop-color="#AC62E4"/>
</linearGradient>
<linearGradient id="paint3_linear_9231_23392" x1="78.4628" y1="322.028" x2="98.4708" y2="321.806" gradientUnits="userSpaceOnUse">
<stop stop-color="#7A8FD9"/>
<stop offset="1" stop-color="#AC62E4"/>
</linearGradient>
<linearGradient id="paint4_linear_9231_23392" x1="78.6682" y1="314.16" x2="94.2311" y2="313.987" gradientUnits="userSpaceOnUse">
<stop stop-color="#7A8FD9"/>
<stop offset="1" stop-color="#AC62E4"/>
</linearGradient>
<linearGradient id="paint5_linear_9231_23392" x1="280.435" y1="247" x2="229.04" y2="289.303" gradientUnits="userSpaceOnUse">
<stop offset="0.19" stop-color="#FE9A4C"/>
<stop offset="0.655" stop-color="#124E81"/>
</linearGradient>
<clipPath id="clip0_9231_23392">
<rect width="32" height="32" fill="white" transform="translate(170 163)"/>
</clipPath>
</defs>
</svg>
